<svg xmlns="http://www.w3.org/2000/svg" viewBox="0 0 3000 2775" width="3000" height="2775"><g transform="translate(1137.0 152.25) rotate(0.0 867.75 595.5) scale(0.7501497706110727 0.7503019161992767)"><svg width="2313.538" height="1587.361" viewBox="0 0 2313.538 1587.361"><path d="M225.272 1039.109 0 1300.569l172.799 117.612 222.557-237.938z" fill="#f69578"/><path d="m334.462 1245.346 60.894-65.103-170.084-141.134-28.29 32.835z" fill="#3c191e"/><path d="m1898.622 632.692-72.425-122.97a69.317 69.317 0 0 1 .655-72.69c23.538-37.463 59.269-94.491 76.722-123.137 5.143-8.442 15.702-11.818 24.793-7.936 12.507 5.34 19.494 18.78 16.661 32.081-6.758 31.724-19.824 87.669-32.386 110.992 0 0 89.149 62.178 63.856 174.599z" fill="#f69578"/><path d="m1862.039 1059.163 155.047 98.044-120.304-527.518 146.389-9.94 260.837 662.744c19.429 49.365 8.644 105.509-27.693 144.162-40.869 43.474-105.158 55.535-159.005 29.83l-361.494-172.564z" fill="#f69578"/><path d="m1812.769 1311.109 84.75-229.51-35.48-22.437-106.225 224.759z" fill="#3c191e"/><path d="M2038.846 629.68s33.485-61.987 30.978-123.043-138.876-145.127-138.876-145.127l-53.139 86.183 61.177 192.908z" fill="#f69578"/><path d="M2048.774 1273.543a5.003 5.003 0 0 1-4.822-3.688l-32.797-120.528a5 5 0 0 1 3.512-6.137 4.995 4.995 0 0 1 6.138 3.512l32.797 120.528a5 5 0 0 1-4.828 6.313zm-79.957-712.652a5 5 0 0 1-4.962-4.438c-7.271-64.181-67.742-96.072-68.353-96.387a5.007 5.007 0 0 1-1.833-7.278l23.447-34.129a5 5 0 1 1 8.242 5.662l-20.376 29.66c6.156 3.756 17.304 11.294 28.961 22.814 22.801 22.531 36.58 49.687 39.848 78.531a5 5 0 0 1-4.405 5.53 4.209 4.209 0 0 1-.569.035z" fill="#3c191e"/><path d="m1176.784 668.969-42.278 133.881-110.099-18.937 48.884-160.305z" fill="#f69578"/><path d="M1085.464 628.943c4.02 49.368 52.354 85.595 74.462 93.413l16.859-53.387z" fill="#3c191e"/><ellipse cx="1156.215" cy="507.355" fill="#f69578" rx="154" ry="175" transform="matrix(.8663 -.4996 .4996 .8663 -98.8385 645.496)"/><path d="M991.398 422.522s-28.288-19.766-59.553-7.847c-18.759 7.151-32.946 17.162-43.375 42.633-7.228 17.652-16.787 63.948-17.054 134.589l-1.673 442.037 142.724 140.486-62.74-668.79z" fill="#3c191e"/><path d="m969.702 532.248-.792-11.885 26.535-115.451s-32.488-2.165-63.822 9.849c.198 26.89 4.505 88.414 38.079 117.487z" fill="#fae2ce"/><path d="M1058.658 531.75s86.751-48.296 46.457-139.371c0 0 119.942-23.687 70.159-50.723 0 0 59.129-19.164 40.768-41.716-18.361-22.553-62.615 3.471-94.81 14.221s-124.257 32.857-151.651 138.371 56.572 180.828 93.406 204.862l5.781-18.958 1.267-33.682z" fill="#3c191e"/><ellipse cx="1059.738" cy="556.055" fill="#f69578" rx="45.2" ry="55.406" transform="matrix(.5656 -.8247 .8247 .5656 1.7673 1115.4644)"/><path d="M1087.106 561.762a5.012 5.012 0 0 1-1.748-.316l-56.279-21.011c-2.587-.966-3.901-3.847-2.936-6.434s3.848-3.898 6.433-2.936l56.279 21.011a5.002 5.002 0 0 1-1.749 9.686z" fill="#3c191e"/><path d="M1059.589 584.024a5 5 0 0 1-4.518-7.134l12.506-26.515a5 5 0 1 1 9.044 4.265l-12.506 26.515a5 5 0 0 1-4.526 2.869zm127.385 811.539-82.329 164.657-264.174 27.141-289.505-150.181 68.757-204.464z" fill="#3c191e"/><path d="M1539.832 779.466a182.9 182.9 0 0 0-134.674-32.051l-248.943 42.174 12.423-39.44-147.779-40.454-15.75 49.196-328.372-133.644c-52.608-21.776-113.158-9.64-153.311 30.727l-353.687 355.575 233.079 219.552 139.431-143.593-38.5 164.404 798.641 204.094 109.393-310.644 339.036 190.395 146.971-299.788z" fill="#d2c1f0"/><g fill="#3c191e"><path d="M1429.827 1054.009a5 5 0 0 1-4.911-5.971l52.026-263.255a5.008 5.008 0 0 1 5.875-3.936 5 5 0 0 1 3.936 5.875l-52.026 263.255a5.003 5.003 0 0 1-4.9 4.032zm281.974 195.62a5 5 0 0 1-4.502-7.17l120.702-250.768a5 5 0 0 1 9.011 4.338l-120.702 250.768a5.002 5.002 0 0 1-4.509 2.832zM603.639 934.348a5 5 0 0 1-4.694-6.721c51.291-140.015 50.693-266.469 50.681-267.729a5 5 0 0 1 4.952-5.048c2.736-.001 5.021 2.19 5.048 4.952.012 1.279.62 129.558-51.291 271.265a5.003 5.003 0 0 1-4.696 3.281zm-166.101 265.995a4.983 4.983 0 0 1-3.468-1.399L203.947 977.272a4.999 4.999 0 0 1-.132-7.069 5.002 5.002 0 0 1 7.07-.132l230.124 221.672a4.999 4.999 0 0 1-3.471 8.6zm433.879-608.447-1.674 442.037 142.725 140.486-53.998-576.402z"/></g><path d="M1806.841 345.902c-51.385.004-114.029-33.406-164.302-92.593-72.619-85.506-87.958-187.784-34.923-232.844 53.035-45.059 151.465-13.378 224.083 72.127 72.619 85.506 87.958 187.784 34.923 232.844-16.317 13.864-36.942 20.464-59.781 20.466zM1667.55 39.956c-17.568 0-28.282 6.121-34.032 11.006-8.988 7.636-22.917 26.758-15.23 69.028 6.409 35.245 25.852 73.392 54.743 107.411 28.892 34.019 63.383 59.378 97.12 71.405 40.463 14.423 61.581 3.768 70.569-3.87 8.987-7.636 22.918-26.758 15.23-69.028-6.409-35.246-25.852-73.392-54.743-107.411-28.892-34.019-63.383-59.378-97.12-71.405-14.576-5.195-26.644-7.136-36.537-7.136z" fill="#e51b26"/><path d="M2082.543 599.675c-5.668 0-11.299-2.396-15.256-7.055l-228.862-269.48c-7.151-8.421-6.124-21.049 2.296-28.203 8.423-7.154 21.045-6.125 28.197 2.296l228.862 269.48c7.151 8.421 6.124 21.049-2.295 28.202a19.919 19.919 0 0 1-12.942 4.76z" fill="#e51b26"/><ellipse cx="1731.131" cy="177.973" fill="#d2c1f0" rx="96.344" ry="165.941" transform="matrix(.7623 -.6473 .6473 .7623 296.3566 1162.8143)"/><path d="M1652.737 38.164v196.168a286.843 286.843 0 0 0 4.974 6.025c22.491 26.481 48.091 47.04 73.42 60.493V55.097c-27.982-14.862-55.632-21.048-78.394-16.933zm151.814 77.426c-11.116-13.088-22.992-24.731-35.219-34.785v234.944c15.369 3.729 29.929 4.337 42.811 1.509V124.921a290.188 290.188 0 0 0-7.592-9.331z" fill="#fff"/><path d="m1983.563 312.866-6.27-1.214c-14.677-2.841-29.007 6.037-31.71 19.646l-23.906 120.369c-2.43 12.236 5.422 24.219 18.295 27.922 14.791 4.255 30.386-3.973 33.911-17.891l30.176-119.155c3.404-13.445-5.848-26.842-20.496-29.677z" fill="#f69578"/><path d="m2026.737 365.209-6.087-1.214c-14.248-2.841-28.158 6.037-30.781 19.646l-23.205 120.369c-2.359 12.236 5.263 24.219 17.759 27.922 14.358 4.255 29.496-3.973 32.917-17.891l29.292-119.155c3.305-13.445-5.676-26.842-19.895-29.677z" fill="#f69578"/><path d="m2067.594 408.374-4.954-1.039c-11.595-2.433-22.917 5.17-25.052 16.824l-18.886 103.083c-1.92 10.478 4.283 20.741 14.453 23.912 11.685 3.644 24.006-3.403 26.79-15.322l23.84-102.044c2.69-11.513-4.619-22.986-16.191-25.414z" fill="#f69578"/><path d="m2095.981 456.501-4.339-.66c-10.156-1.546-19.678 5.242-21.071 15.021l-12.322 86.496c-1.252 8.792 4.534 17.071 13.482 19.29 10.281 2.549 20.692-3.817 22.638-13.843l16.66-85.835c1.881-9.687-4.913-18.927-15.048-20.469z" fill="#f69578"/><path d="M1947.906 485.705a33.69 33.69 0 0 1-9.317-1.311c-15.375-4.422-24.754-18.911-21.817-33.701l23.906-120.368a5 5 0 1 1 9.808 1.947L1926.58 452.64c-1.916 9.65 4.435 19.17 14.773 22.145 6.118 1.759 12.741.981 18.168-2.136 4.851-2.786 8.229-7.111 9.513-12.179l23.689-93.54a5.001 5.001 0 0 1 9.695 2.455l-23.689 93.54c-1.954 7.716-7.007 14.248-14.227 18.395-5.042 2.896-10.797 4.384-16.596 4.385z" fill="#3c191e"/><path d="M1993.266 535.319a33.69 33.69 0 0 1-9.317-1.311c-15.375-4.421-24.754-18.909-21.817-33.7l.027-.129 26.387-116.746a4.996 4.996 0 0 1 5.979-3.774 5 5 0 0 1 3.774 5.979l-26.372 116.679c-1.878 9.629 4.468 19.114 14.785 22.081 6.12 1.762 12.742.981 18.17-2.135 4.851-2.786 8.229-7.111 9.512-12.178l23.677-97.702a5 5 0 0 1 9.719 2.355l-23.689 97.752c-1.966 7.765-7.019 14.297-14.238 18.443-5.043 2.898-10.797 4.386-16.597 4.386z" fill="#3c191e"/><path d="M2040.648 557.407c-2.874 0-5.765-.458-8.597-1.383-13.674-4.464-22.053-18.882-19.489-33.536a6.05 6.05 0 0 1 .054-.268l25.443-109.788a5.001 5.001 0 0 1 9.742 2.258l-25.411 109.647c-1.643 9.743 3.827 19.263 12.764 22.181 4.764 1.555 9.802 1.034 14.191-1.465 4.661-2.655 8.033-7.307 9.25-12.762l15.166-71.046a4.997 4.997 0 0 1 5.934-3.846 5 5 0 0 1 3.846 5.934l-15.176 71.091c-1.839 8.245-6.963 15.27-14.069 19.317-4.267 2.433-8.934 3.666-13.648 3.666z" fill="#3c191e"/></svg></g><g transform="translate(98.25 872.25) rotate(0.0 692.625 460.125) scale(0.7501681481393231 0.7504440280067913)"><svg width="1846.586" height="1226.274" viewBox="0 0 1846.586 1226.274"><path d="M744.046 1068.43s-288.468 37.182-367.18 54.303c-9.15 1.99-18.294-3.368-20.984-12.337-4.569-15.23 4.15-31.269 19.42-35.701 48.679-14.129 150.138-41.808 209.713-45.483 80.473-4.964 161.067-13.608 161.067-13.608z" fill="#ba5534"/><path d="M784.11 1063.375s-281.532 34.858-360.244 51.979c-9.15 1.99-18.294-3.368-20.984-12.337-4.569-15.23 4.15-31.269 19.42-35.701 48.679-14.129 150.138-41.808 209.713-45.483 80.473-4.963 161.067-13.608 161.067-13.608z" fill="#ba5534"/><path d="M837.117 1056.433s-281.532 34.858-360.244 51.979c-9.15 1.99-18.294-3.368-20.984-12.337-4.569-15.23 4.15-31.269 19.42-35.701 48.679-14.129 150.138-41.808 209.713-45.483 80.473-4.963 165.869-29.481 165.869-29.481z" fill="#ba5534"/><path d="M463.641 1111.164a4.977 4.977 0 0 1-3.294-1.242c-.716-.629-7.063-6.315-9.163-12.155a5.43 5.43 0 0 1-.084-.255c-2.598-8.658-1.648-17.797 2.672-25.735 4.317-7.933 11.471-13.688 20.143-16.205 51.895-15.062 149.619-33.749 210.4-42.426a5 5 0 1 1 1.413 9.899c-69.304 9.893-163.072 28.792-209.026 42.13-6.09 1.768-11.114 5.81-14.147 11.382-3.012 5.534-3.691 11.897-1.919 17.938.987 2.578 4.378 6.209 6.313 7.917a5.003 5.003 0 0 1 .448 7.055 4.994 4.994 0 0 1-3.756 1.697z" fill="#3c191e"/><path d="M410.633 1118.409a4.977 4.977 0 0 1-3.294-1.242c-.716-.629-7.063-6.316-9.163-12.155a5.43 5.43 0 0 1-.084-.255c-2.598-8.658-1.648-17.797 2.672-25.735 4.317-7.933 11.471-13.688 20.143-16.205 51.895-15.062 149.619-33.75 210.4-42.426a5 5 0 1 1 1.413 9.899c-69.304 9.893-163.072 28.792-209.026 42.13-6.09 1.768-11.114 5.81-14.147 11.382-3.012 5.534-3.691 11.898-1.919 17.938.986 2.578 4.377 6.208 6.312 7.916a5.003 5.003 0 0 1-3.307 8.753z" fill="#3c191e"/><path d="M756.109 709.773s-220.733-10.333-285.296-17.848c-8.697-1.012-16.731 4.756-18.532 13.325-2.703 12.864 5.164 25.582 17.884 28.898 32.01 8.346 89.291 21.943 113.79 19.36 34.922-3.681 172.154-43.735 172.154-43.735z" fill="#ba5534"/><path d="m713.131 778.004-160.436 41.498-78.131 42.771c-12.649 6.924-28.474 3.124-36.62-8.795-7.137-10.442-4.986-24.643 4.933-32.475 35.453-27.993 149.884-91.664 216.356-104.257 87.061-16.493 147.012-18.563 203.887-18.563 64.267 0 160.621 16.885 160.621 16.885l-12.073 69.318z" fill="#ba5534"/><path d="m737.519 801.094-144.241 37.219-70.244 38.36c-11.372 6.21-25.6 2.802-32.923-7.888-6.416-9.365-4.483-22.102 4.435-29.126 31.875-25.106 106.331-79.521 166.092-90.815 78.273-14.793 125.06-8.606 125.06-8.606l231.076 4.411-10.855 62.169z" fill="#ba5534"/><path d="M983.153 834.839s-223.735-27.784-298.521-.602c-35.609 12.943-63.403 35.27-80.41 51.665-11.217 10.814-28.962 10.85-40.252.112-7.824-7.443-8.191-19.808-.797-27.678 21.621-23.011 66.757-65.986 108.716-73.757 76.139-14.101 332.366 3.589 332.366 3.589z" fill="#ba5534"/><path d="M563.172 863.336a5 5 0 0 1-3.643-8.424c26.628-28.34 71.706-65.033 111.114-75.175 34.893-8.981 69-5.73 70.436-5.588a4.998 4.998 0 0 1 4.479 5.468 4.999 4.999 0 0 1-5.468 4.483c-.334-.034-33.834-3.203-66.956 5.322-23.333 6.005-65.179 28.554-106.318 72.338a4.982 4.982 0 0 1-3.644 1.576z" fill="#3c191e"/><path d="M490.115 873.785c-1.594 0-3.16-.76-4.129-2.174-7.878-11.5-5.478-27.261 5.466-35.88 28.176-22.193 86.807-68.374 159.007-89.748 60.636-17.951 89.988-11.803 91.208-11.532a5 5 0 1 1-2.165 9.763c-.259-.055-28.449-5.74-86.204 11.358-70.359 20.829-127.972 66.207-155.659 88.015-6.822 5.374-8.317 15.201-3.404 22.373a5 5 0 0 1-4.12 7.825zm70.357-116.024a5 5 0 0 1-2.525-9.319c2.628-1.534 65.311-37.644 146.249-44.719a4.992 4.992 0 0 1 5.417 4.545 5 5 0 0 1-4.545 5.417c-78.62 6.873-141.457 43.031-142.082 43.395a4.978 4.978 0 0 1-2.514.681z" fill="#3c191e"/><path d="M839.62 592.072a5 5 0 0 1-5-5v-141a5 5 0 0 1 10 0v141a5 5 0 0 1-5 5z" fill="#fae2ce"/><path d="M822.842 634.989v-45.345c0-6.173 5.004-11.177 11.177-11.177h11.201c6.173 0 11.177 5.004 11.177 11.177v45.345c0 6.173-5.004 11.177-11.177 11.177h-11.201c-6.173 0-11.177-5.004-11.177-11.177z" fill="#fae2ce"/><path d="m1344.533 973.255-530.413-5.804 19.731 210.076 604.694 48.747 157.847-155.526zM866.804 477.803s-70.303-23.72-63.228-89.094 67.537-222.853 177.23-279.735 234.997 48.288 161.902 136.994c-73.096 88.705-275.904 231.835-275.904 231.835z" fill="#3c191e"/><path d="M1726.157 555.136s-285.899-268.752-544.056-301.781c-139.747-17.88-225.078 8.225-277.041 49.15-83.387 65.674-82.105 192.574 1.919 257.431l127.773 98.628-80.914 194.3 571.131 242.078 321.617-359.87z" fill="#3c191e"/><g fill="#fae2ce"><path d="M854.459 427.601a5.001 5.001 0 0 1-4.966-5.634c5.409-42.386 16.763-80.085 33.748-112.049 13.648-25.685 30.938-47.74 51.388-65.552 18.239-15.887 35.677-25.39 47.093-30.564 12.502-5.666 20.679-7.539 21.021-7.615a5 5 0 0 1 2.202 9.755c-.077.018-7.822 1.815-19.562 7.182-10.813 4.943-27.333 14.016-44.627 29.169-19.43 17.025-35.875 38.115-48.878 62.685-16.308 30.813-27.23 67.236-32.465 108.256a5.001 5.001 0 0 1-4.954 4.367zm640.192 663.328c-.67 0-1.351-.136-2.004-.421l-270.471-118.476a5 5 0 0 1 4.012-9.16l270.471 118.476a5 5 0 0 1-2.008 9.581z"/><path d="M850.249 482.802a5 5 0 0 1-4.989-4.735c-3.889-73.316 29.514-126.867 58.219-158.881 32.587-36.343 71.689-59.425 94.229-65.492 62.566-16.841 141.916-12.897 145.262-12.72a5 5 0 1 1-.525 9.986c-.806-.043-81.135-4.032-142.138 12.39-17.66 4.753-56.038 25.324-89.383 62.512-27.447 30.61-59.386 81.772-55.678 151.676a5.002 5.002 0 0 1-4.997 5.264zm604.871 412.013c-.816 0-1.643-.2-2.408-.622L1031.068 661.94a5 5 0 0 1 4.825-8.759l421.644 232.253a5 5 0 0 1-2.417 9.381zm189.777-161.029a4.98 4.98 0 0 1-2.895-.927L1252.32 455.586a5 5 0 0 1 5.798-8.148L1647.8 724.712a5 5 0 0 1-2.903 9.074z"/><path d="M1189.005 388.649a4.981 4.981 0 0 1-3.315-1.259c-.227-.201-23.043-20.362-55.049-42.97-29.386-20.756-72.751-47.887-112.464-59.261a5.001 5.001 0 0 1 2.754-9.614c78.433 22.464 167.635 101.029 171.394 104.363a5 5 0 0 1-3.32 8.741zm223.325 480.166a5.001 5.001 0 0 1-.845-9.928l97-16.756a5 5 0 0 1 1.702 9.854l-97 16.756a5.115 5.115 0 0 1-.857.074z"/></g><path d="M358.155 82.199s78.779 62.326 126.186 60.317 44.035-44.776 44.035-44.776z" fill="#3c191e"/><path d="m833.274 382.003-121.666-67.06 73.766-108.254 82.388 48.858z" fill="#ba5534"/><path d="m777.399 351.205 32.978-129.689-25.003-14.827-73.766 108.254z" fill="#3c191e"/><ellipse cx="629.836" cy="190.87" fill="#ba5534" rx="151.5" ry="180"/><path d="M731.595 175.327s29.798 76.755 95.523 70.83c23.427-2.112 24.48-19.876 24.48-19.876s-15.985-2.654-22.954-23.055c-6.176-18.082-3.476-50.317-3.476-50.317l-63.032-29.892zm-32.997-71.666s-8.254 37.005-51.806 37.005-89.921-43.665-89.921-43.665z" fill="#d2c1f0"/><path d="M657.375 0c-72.467 0-134.202 40.936-157.677 98.273 14.414.974 73.048-5.118 177.031 10.85 91.343 14.027 145.964 43.493 148.278 46.753.099-2.109.161-4.227.161-6.357C825.168 66.942 750.044 0 657.375 0z" fill="#e51b26"/><path d="M733.494 27.769C719.035 17.075 705.111 9.138 694.02 3.587A188.095 188.095 0 0 0 657.375 0c-8.752 0-17.345.603-25.735 1.753a189.375 189.375 0 0 0-20.055 8.242c-39.161 18.832-65.628 49.229-76.588 87.926 3.263-.014 6.735-.01 10.412.022 10.67-34.927 34.277-61.426 70.217-78.794 22.771-11.005 43.791-14.774 50.948-15.808 5.734 7.513 25.69 37.808 29.996 100.155a5 5 0 1 0 9.976-.689c-3.318-48.046-15.468-77.889-24.358-93.776 11.516 5.308 28.293 14.121 45.604 26.957 27.45 20.354 61.752 55.199 72.068 106.802 4.109 1.76 7.74 3.414 10.872 4.92a4.979 4.979 0 0 0-.033-1.223c-7.525-45.878-34.222-86.93-77.205-118.718z" fill="#3c191e"/><path d="M639.691 99.953 364.446 82.939s65.632 33.785 113.234 41.445 162.011-24.431 162.011-24.431z" fill="#e51b26"/><ellipse cx="721.383" cy="139.556" fill="#ba5534" rx="51.169" ry="45.773" transform="matrix(.2408 -.9706 .9706 .2408 412.1919 806.092)"/><path d="M711.29 169.635a4.999 4.999 0 0 1-4.998-5.229l2.569-55.959c.126-2.758 2.476-4.905 5.224-4.765a4.999 4.999 0 0 1 4.765 5.224l-2.569 55.959a5.001 5.001 0 0 1-4.991 4.77z" fill="#3c191e"/><path d="M713.221 155.017a5.002 5.002 0 0 1-.899-9.919l29.58-5.438a4.997 4.997 0 0 1 5.822 4.013 5 5 0 0 1-4.013 5.822l-29.58 5.438c-.305.056-.61.084-.91.084z" fill="#3c191e"/><path d="m278.332 1083.404 606.586-96.9a7.86 7.86 0 0 0 6.521-9l-4.44-27.796a7.86 7.86 0 0 0-9-6.521l-606.586 96.9a7.86 7.86 0 0 0-6.521 9l4.44 27.796a7.86 7.86 0 0 0 9 6.521z" fill="#d2c1f0"/><path d="m.807 531.705 268.285 546.237c2.663 5.422 10.192 5.938 13.569.93l19.721-29.242a7.86 7.86 0 0 0 .538-7.859L42.374 511.289a7.858 7.858 0 0 0-10.518-3.589l-27.46 13.487a7.857 7.857 0 0 0-3.589 10.518z" fill="#d2c1f0"/><path d="m319.045 1064.717-1.991-12.463a1.349 1.349 0 0 1 1.119-1.544l44.81-7.158a1.349 1.349 0 0 1 1.544 1.119l1.991 12.463a1.349 1.349 0 0 1-1.119 1.544l-44.81 7.158a1.349 1.349 0 0 1-1.544-1.119zm57.697-7.852 44.81-7.158a1.349 1.349 0 0 0 1.119-1.544l-1.991-12.463a1.349 1.349 0 0 0-1.544-1.119l-44.81 7.158a1.349 1.349 0 0 0-1.119 1.544l1.991 12.463a1.348 1.348 0 0 0 1.544 1.119z" fill="#3c191e"/></svg></g><g transform="translate(408.0 1137.75) rotate(0.0 1169.625 703.125) scale(0.7532977001596601 0.7534522176007509)"><svg width="3105.346" height="1866.409" viewBox="0 0 3105.346 1866.409"><ellipse cx="2056.007" cy="304.328" fill="#fae2ce" rx="122.047" ry="154" transform="matrix(.9803 -.1975 .1975 .9803 -19.6123 411.9622)"/><path d="m2781.183 627.742 287.656 304.393-69.491 103.343-273.236-402.441z" fill="#e51b26"/><path d="m1966.533 370.282 85.117-52.784c79.359-49.213 181.012-43.597 254.467 14.06l742.594 582.882c60.923 47.82 74.683 134.52 31.558 198.853-45.107 67.291-135.928 85.819-203.79 41.576l-586.162-382.152 10.487 225.469-821.547 139.245-652.258-129.474 407.794-475.26a260 260 0 0 1 163.774-88.519z" fill="#e51b26"/><path d="M2139.077 542.61a5.003 5.003 0 0 1-4.893-3.995c-10.209-49.721-12.268-93.75-6.117-130.866 4.972-30.006 15.288-55.617 30.661-76.121 26.428-35.248 58.327-43.033 59.672-43.348a5 5 0 0 1 2.284 9.735c-.424.104-30.216 7.583-54.375 40.175-14.263 19.24-23.84 43.379-28.468 71.745-5.837 35.785-3.772 78.402 6.139 126.668a5 5 0 0 1-4.903 6.007zm-758.758 400.284a5 5 0 0 1-4.381-2.583l-78.053-141.302a5.001 5.001 0 0 1 8.753-4.836l78.053 141.302a5.001 5.001 0 0 1-4.372 7.419zm271.979 98.367a5 5 0 0 1-4.862-6.185l64.313-264.02a5 5 0 1 1 9.716 2.367l-64.313 264.02a5.002 5.002 0 0 1-4.854 3.818zm1212.857 28.761a4.99 4.99 0 0 1-3.963-1.947l-228.316-296.208a5 5 0 1 1 7.92-6.106l228.316 296.208a5 5 0 0 1-3.957 8.053z" fill="#3c191e"/><path d="m164.755 1647.366-133.622-790 547.257 213.151 128.242 790.892z" fill="#fff"/><path d="M706.631 1866.409a4.988 4.988 0 0 1-1.836-.35l-541.876-214.043a5 5 0 0 1-3.093-3.816l-133.622-790a5 5 0 0 1 6.744-5.493l547.257 213.151a5.001 5.001 0 0 1 3.121 3.859l128.241 790.892a5 5 0 0 1-4.936 5.8zm-537.417-222.657 531.074 209.775-126.376-779.388L37.533 865.224z" fill="#fae2ce"/><path d="M520.431 1247.247a7.47 7.47 0 0 1-2.709-.509l-389.939-151.159a7.5 7.5 0 0 1 5.422-13.986l389.939 151.159a7.5 7.5 0 0 1-2.713 14.495zm17.341 91.017a7.491 7.491 0 0 1-2.709-.509l-389.939-151.158a7.5 7.5 0 0 1 5.422-13.986l389.939 151.158a7.5 7.5 0 0 1-2.713 14.495zm17.34 91.018a7.491 7.491 0 0 1-2.709-.509l-389.939-151.158a7.5 7.5 0 0 1 5.422-13.986l389.939 151.158a7.5 7.5 0 0 1-2.713 14.495zm17.341 91.019a7.491 7.491 0 0 1-2.709-.509l-389.939-151.159a7.5 7.5 0 0 1-4.282-9.704 7.497 7.497 0 0 1 9.704-4.282l389.939 151.159a7.5 7.5 0 0 1-2.713 14.495zm17.34 91.017a7.491 7.491 0 0 1-2.709-.509l-389.939-151.158a7.5 7.5 0 0 1 5.422-13.986l389.939 151.158a7.5 7.5 0 0 1-2.713 14.495z" fill="#fae2ce"/><path d="m1327.858 1683.949-152.084-815.671-597.384 202.239 128.242 790.892z" fill="#fff"/><path d="M706.631 1866.409a5 5 0 0 1-4.935-4.199l-128.241-790.892a5.001 5.001 0 0 1 3.332-5.537l597.384-202.239a4.999 4.999 0 0 1 6.519 3.82l152.083 815.671a5 5 0 0 1-3.542 5.724l-621.226 177.46a5.036 5.036 0 0 1-1.374.192zm-122.628-792.513 126.663 781.16 611.441-174.665-150.192-805.528z" fill="#fae2ce"/><path d="M763.449 1703.659a5 5 0 0 1-4.929-4.163l-88.587-521.568a5 5 0 0 1 3.368-5.587l470.135-154.545a5.002 5.002 0 0 1 6.477 3.834l97.752 524.275a5.001 5.001 0 0 1-3.405 5.683l-479.3 151.838a5.023 5.023 0 0 1-1.511.233zm-82.937-523.162 86.904 511.66 469.606-148.767-95.894-514.311z" fill="#e51b26"/><path d="M896.513 1479.773a96.6 96.6 0 0 1-7.827-.317c-32.797-2.665-62.347-21.701-83.207-53.603-20.6-31.505-30.096-71.61-26.739-112.929 3.357-41.318 19.203-79.365 44.619-107.131 25.736-28.116 57.974-42.142 90.769-39.467 32.797 2.664 62.347 21.701 83.207 53.603 20.6 31.505 30.096 71.61 26.739 112.929-.223 2.752-2.63 4.827-5.388 4.578l-101.03-8.208 86.049 67.146a4.998 4.998 0 0 1 1.408 6.153c-12.258 24.846-29.547 45.165-49.997 58.762-18.298 12.166-38.408 18.484-58.603 18.484zm9.76-303.765c-27.221 0-53.805 12.796-75.538 36.538-23.924 26.137-38.85 62.072-42.028 101.189-3.178 39.115 5.75 76.99 25.142 106.646 19.131 29.259 45.997 46.699 75.646 49.108 20.537 1.67 41.312-4.046 60.083-16.527 17.99-11.96 33.392-29.622 44.725-51.239l-95.973-74.89a4.998 4.998 0 0 1-1.582-5.758 4.983 4.983 0 0 1 5.063-3.167l112.635 9.151c2.058-37.337-6.917-73.266-25.481-101.657-19.132-29.259-45.997-46.699-75.647-49.108a86.997 86.997 0 0 0-7.045-.286z" fill="#e51b26"/><path d="M809.19 1573.777a4.997 4.997 0 0 1-4.476-7.228l69.459-139.482a4.998 4.998 0 0 1 6.705-2.247 4.999 4.999 0 0 1 2.247 6.704l-64.15 128.822 212.295-68.89a5 5 0 0 1 3.087 9.512l-223.623 72.565a4.995 4.995 0 0 1-1.544.244z" fill="#e51b26"/><ellipse cx="1035.566" cy="1494.615" fill="#e51b26" rx="7.835" ry="11.694"/><ellipse cx="880.272" cy="1427.133" fill="#e51b26" rx="7.835" ry="11.694"/><path d="M1058.861 1493.521a5.002 5.002 0 0 1-1.375-9.808l131.975-37.823a5 5 0 0 1 2.755 9.614l-131.975 37.823c-.46.132-.924.194-1.38.194zm5.133 29.427a5.002 5.002 0 0 1-1.375-9.808l131.975-37.823a5 5 0 0 1 2.755 9.614l-131.975 37.823c-.46.131-.924.194-1.38.194zm7.066 31.825a5.002 5.002 0 0 1-1.375-9.808l131.975-37.823a5 5 0 0 1 2.755 9.614l-131.975 37.823a5.002 5.002 0 0 1-1.38.194z" fill="#fae2ce"/><path d="m1327.858 1683.949-152.084-815.671 556.889 120.67 124.502 835.171z" fill="#fff"/><path d="M1857.164 1829.119c-.427 0-.857-.055-1.279-.167l-529.307-140.17a4.997 4.997 0 0 1-3.635-3.917l-152.084-815.671a4.998 4.998 0 0 1 5.975-5.803l556.889 120.67a5 5 0 0 1 3.887 4.149l124.501 835.171a4.998 4.998 0 0 1-4.947 5.738zm-524.971-149.194 518.905 137.416-122.872-824.237-546.159-118.346z" fill="#fae2ce"/><path d="M1664.216 1192.707c-.375 0-.756-.042-1.137-.131l-399.146-92.792a5 5 0 0 1 2.264-9.74l399.146 92.792a5 5 0 0 1-1.127 9.871z" fill="#3c191e"/><path d="m1483.066 1584.854-79.787-19.201-39.65-208.435 83.323 20.305z" fill="#d2c1f0"/><path d="m1556.477 1603.224-77.124-19.906-33.61-161.982 88.906 24.09zm172.8 48.272-83.68-21.963-47.1-286.823 88.906 24.091zm-325.998-88.931-55.908-13.899-41.848-236.513 56.136 16.248z" fill="#d2c1f0"/><path d="m1642.95 1626.094-79.786-19.2-62.054-358.395 88.906 24.09z" fill="#d2c1f0"/><path d="M1403.273 1567.566a5.001 5.001 0 0 1-4.919-4.138l-79.301-452.184a4.999 4.999 0 0 1 4.061-5.788 4.997 4.997 0 0 1 5.789 4.062l79.301 452.184a4.999 4.999 0 0 1-4.931 5.864zm79.787 22.288a5.002 5.002 0 0 1-4.92-4.143l-79.3-455.271a5 5 0 0 1 4.068-5.784 4.996 4.996 0 0 1 5.784 4.067l79.3 455.271a5 5 0 0 1-4.932 5.86zm77.608 21.006a5.002 5.002 0 0 1-4.93-4.2l-73.654-454.037a5 5 0 0 1 4.135-5.736 4.996 4.996 0 0 1 5.736 4.135l73.654 454.037a5 5 0 0 1-4.941 5.801zm84.923 23.674a5 5 0 0 1-4.928-4.193l-75.315-460.3a5 5 0 1 1 9.869-1.615l75.315 460.3a5 5 0 0 1-4.941 5.808z" fill="#3c191e"/><path d="M1733.662 1658.586a4.99 4.99 0 0 1-1.317-.177l-383.984-104.873a4.999 4.999 0 0 1-3.598-3.906l-102.598-550.267a5.002 5.002 0 0 1 6.003-5.798l402.272 89.583a5 5 0 0 1 3.858 4.144l84.31 565.557a5.003 5.003 0 0 1-1.625 4.477 5.01 5.01 0 0 1-3.321 1.26zm-379.643-113.871 373.568 102.028-82.673-554.58-391.53-87.19z" fill="#d2c1f0"/><path d="m2116.951 1386.93-107.01-777.475-277.278 379.493 124.703 835.82z" fill="#fff"/><path d="M1857.368 1829.768a4.999 4.999 0 0 1-4.947-4.263l-124.703-835.819a5 5 0 0 1 .908-3.688l277.277-379.492a4.998 4.998 0 0 1 8.99 2.269l107.01 777.475a5.002 5.002 0 0 1-.652 3.231l-259.584 437.838a5.002 5.002 0 0 1-4.299 2.449zM1737.911 990.24l122.325 819.883 251.523-424.24L2006.675 622.4z" fill="#fae2ce"/><path d="m2116.951 1386.93-107.01-777.475 410.115 222.155 145.337 844.312z" fill="#fff"/><path d="M2565.393 1680.922a4.998 4.998 0 0 1-2.708-.797l-448.442-288.991a5 5 0 0 1-2.245-3.521l-107.01-777.475a5.002 5.002 0 0 1 7.335-5.078l410.115 222.154a5 5 0 0 1 2.546 3.548l145.338 844.311a5.002 5.002 0 0 1-4.929 5.849zm-443.802-296.95 436.944 281.581L2415.54 834.85l-399.3-216.296z" fill="#fae2ce"/><path d="M2430.723 1468.703a4.998 4.998 0 0 1-2.708-.797l-276.109-177.935a5 5 0 0 1-2.234-3.448l-77.455-507.014a4.998 4.998 0 0 1 7.36-5.131l260.411 143.791a5.002 5.002 0 0 1 2.511 3.528l93.153 541.157a5.002 5.002 0 0 1-4.929 5.849zm-271.507-185.917 264.648 170.549-90.815-527.573-249.414-137.719z" fill="#fae2ce"/><path d="m2154.72 1282.751 5.968-168.342c.207-5.835 8.308-7.112 10.3-1.624l44.742 123.236c2.029 5.588 10.303 4.132 10.303-1.812v-263.48c0-5.387 7.094-7.352 9.865-2.733l39.273 65.455c2.176 3.626 7.511 3.379 9.342-.433l45.855-95.48c2.239-4.663 9.144-3.699 10.022 1.398l88.281 512.852c.784 4.557-4.225 7.87-8.111 5.365l-263.409-169.75a5.311 5.311 0 0 1-2.431-4.652z" fill="#fae2ce"/><path d="m2809.242 1140.257-191.199-840.692-197.987 531.317 145.337 845.04z" fill="#fff"/><path d="M2565.396 1680.922a5 5 0 0 1-4.931-4.152l-145.337-845.04a4.994 4.994 0 0 1 .243-2.594l197.987-531.317a5.02 5.02 0 0 1 5.018-3.243 5 5 0 0 1 4.543 3.88l191.199 840.693a5 5 0 0 1-.325 3.18l-243.849 535.665a5 5 0 0 1-4.548 2.928zm-140.184-849.559 142.357 827.711 236.424-519.354-187.112-822.719z" fill="#fae2ce"/><ellipse cx="1570.43" cy="166.04" fill="#fae2ce" rx="104.41" ry="128.627" transform="matrix(.1759 -.9844 .9844 .1759 1130.7006 1682.766)"/><path d="m1814.262 466.874-97.655 305.366-206.096-240.422 37.294-2.962-41.858-55.545 69.324-103.71 147.523 87.627z" fill="#d6795e"/><path d="m1565.971 383.514-60.024 89.797 35.115 46.598 60.516-102.04-11.7-39.591-11.798-7.008z" fill="#3c191e"/><path d="M1432.762 451.138c-33.145 0-63.172 11.448-85.026 29.985.558-11.618-.233-23.914-2.544-36.469-10.546-57.303-48.751-98.302-85.333-91.572-36.582 6.729-57.687 58.638-47.14 115.941s48.751 98.302 85.333 91.572c4.859-.894 9.442-2.592 13.718-4.988.355 57.125 54.385 103.34 120.992 103.34 66.827 0 121-46.52 121-103.905s-54.173-103.904-121-103.904z" fill="#fae2ce"/><ellipse cx="1215.19" cy="297.365" fill="#fae2ce" rx="103" ry="66.969" transform="matrix(.2423 -.9702 .9702 .2423 632.2043 1404.2711)"/><ellipse cx="1408.197" cy="335.001" fill="#d6795e" rx="184.536" ry="195.546" transform="matrix(.9814 -.1921 .1921 .9814 -38.1245 276.7028)"/><g fill="#fae2ce"><ellipse cx="1889.122" cy="264.614" rx="78.751" ry="47.979" transform="matrix(.1758 -.9844 .9844 .1758 1296.576 2077.814)"/><ellipse cx="1770.78" cy="209.088" rx="104.406" ry="96.977" transform="matrix(.1753 -.9845 .9845 .1753 1254.5487 1915.8057)"/><ellipse cx="1515.925" cy="134.861" rx="108.422" ry="96" transform="matrix(.1754 -.9845 .9845 .1754 1117.2886 1603.6382)"/><ellipse cx="1247.835" cy="171.992" rx="39.285" ry="71.643" transform="matrix(.2598 -.9657 .9657 .2598 757.5812 1332.3043)"/><ellipse cx="1698.747" cy="380.724" rx="134.444" ry="160.663"/><ellipse cx="1868.011" cy="372.026" rx="153.403" ry="112.5" transform="matrix(.1271 -.9919 .9919 .1271 1261.549 2177.5935)"/><ellipse cx="1341.288" cy="108.077" rx="108.422" ry="96" transform="matrix(.1754 -.9845 .9845 .1754 999.6491 1409.621)"/><ellipse cx="1361.914" cy="138.684" rx="100.317" ry="97.515" transform="matrix(.2616 -.9652 .9652 .2616 871.7352 1416.8734)"/></g><ellipse cx="1585.569" cy="249.211" fill="#d6795e" rx="58.678" ry="47.869" transform="matrix(.1832 -.9831 .9831 .1832 1050.1472 1762.3071)"/><path d="M1565.6 275.237a5 5 0 0 1-4.546-7.077l26.412-57.88a5 5 0 1 1 9.098 4.152l-26.412 57.88a5.003 5.003 0 0 1-4.552 2.925z" fill="#3c191e"/><path d="M1602.878 271.304a4.997 4.997 0 0 1-1.689-.295l-29.221-10.489a5 5 0 0 1 3.379-9.413l29.221 10.489a5 5 0 0 1-1.69 9.708z" fill="#3c191e"/><path d="m2710.124 438.682-5.248-4.438c-12.284-10.389-30.45-9.463-40.198 2.048l-86.228 101.819c-8.765 10.35-7.737 25.848 2.395 36.11 11.642 11.791 30.652 12.146 41.337.772l91.475-97.381c10.321-10.988 8.726-28.562-3.533-38.93zm48.003 53.292-6.246-5.222c-14.62-12.223-35.993-11.424-47.298 1.767l-99.987 116.682c-10.164 11.861-8.72 29.834 3.364 41.878 13.884 13.839 36.271 14.536 48.68 1.517l106.232-111.461c11.988-12.575 9.846-32.962-4.745-45.161z" fill="#d6795e"/><path d="m2787.11 559.405-5.042-4.194c-11.803-9.818-28.971-9.281-37.99 1.187l-79.779 92.591c-8.109 9.412-6.865 23.754 2.9 33.417 11.22 11.103 29.209 11.765 39.116 1.44l84.821-88.397c9.571-9.975 7.753-26.246-4.026-36.044z" fill="#d6795e"/><path d="m2807.81 607.116-4.661-3.35c-10.91-7.841-25.731-6.805-32.797 2.292l-62.505 80.468c-6.354 8.18-4.262 20.18 4.872 27.961 10.496 8.94 26.112 8.883 33.958-.125l67.165-77.118c7.579-8.703 4.856-22.303-6.032-30.128z" fill="#d6795e"/><path d="M2620.76 588.299a5 5 0 0 1-3.747-8.309l88.659-100.449a5 5 0 0 1 7.497 6.618l-88.659 100.449a4.986 4.986 0 0 1-3.75 1.691zm41.766 65.424a5 5 0 0 1-3.747-8.309l88.659-100.449a5 5 0 0 1 7.497 6.618l-88.659 100.449a4.984 4.984 0 0 1-3.75 1.691zm49.015 33.047a5 5 0 0 1-3.6-8.468l76.916-79.85a5 5 0 1 1 7.202 6.937l-76.916 79.85a4.986 4.986 0 0 1-3.602 1.531z" fill="#3c191e"/><path d="m.012 1058.094.179-6.598c.42-15.445 11.802-26.856 25.187-25.25l118.397 14.206c12.035 1.444 21.665 13.002 22.438 26.93.888 16.003-10.149 28.872-23.999 27.984l-118.576-7.608c-13.38-.859-24.045-14.25-23.626-29.664z" fill="#d6795e"/><path d="m4.345 1121.311.171-7.716c.401-18.062 13.453-31.336 28.882-29.375l136.476 17.348c13.873 1.763 25.029 15.341 25.994 31.635 1.109 18.722-11.538 33.705-27.499 32.58l-136.647-9.632c-15.419-1.087-27.778-16.815-27.377-34.84z" fill="#d6795e"/><path d="m29.053 1184.321.158-6.057c.369-14.178 10.77-24.639 23.016-23.15l108.319 13.174c11.011 1.339 19.831 11.96 20.552 24.746.828 14.691-9.256 26.492-21.926 25.661l-108.477-7.118c-12.241-.802-22.01-13.107-21.642-27.256z" fill="#d6795e"/><path d="m42.579 1233.748.491-5.299c1.148-12.404 10.503-21.148 20.701-19.349l90.202 15.911c9.169 1.617 15.95 11.276 15.799 22.505-.173 12.902-9.341 22.832-19.934 21.593l-90.692-10.612c-10.235-1.197-17.713-12.37-16.567-24.749z" fill="#d6795e"/><path d="M144.954 1100.363c-.122 0-.244-.004-.368-.013l-128.479-9.334c-2.754-.2-4.825-2.596-4.625-5.35s2.6-4.811 5.349-4.625l128.479 9.334a5.001 5.001 0 0 1-.356 9.988zm21.86 70.48c-.149 0-.299-.006-.451-.02l-127.162-11.356a5 5 0 0 1-4.535-5.425 4.996 4.996 0 0 1 5.425-4.536l127.162 11.356a5 5 0 0 1-.439 9.981zm-21.55 51.876c-.117 0-.236-.004-.354-.013l-97.487-6.837c-2.755-.192-4.832-2.582-4.638-5.337s2.584-4.841 5.337-4.638l97.487 6.837a4.998 4.998 0 0 1 4.638 5.337 5 5 0 0 1-4.983 4.651z" fill="#3c191e"/></svg></g></svg>