<svg width="2399" height="2846" viewBox="0 0 2399 2846" fill="none" xmlns="http://www.w3.org/2000/svg">
<path fill-rule="evenodd" clip-rule="evenodd" d="M1200.21 1.55253C1460.36 20.9445 1529.65 395.412 1741.54 547.381C1924.54 678.628 2226.25 632.496 2345.8 823.193C2464.86 1013.1 2347.88 1260.45 2328.55 1483.67C2310.85 1687.94 2291.15 1883.59 2236.83 2081.32C2167.26 2334.58 2192.62 2674.92 1965.12 2806.67C1737.75 2938.35 1462.63 2696.51 1200.21 2681.66C957.245 2667.91 704.486 2825.19 483.769 2722.83C261.729 2619.87 105.332 2385.43 48.5983 2147.62C-4.79054 1923.82 193.048 1713.68 188.152 1483.67C183.094 1246.05 -70.8453 1022.91 19.9808 803.224C108.161 589.939 419.059 592.821 610.12 463.043C820.28 320.292 946.745 -17.3411 1200.21 1.55253Z" fill="#FFC3B1"/>
</svg>
