<svg width="2383" height="2669" viewBox="0 0 2383 2669" fill="none" xmlns="http://www.w3.org/2000/svg">
<path fill-rule="evenodd" clip-rule="evenodd" d="M1170.79 405.344C1355.95 453.207 1550.8 316.309 1733.75 372.001C1934.67 433.163 2123.98 554.605 2238.81 730.46C2355.72 909.493 2408.15 1136.62 2370.5 1347.11C2334.62 1547.73 2139.91 1671.32 2038.87 1848.31C1937.21 2026.42 1923.49 2251.57 1774.03 2391.99C1610.5 2545.63 1392.6 2697.77 1170.79 2663.88C945.875 2629.51 844.311 2363.11 665.348 2222.6C516.052 2105.38 318.516 2056.76 204.369 1905.1C83.6338 1744.68 -26.7047 1545.13 6.41257 1347.11C39.357 1150.11 316.014 1078.34 374.568 887.386C459.892 609.137 161.372 180.613 410.331 29.8912C656.357 -119.055 892.35 333.365 1170.79 405.344Z" fill="#F8D49B"/>
</svg>
