<svg width="2213" height="2119" viewBox="0 0 2213 2119" fill="none" xmlns="http://www.w3.org/2000/svg">
<path fill-rule="evenodd" clip-rule="evenodd" d="M1616.48 97.0058C1783.9 184.457 1894.01 345.896 1995.4 505.246C2098.55 667.362 2230.28 838.644 2209.91 1029.66C2189.67 1219.34 1977.56 1322.87 1890.09 1492.37C1799.31 1668.28 1843.74 1917.41 1688.44 2040.18C1534.18 2162.12 1309.03 2105.77 1112.36 2107.18C918.054 2108.57 719.276 2128.78 542.361 2048.37C359.262 1965.15 195.582 1827.92 104.015 1648.88C14.6726 1474.19 50.338 1269.57 43.7836 1073.5C37.144 874.881 -63.3174 639.427 65.2032 487.871C199.84 329.103 473.34 431.958 662.171 344.276C821.995 270.062 898.813 65.7773 1069.41 21.575C1250.67 -25.3914 1450.48 10.298 1616.48 97.0058Z" fill="#E6E6E6"/>
</svg>
