<svg width="120" height="60" viewBox="0 0 120 60" fill="none" xmlns="http://www.w3.org/2000/svg">
<path d="M5.29199 21.37L19.285 14.804C20.092 14.427 20.845 14.481 21.653 14.858L34.839 21.048C35.162 21.208 35.539 21.318 35.539 21.694C35.539 22.179 35.109 22.232 34.786 22.394L22.138 28.314C20.954 28.852 19.938 28.852 18.748 28.314L5.29199 22.066V21.366V21.37ZM5.29199 38.108L7.76799 36.87C8.79099 36.332 9.75799 36.44 10.782 36.924L18.909 40.744C19.932 41.229 20.899 41.229 21.923 40.744L30.158 36.869C31.181 36.384 32.148 36.384 33.172 36.869C33.764 37.192 34.41 37.461 35.002 37.729C35.272 37.889 35.648 37.999 35.594 38.375C35.594 38.698 35.271 38.86 35.002 38.967L28.866 41.873L21.923 45.103C21.008 45.533 20.093 45.588 19.178 45.157L6.15299 39.075C5.88299 38.967 5.66799 38.752 5.39999 38.59C5.29199 38.482 5.29199 38.32 5.29199 38.105V38.108ZM5.29199 29.766L7.17599 28.851C8.62899 27.991 9.97599 28.151 11.482 28.905L19.125 32.511C20.095 32.941 20.955 32.941 21.87 32.511L29.997 28.691C31.127 28.153 32.197 28.099 33.337 28.691L35.221 29.606C35.759 29.929 35.706 30.252 35.221 30.576C35.061 30.684 34.898 30.736 34.736 30.791L21.766 36.819C20.906 37.249 20.044 37.249 19.18 36.819L6.20999 30.791C5.88699 30.631 5.61799 30.414 5.29499 30.253V29.768L5.29199 29.766ZM48.124 20.666V27.099C48.327 27.129 48.384 27.012 48.472 26.925C50.674 24.578 54.788 24.925 56.702 27.62C58.585 30.228 58.527 34.75 56.557 37.27C54.587 39.79 50.791 40.05 48.502 37.79L48.125 37.442V38.602C48.125 38.902 48.009 39.036 47.691 39.036H44.968C44.648 39.036 44.505 38.92 44.505 38.602V21.332L44.535 20.666H48.135H48.124ZM48.124 32.316V34.2C48.1027 34.3796 48.1321 34.5616 48.2088 34.7254C48.2855 34.8892 48.4064 35.0283 48.558 35.127C48.79 35.301 48.992 35.475 49.253 35.62C51.426 36.808 53.743 35.823 54.266 33.476C54.411 32.81 54.44 32.114 54.296 31.419C54.036 30.115 53.426 29.072 52.094 28.695C50.704 28.289 49.428 28.665 48.386 29.68C48.183 29.854 48.126 30.086 48.126 30.346V32.316H48.124ZM114.679 29.011C114.013 29.069 113.375 28.924 112.709 29.127L111.956 29.387C110.971 29.764 110.478 30.372 110.536 31.56L110.566 38.31C110.566 38.976 110.566 38.976 109.928 38.976H107.581C107.204 38.976 107.118 38.831 107.118 38.456L107.148 27.126C107.148 25.938 107.118 25.938 108.278 25.938H110.074C110.48 25.908 110.624 26.083 110.594 26.488C110.564 26.836 110.594 27.154 110.594 27.588C111.811 26.458 113.028 25.56 114.708 25.676L114.678 29.008L114.679 29.011ZM99.93 33.647H95.758C95.208 33.647 95.12 33.734 95.324 34.255C95.99 35.935 97.352 36.66 99.207 36.485C100.221 36.398 101.207 36.079 102.017 35.413C102.191 35.268 102.317 35.268 102.451 35.471L103.639 37.209C103.813 37.469 103.669 37.615 103.494 37.759C102.712 38.397 101.814 38.773 100.828 39.005C98.8 39.498 96.801 39.468 94.946 38.455C92.396 37.093 91.44 34.805 91.546 32.022C91.662 28.952 93.951 26.342 96.936 25.795C100.79 25.1 104.093 27.475 104.643 31.387C104.73 31.967 104.73 32.547 104.759 33.125C104.759 33.502 104.614 33.645 104.239 33.645C102.789 33.615 101.369 33.645 99.922 33.645L99.93 33.647ZM98.25 31.242H100.8C101.38 31.242 101.408 31.212 101.263 30.634C100.886 29.214 99.698 28.432 98.018 28.49C97.3446 28.5168 96.6994 28.7682 96.1853 29.204C95.6712 29.6398 95.3177 30.2351 95.181 30.895C95.123 31.215 95.268 31.272 95.529 31.272L98.253 31.242H98.25ZM68.667 37.442C67.972 38.08 67.305 38.572 66.523 38.862C65.2105 39.3823 63.7607 39.4436 62.409 39.036C61.019 38.63 60.091 37.356 60.004 35.822L59.946 29.534V26.58C59.946 26.146 60.062 25.942 60.526 25.972H62.786C63.452 25.972 63.452 25.972 63.452 26.61V33.65C63.452 35.504 64.147 36.17 66.002 36.11C67.016 36.08 67.77 35.59 68.462 34.922C68.665 34.719 68.636 34.459 68.636 34.227V26.664C68.636 25.969 68.636 25.969 69.331 25.969H71.621C71.998 25.969 72.114 26.114 72.114 26.462V38.458C72.114 38.835 71.969 38.978 71.594 38.978C70.7636 38.9491 69.9324 38.9491 69.102 38.978C68.725 38.978 68.582 38.833 68.609 38.485C68.696 38.185 68.667 37.877 68.667 37.442ZM88.37 34.042V38.417C88.37 38.851 88.254 38.997 87.82 38.997C87.0186 38.968 86.2164 38.968 85.415 38.997C84.981 38.997 84.835 38.852 84.835 38.417V29.725C84.835 29.03 84.835 29.03 84.14 29.03H83.155C82.895 29.03 82.749 28.943 82.749 28.653V26.393C82.749 26.073 82.894 25.987 83.183 25.987H84.4C84.72 25.987 84.834 25.871 84.834 25.553C84.8293 25.1156 84.8682 24.6788 84.95 24.249C85.384 21.931 87.442 20.511 89.876 20.849C90.746 20.965 91.556 21.149 92.281 21.719C92.581 21.951 92.687 22.153 92.426 22.501C92.126 22.878 91.876 23.311 91.644 23.718C91.47 24.018 91.296 24.124 90.978 23.892C90.7939 23.7728 90.5867 23.6937 90.37 23.66C89.124 23.36 87.994 24.587 88.37 25.804C88.428 26.036 88.63 26.007 88.776 26.007H90.514C90.814 26.007 90.977 26.094 90.977 26.441V28.643C90.977 28.943 90.861 29.077 90.543 29.049H88.978C88.312 29.049 88.312 29.049 88.312 29.687L88.37 34.031V34.042ZM76.2 33.955V29.56C76.2 29.183 76.084 29.01 75.707 29.04C75.301 29.07 74.897 29.04 74.49 29.04C74.19 29.04 74.056 28.953 74.056 28.634V26.374C74.056 26.074 74.201 25.968 74.462 25.997H75.737C76.114 26.027 76.23 25.881 76.23 25.504C76.2 24.606 76.317 23.708 76.78 22.924C77.65 21.418 79.36 20.606 81.184 20.84C82.024 20.956 82.836 21.1 83.531 21.622C84.024 21.999 84.051 22.056 83.734 22.549L82.981 23.737C82.836 23.997 82.661 24.085 82.373 23.882C82.085 23.679 81.735 23.562 81.359 23.562C80.229 23.562 79.419 24.662 79.794 25.764C79.881 25.996 80.054 25.967 80.2 25.967H81.88C82.2 25.967 82.343 26.083 82.314 26.401V28.574C82.314 28.894 82.198 29.037 81.88 29.008H80.344C79.881 28.978 79.736 29.153 79.764 29.588V38.136C79.764 38.946 79.764 38.946 78.924 38.946C78.229 38.946 77.504 38.916 76.809 38.946C76.403 38.946 76.229 38.83 76.229 38.366L76.199 33.962L76.2 33.955Z" fill="black"/>
</svg>
