<svg width="32" height="32" viewBox="0 0 32 32" fill="none" xmlns="http://www.w3.org/2000/svg">
<g clip-path="url(#clip0_34_1810)">
<path d="M16 0C7.161 0 0 7.161 0 16C0 24.839 7.161 32 16 32C24.839 32 32 24.839 32 16C32 7.161 24.839 0 16 0ZM9.281 10.24C10.286 10.24 11.068 10.973 11.156 11.839C11.251 12.62 10.927 13.303 10.063 13.714C9.604 13.943 9.422 13.943 9.328 13.807C9.281 13.714 9.328 13.626 9.421 13.531C10.245 12.85 10.245 12.298 10.15 11.522C10.103 11.017 9.739 10.698 9.374 10.698C7.77 10.698 5.489 14.261 5.806 16.87C5.947 17.875 6.541 19.063 7.817 19.063C8.229 19.063 8.688 18.927 9.098 18.746C9.765 18.391 10.166 18.121 10.562 17.678C10.463 16.495 11.499 14.949 13.03 14.949C13.718 14.949 14.265 15.225 14.311 15.73C14.4 16.413 13.806 16.506 13.624 16.506C13.441 16.506 13.119 16.459 13.119 16.277C13.078 16.094 13.53 16.184 13.488 15.772C13.441 15.496 13.165 15.408 12.895 15.408C11.931 15.408 11.384 16.736 11.52 17.553C11.567 17.922 11.748 18.288 12.119 18.288C12.39 18.288 12.802 17.876 12.936 17.283C13.029 16.871 13.395 16.595 13.717 16.595C13.853 16.595 13.941 16.642 13.988 16.824V17.007C13.947 17.19 13.805 17.742 13.853 17.876C13.853 17.971 13.9 18.105 14.081 18.105C14.201 18.105 14.66 17.865 15.118 17.49C15.269 16.703 15.451 15.761 15.451 15.683C15.498 15.36 15.634 15.042 16.274 15.042C16.414 15.042 16.503 15.089 16.55 15.271V15.454L16.367 16.277C16.962 15.501 17.831 14.954 18.378 14.954C18.607 14.954 18.79 15.089 18.79 15.318C18.79 15.454 18.79 15.683 18.695 15.913C18.514 16.413 18.284 17.194 18.148 17.876C18.148 18.059 18.195 18.241 18.424 18.241C18.653 18.241 19.336 17.97 19.883 17.236L19.894 17.231C19.894 17.142 19.883 17.054 19.883 16.966C19.883 16.414 19.93 15.961 20.024 15.638C20.117 15.273 20.571 14.955 20.847 14.955C20.982 14.955 21.123 15.043 21.123 15.179C21.123 15.226 21.123 15.319 21.076 15.362C20.893 15.961 20.752 16.507 20.752 17.054C20.752 17.377 20.8 17.83 20.893 18.106C20.893 18.153 20.934 18.199 20.981 18.199C21.076 18.199 21.716 17.606 22.169 16.824C21.757 16.553 21.528 16.095 21.528 15.548C21.528 14.585 22.128 14.084 22.675 14.084C23.134 14.084 23.498 14.403 23.498 15.043C23.498 15.455 23.362 15.914 23.134 16.324H23.269C23.561 16.335 23.848 16.215 24.045 16.007C24.0885 15.9374 24.1524 15.8829 24.228 15.851C24.676 15.283 25.332 14.862 26.108 14.862C26.748 14.862 27.337 15.138 27.384 15.638C27.477 16.325 26.879 16.461 26.696 16.461C26.515 16.461 26.192 16.414 26.192 16.232C26.192 16.05 26.603 16.139 26.561 15.732C26.514 15.456 26.238 15.363 25.962 15.363C25.05 15.363 24.457 16.55 24.591 17.514C24.638 17.878 24.82 18.29 25.186 18.29C25.462 18.29 25.873 17.878 26.055 17.285C26.143 16.921 26.514 16.597 26.831 16.597C26.971 16.597 27.06 16.644 27.107 16.826C27.107 16.921 27.107 17.102 26.924 17.697C26.695 18.108 26.695 18.337 26.743 18.52C26.784 18.884 26.967 19.16 27.154 19.296C27.1874 19.3384 27.2172 19.3836 27.243 19.431C27.243 19.526 27.195 19.619 27.06 19.619C27.013 19.619 26.971 19.619 26.924 19.572C26.237 19.296 25.961 18.837 25.872 18.379C25.596 18.702 25.279 18.884 24.909 18.884C24.314 18.884 23.726 18.337 23.633 17.649C23.6046 17.3572 23.6383 17.0628 23.732 16.785C23.461 16.957 23.169 17.056 22.899 17.056H22.675C22.076 17.925 21.435 18.52 20.982 18.791C20.826 18.8741 20.6536 18.9219 20.477 18.931C20.389 18.931 20.249 18.884 20.206 18.791C20.077 18.588 19.998 18.27 19.946 17.906C19.305 18.603 18.419 18.978 18.009 18.978C17.55 18.978 17.28 18.702 17.233 18.245V17.745C17.368 16.74 17.738 16.141 17.738 15.958C17.7353 15.9339 17.7244 15.9115 17.7071 15.8946C17.6898 15.8776 17.6671 15.8672 17.643 15.865C17.326 15.865 16.274 16.964 16.091 17.698L15.951 18.291C15.862 18.702 15.451 18.978 15.175 18.978C15.039 18.978 14.946 18.931 14.904 18.75V18.567L14.961 18.255C14.382 18.666 13.804 18.931 13.528 18.931C13.117 18.931 12.888 18.702 12.847 18.379C12.571 18.75 12.252 18.931 11.842 18.931C11.367 18.931 10.91 18.608 10.691 18.14C10.362 18.509 9.992 18.879 9.555 19.16C8.915 19.572 8.186 19.889 7.315 19.889C6.539 19.889 5.852 19.477 5.487 19.113C4.935 18.608 4.618 17.832 4.571 17.102C4.3 14.863 5.67 11.982 7.768 10.701C8.273 10.425 8.779 10.244 9.279 10.244L9.281 10.24ZM22.307 14.631C22.172 14.631 22.079 14.86 22.079 15.083C22.079 15.454 22.26 15.864 22.49 16.094C22.5817 15.8438 22.6294 15.5795 22.631 15.313C22.631 14.861 22.448 14.632 22.307 14.632V14.631Z" fill="#D5775A"/>
</g>
<defs>
<clipPath id="clip0_34_1810">
<rect width="32" height="32" fill="white"/>
</clipPath>
</defs>
</svg>
