<svg width="118" height="30" viewBox="0 0 118 30" fill="none" xmlns="http://www.w3.org/2000/svg">
<g clip-path="url(#clip0_16_1411)">
<path d="M33.07 29.462L29.692 23.586L8.662 26.965L27.926 20.515L25.608 16.481L7.398 25.129L23.85 13.425L22.093 10.37L6.587 23.388L20.335 7.308L19.03 5.041L6.008 21.567L17.268 1.977L16.535 0.701996L0 29.462H33.07Z" fill="black"/>
<path fill-rule="evenodd" clip-rule="evenodd" d="M43.848 23.247C41.516 23.247 39.572 22.46 38.014 20.886C36.456 19.311 35.677 17.374 35.678 15.074C35.678 12.754 36.457 10.812 38.014 9.24799C39.572 7.68399 41.516 6.90199 43.848 6.90099C45.353 6.90099 46.725 7.26399 47.963 7.98899C49.201 8.71399 50.13 9.68899 50.748 10.91L47.871 12.588C47.5306 11.8544 46.9745 11.2421 46.277 10.833C45.565 10.408 44.745 10.196 43.817 10.195C42.455 10.195 41.315 10.661 40.397 11.594C39.479 12.526 39.02 13.686 39.02 15.074C39.02 16.463 39.479 17.623 40.397 18.554C41.315 19.487 42.455 19.954 43.817 19.954C44.724 19.954 45.544 19.736 46.277 19.301C46.9842 18.8918 47.5587 18.2878 47.932 17.561L50.81 19.207C50.1591 20.4406 49.172 21.4645 47.963 22.16C46.726 22.885 45.353 23.247 43.848 23.247ZM60.109 23.247C57.839 23.247 55.911 22.46 54.322 20.886C52.733 19.311 51.939 17.374 51.939 15.074C51.939 12.774 52.734 10.838 54.322 9.26399C55.911 7.68799 57.84 6.90099 60.11 6.89999C62.4 6.89999 64.334 7.68799 65.913 9.26199C67.491 10.837 68.28 12.774 68.28 15.073C68.28 17.373 67.49 19.31 65.913 20.885C64.334 22.459 62.4 23.246 60.11 23.246L60.109 23.247ZM56.674 18.586C57.603 19.518 58.748 19.984 60.109 19.984C61.471 19.984 62.616 19.518 63.544 18.586C64.473 17.654 64.937 16.483 64.937 15.074C64.937 13.666 64.473 12.495 63.544 11.563C62.616 10.63 61.471 10.164 60.109 10.164C58.748 10.164 57.603 10.63 56.674 11.563C55.746 12.495 55.282 13.666 55.282 15.074C55.282 16.484 55.746 17.654 56.674 18.586ZM86.5 7.30599H83.22V9.60499C81.958 7.80299 80.164 6.89999 77.833 6.89999C75.645 6.89999 73.799 7.68299 72.293 9.24699C70.787 10.811 70.034 12.701 70.034 14.917C70.034 17.135 70.787 19.025 72.294 20.589C73.799 22.153 75.646 22.935 77.833 22.935C80.163 22.935 81.959 22.035 83.217 20.232V22.128C83.217 23.474 82.81 24.525 81.995 25.282C81.18 26.038 80.05 26.416 78.606 26.416C76.399 26.416 74.893 25.618 74.088 24.023L71.21 25.701C72.53 28.208 74.975 29.461 78.544 29.461C80.752 29.461 82.629 28.829 84.177 27.566C85.724 26.302 86.497 24.489 86.497 22.128V7.30499L86.5 7.30599ZM78.299 19.798C76.896 19.798 75.725 19.332 74.786 18.4C73.848 17.467 73.378 16.307 73.378 14.919C73.378 13.531 73.848 12.371 74.787 11.439C75.725 10.506 76.895 10.04 78.299 10.04C79.701 10.04 80.872 10.506 81.811 11.438C82.75 12.371 83.219 13.531 83.219 14.918C83.219 16.307 82.749 17.468 81.811 18.4C80.872 19.332 79.701 19.798 78.299 19.798ZM92.383 11.573C92.383 12.085 92.669 12.489 93.241 12.785C93.812 13.082 94.498 13.354 95.299 13.601L97.759 14.362C98.599 14.622 99.3 15.103 99.863 15.805C100.426 16.507 100.707 17.393 100.708 18.462C100.708 19.953 100.135 21.124 98.99 21.973C97.845 22.823 96.406 23.248 94.673 23.247C93.146 23.247 91.836 22.927 90.743 22.284C89.649 21.642 88.855 20.751 88.36 19.611L91.238 17.933C91.775 19.425 92.92 20.171 94.673 20.171C96.427 20.171 97.303 19.591 97.303 18.431C97.303 17.933 97.02 17.529 96.453 17.218C95.885 16.908 95.201 16.628 94.401 16.38L91.941 15.62C91.1157 15.3701 90.382 14.8832 89.831 14.22C89.263 13.547 88.979 12.692 88.979 11.656C88.979 10.226 89.521 9.07599 90.604 8.20599C91.687 7.33599 93.034 6.90099 94.642 6.90099C95.922 6.90099 97.062 7.18599 98.062 7.75599C99.062 8.32599 99.831 9.11799 100.367 10.133L97.551 11.718C97.015 10.538 96.045 9.94699 94.642 9.94699C94.002 9.94699 93.466 10.085 93.033 10.361C92.6 10.637 92.383 11.041 92.383 11.573ZM117.002 7.30499H113.443L109.485 18.585L104.871 7.30499H101.22L107.78 22.564L107.626 22.874C107.213 23.951 106.687 24.744 106.047 25.252C105.408 25.759 104.562 25.982 103.51 25.92V29.059C107.058 29.266 109.575 27.359 111.061 23.341L117.002 7.30499Z" fill="black"/>
</g>
<defs>
<clipPath id="clip0_16_1411">
<rect width="118" height="29" fill="white" transform="translate(0 0.5)"/>
</clipPath>
</defs>
</svg>
