<svg width="114" height="64" viewBox="0 0 114 64" fill="none" xmlns="http://www.w3.org/2000/svg">
<path d="M20.1524 22.7546C20.4346 22.7116 20.5253 22.7926 20.5192 23.0751C20.4987 24.0327 20.5007 24.9911 20.518 25.9488C20.5231 26.2293 20.4765 26.3232 20.1647 26.3211C17.7028 26.3048 15.2407 26.3158 12.7786 26.3064C12.5253 26.3055 12.4398 26.3505 12.4409 26.6323C12.4529 29.6446 12.4455 32.6569 12.454 35.6692C12.4547 35.9059 12.4135 35.9825 12.1588 35.9785C11.08 35.9616 10.0008 35.9639 8.92198 35.9772C8.6882 35.98 8.61395 35.9384 8.61426 35.6808C8.62259 28.6487 8.62211 21.6167 8.61567 14.5846C8.61546 14.3516 8.65055 14.2729 8.90842 14.2736C12.6848 14.2836 16.4613 14.282 20.2378 14.2764C20.4398 14.276 20.5225 14.2987 20.5185 14.5394C20.5017 15.5564 20.5043 16.574 20.5171 17.5911C20.5198 17.8074 20.4528 17.8432 20.2553 17.8426C17.754 17.8356 15.2527 17.8435 12.7515 17.8302C12.4789 17.8287 12.4407 17.9113 12.4427 18.156C12.4543 19.588 12.4542 21.0201 12.4426 22.4521C12.4407 22.6884 12.4826 22.7627 12.7375 22.7615C15.1995 22.75 17.6615 22.7546 20.1524 22.7546Z" fill="#F7F7F7"/>
<path d="M59.1178 27.2666C59.0445 26.5055 59.0078 25.7685 58.61 25.1094C58.2812 24.5648 57.7711 24.3554 57.19 24.3026C55.9422 24.1892 54.9552 24.6733 54.1844 25.6638C54.0432 25.8451 53.9971 26.0034 53.9973 26.214C54.0004 29.3738 53.9964 32.5336 54.0056 35.6934C54.0063 35.9331 53.9365 35.979 53.7154 35.9765C52.676 35.9649 51.6363 35.9647 50.5969 35.9769C50.3867 35.9793 50.3435 35.9206 50.3438 35.7167C50.35 31.0264 50.35 26.336 50.3438 21.6457C50.3435 21.441 50.3879 21.3837 50.5974 21.3861C51.6564 21.3981 52.7157 21.3958 53.7748 21.3875C53.9499 21.3861 54.0162 21.4198 54.0042 21.6111C53.986 21.902 53.9995 22.1949 53.9995 22.5147C54.7655 21.9199 55.5568 21.4571 56.4895 21.2665C57.5122 21.0575 58.5064 21.1075 59.4844 21.4874C60.5822 21.9138 61.4171 22.6507 61.9854 23.6752C62.2807 24.2075 62.4507 24.7993 62.5321 25.4079C62.8518 27.7957 62.6631 30.1966 62.7067 32.5915C62.7257 33.6379 62.7051 34.6849 62.7142 35.7315C62.7159 35.9204 62.6728 35.9783 62.4763 35.9763C61.4368 35.9657 60.3972 35.9638 59.3578 35.9773C59.1349 35.9802 59.1134 35.8988 59.1138 35.7083C59.1197 32.904 59.1178 30.0996 59.1178 27.2666Z" fill="#F7F7F7"/>
<path d="M82.0545 31.3077C81.6991 30.2216 81.6012 29.1214 81.6676 28.0139C81.7348 26.8917 81.9636 25.7978 82.4823 24.7854C83.1245 23.532 84.0293 22.5287 85.2771 21.8662C85.9439 21.5121 86.6592 21.313 87.4086 21.206C87.9746 21.1252 88.5419 21.1245 89.1001 21.1668C90.3191 21.2593 91.417 21.6829 92.3762 22.482C93.3278 23.2747 93.9378 24.2858 94.3403 25.4303C94.5486 26.0227 94.6607 26.647 94.736 27.2788C94.8099 27.8982 94.7482 28.5151 94.7903 29.131C94.8062 29.3648 94.7241 29.3985 94.5148 29.398C91.5337 29.391 88.5527 29.3979 85.5717 29.386C85.278 29.3848 85.2776 29.5129 85.322 29.718C85.4741 30.4201 85.7573 31.0691 86.2433 31.5929C86.737 32.1249 87.3457 32.5031 88.0693 32.6499C89.5352 32.9473 90.9364 32.7258 92.2957 32.1229C93.1083 31.7624 93.8223 31.2505 94.5496 30.6901C94.5496 31.9371 94.5491 33.1479 94.5508 34.3587C94.5509 34.4456 94.5197 34.4968 94.4467 34.547C93.3052 35.3313 92.0606 35.8684 90.6937 36.0836C89.8578 36.2152 89.0076 36.2692 88.1652 36.1991C86.9147 36.095 85.7083 35.8225 84.6768 35.0267C83.9118 34.4366 83.267 33.7444 82.7645 32.9143C82.4623 32.4149 82.213 31.8955 82.0545 31.3077Z" fill="#F9F9F9"/>
<path d="M69.5952 25.9556C69.5952 27.7134 69.5928 29.4415 69.5971 31.1697C69.598 31.5361 69.6777 31.8899 69.8287 32.2257C70.0115 32.6325 70.3399 32.8356 70.7653 32.887C71.8222 33.0149 72.7594 32.6597 73.6563 32.1473C73.9576 31.9752 74.2611 31.8071 74.5978 31.618C74.5978 32.6834 74.5772 33.7081 74.6088 34.7312C74.6202 35.1011 74.4904 35.2633 74.1774 35.4271C72.8833 36.1043 71.5015 36.3255 70.077 36.1949C68.7295 36.0714 67.5926 35.47 66.7814 34.3458C66.3719 33.7784 66.1782 33.1209 66.1222 32.4233C65.9252 29.9668 66.0244 27.5054 66.013 25.046C66.0116 24.7495 65.9309 24.6943 65.6588 24.7045C65.0614 24.727 64.4625 24.7067 63.8643 24.7148C63.7092 24.7169 63.6598 24.6867 63.6419 24.5124C63.5953 24.0587 63.7204 23.7198 64.0744 23.4074C64.6043 22.9398 65.0631 22.3913 65.5839 21.9122C66.7771 20.8146 67.8755 19.6214 69.0363 18.4916C69.2013 18.331 69.386 18.1908 69.5952 18.0125C69.5952 18.2942 69.5952 18.5539 69.5952 18.8135C69.5952 19.5937 69.6017 20.3739 69.5906 21.1539C69.5879 21.3458 69.6366 21.3984 69.8302 21.397C71.0953 21.3877 72.3606 21.3982 73.6257 21.3865C73.8446 21.3844 73.9009 21.4358 73.8975 21.6588C73.8835 22.5967 73.8861 23.535 73.8961 24.4731C73.8982 24.6647 73.8504 24.7177 73.6567 24.7163C72.3915 24.707 71.1262 24.7175 69.8611 24.7058C69.6425 24.7038 69.5743 24.7538 69.5898 24.9782C69.6114 25.2928 69.5952 25.6099 69.5952 25.9556Z" fill="black"/>
<path d="M97.0203 28.3259C97.0203 26.0844 97.0238 23.8725 97.0149 21.6606C97.014 21.4422 97.0611 21.383 97.2842 21.386C98.3138 21.3998 99.3437 21.3969 100.373 21.3877C100.561 21.386 100.621 21.4291 100.616 21.6273C100.603 22.2482 100.611 22.8695 100.611 23.5302C100.945 23.1055 101.252 22.7028 101.623 22.3579C102.196 21.8259 102.816 21.3746 103.6 21.2139C104.335 21.0631 105.044 21.1571 105.733 21.4505C106.516 21.7842 107.17 22.3068 107.809 22.8556C107.967 22.9911 107.963 23.0929 107.86 23.2638C107.31 24.1758 106.775 25.0969 106.233 26.0134C106.148 26.1557 106.072 26.2361 105.911 26.0578C105.469 25.5694 104.963 25.1505 104.372 24.859C103.275 24.3178 102.312 24.6905 101.571 25.5659C101.091 26.1338 100.814 26.818 100.685 27.5473C100.644 27.7804 100.609 28.0257 100.609 28.2707C100.613 30.7393 100.607 33.208 100.618 35.6766C100.619 35.9272 100.555 35.9808 100.314 35.9772C99.3044 35.9622 98.294 35.963 97.2841 35.977C97.0607 35.9801 97.0142 35.9203 97.015 35.7022C97.0234 33.2534 97.0203 30.8045 97.0203 28.3259Z" fill="#FBFBFB"/>
<path d="M32.7376 48.4937C33.7339 50.0515 34.6537 51.6342 35.8655 53.0964C34.7585 53.0964 33.7336 53.0949 32.7086 53.0984C32.589 53.0988 32.558 53.026 32.4982 52.942C31.7076 51.8315 31.0193 50.6545 30.2805 49.5105C29.858 48.8563 29.3443 48.2774 28.6864 47.8491C28.3775 47.648 28.0189 47.6326 27.6638 47.6483C27.4986 47.6556 27.5774 47.8008 27.5769 47.8794C27.5711 48.8469 27.5731 49.8145 27.5731 50.782C27.5731 51.483 27.5684 52.184 27.5767 52.8849C27.5787 53.0467 27.5427 53.1028 27.3705 53.1006C26.6156 53.0908 25.8605 53.0933 25.1055 53.0992C24.9702 53.1003 24.9011 53.0711 24.9234 52.9223C24.9306 52.874 24.9245 52.8237 24.9245 52.7744C24.9245 48.5093 24.9282 44.2442 24.9165 39.9791C24.9157 39.6827 24.9976 39.6327 25.2695 39.6373C26.3085 39.6548 27.3487 39.6231 28.3873 39.6516C29.1113 39.6714 29.8371 39.7304 30.527 39.998C31.8262 40.502 32.7111 41.3905 32.9775 42.7906C33.1638 43.7701 33.0441 44.7288 32.5187 45.6046C32.2281 46.0889 31.8384 46.4749 31.3443 46.7931C31.8864 47.2817 32.3026 47.8811 32.7376 48.4937Z" fill="#FEFEFE"/>
<path d="M87.2095 43.7925C87.8775 43.7764 88.4845 43.8776 89.0579 44.2003C89.8829 44.6645 90.3338 45.3839 90.5445 46.2799C90.6701 46.814 90.6695 47.3603 90.6672 47.9073C90.6603 49.5465 90.6606 51.1858 90.6698 52.825C90.671 53.0376 90.6332 53.1096 90.4037 53.1029C89.7569 53.0842 89.109 53.0871 88.462 53.1017C88.25 53.1065 88.185 53.0633 88.1864 52.8335C88.1977 51.056 88.1996 49.2784 88.1883 47.5009C88.185 46.9884 88.0576 46.4797 87.6178 46.1784C87.0992 45.8231 86.5998 45.9614 86.1013 46.2861C86.0215 46.3381 85.946 46.3973 85.8721 46.4577C85.5278 46.7394 85.3386 47.0487 85.351 47.5517C85.3945 49.3084 85.3641 51.0669 85.3728 52.8246C85.3739 53.0362 85.3377 53.1094 85.1072 53.103C84.4408 53.0844 83.7735 53.0915 83.1067 53.0999C82.9471 53.102 82.8916 53.0675 82.8918 52.8932C82.8969 48.5481 82.8966 44.203 82.8926 39.858C82.8925 39.6994 82.9207 39.6372 83.0964 39.64C83.7827 39.6507 84.4696 39.6532 85.1558 39.6387C85.3543 39.6346 85.3718 39.7101 85.3712 39.8761C85.3654 41.2981 85.3679 42.7201 85.3679 44.1421C85.3679 44.238 85.3679 44.3338 85.3679 44.4882C85.7785 44.1747 86.1979 44.0012 86.6469 43.8846C86.8252 43.8383 87.0178 43.9005 87.2095 43.7925Z" fill="#FEFEFE"/>
<path d="M26.2197 35.8406C26.2275 35.9743 26.1569 35.9713 26.0848 35.9713C24.9867 35.9708 23.8887 35.9689 22.7907 35.9737C22.6619 35.9743 22.6099 35.9376 22.6274 35.8075C22.634 35.7591 22.6285 35.709 22.6285 35.6596C22.6285 31.0103 22.6315 26.361 22.6211 21.7116C22.6205 21.4293 22.7061 21.3825 22.959 21.3861C23.9588 21.4003 24.959 21.4005 25.9588 21.3855C26.1875 21.382 26.2306 21.4499 26.2251 21.6633C26.2099 22.253 26.2199 22.8433 26.2199 23.4955C26.5703 23.0281 26.9364 22.6494 27.31 22.2771C27.8781 21.711 28.5461 21.3032 29.3302 21.1735C29.9184 21.0763 30.5264 21.1335 31.0951 21.357C31.9971 21.7115 32.782 22.2465 33.4514 22.9528C33.5283 23.034 33.5615 23.0665 33.4801 23.1995C32.9098 24.1312 32.3622 25.077 31.8124 26.0213C31.7239 26.1733 31.665 26.1949 31.5245 26.0613C31.0169 25.5787 30.4906 25.1265 29.8451 24.8212C29.0227 24.4323 28.1598 24.6197 27.5314 25.2019C26.8182 25.8625 26.3998 26.6788 26.2679 27.6527C26.2416 27.8467 26.2215 28.0378 26.2213 28.2309C26.2191 30.7579 26.2198 33.2849 26.2197 35.8406Z" fill="#F9F9F9"/>
<path d="M44.6566 35.2173C43.9319 35.6284 43.1766 35.9006 42.387 36.0666C41.799 36.1902 41.1992 36.1996 40.598 36.2158C39.2603 36.2517 37.9849 36.0094 36.8091 35.3716C34.8948 34.3333 33.6186 32.7741 33.1011 30.6164C32.8979 29.7692 32.8702 28.9074 32.9417 28.0563C33.0678 26.554 33.6207 25.214 34.6032 24.049C35.2484 23.284 36.0143 22.6883 36.8827 22.2292C37.5782 21.8615 38.3283 21.6369 39.111 21.5006C39.8864 21.3656 40.6654 21.3477 41.4357 21.4057C42.7984 21.5082 44.0642 21.9394 45.194 22.7453C46.4723 23.6572 47.39 24.8455 47.9135 26.3274C48.2974 27.414 48.3832 28.5564 48.2765 29.6903C48.1375 31.1679 47.5964 32.4935 46.6007 33.6269C46.0397 34.2656 45.3939 34.774 44.6566 35.2173Z" fill="black"/>
<path d="M59.7183 50.1039C59.9989 49.3373 60.486 48.787 61.1788 48.4133C61.9664 47.9885 62.8236 47.7514 63.6627 47.4658C63.8513 47.4016 63.9569 47.3214 63.8544 47.0982C63.8084 46.9979 63.8345 46.866 63.7973 46.7592C63.6748 46.4082 63.4108 46.2441 63.0331 46.2197C62.2101 46.1665 61.5446 46.5033 60.9741 47.0574C60.6243 47.397 60.2571 47.7224 59.9656 48.1198C59.9292 48.1693 59.8893 48.2544 59.8091 48.2255C59.7226 48.1944 59.7683 48.1052 59.7681 48.0445C59.7648 47.1659 59.761 46.2873 59.768 45.4088C59.7712 45.0108 60.1032 44.8353 60.3558 44.6261C61.192 43.9337 62.1885 43.7384 63.2322 43.8009C64.1366 43.855 64.9736 44.1261 65.6057 44.8418C66.0305 45.3228 66.257 45.8748 66.3052 46.5246C66.4183 48.0498 66.3143 49.5759 66.369 51.1205C66.7976 50.9584 67.1023 50.5997 67.5351 50.3912C67.5351 51.0594 67.5346 51.7231 67.5357 52.3868C67.5358 52.4513 67.5114 52.478 67.4533 52.516C66.835 52.9207 66.2032 53.2965 65.433 53.2696C64.9698 53.2535 64.5297 53.1373 64.1893 52.7815C64.1343 52.7239 64.1005 52.6531 63.9775 52.7274C63.4836 53.0257 62.9493 53.1809 62.3656 53.2264C61.7764 53.2723 61.244 53.1847 60.742 52.8704C60.0497 52.437 59.6984 51.8046 59.6516 50.9974C59.6347 50.7074 59.625 50.4128 59.7183 50.1039Z" fill="black"/>
<path d="M45.1535 50.2086C45.6885 50.5414 46.2267 50.8166 46.8263 50.9385C47.1617 51.0068 47.494 50.9915 47.7891 50.7775C47.9788 50.6399 47.9973 50.4639 47.8234 50.2908C47.5224 49.991 47.1478 49.7976 46.7836 49.593C46.1256 49.2234 45.4881 48.8188 44.9317 48.3096C44.5255 47.9379 44.2791 47.4451 44.1714 46.8967C44.0508 46.2822 44.1429 45.7 44.4632 45.1581C44.8522 44.5 45.4474 44.1028 46.1598 43.9224C47.5423 43.5721 48.8167 43.9412 50.0312 44.61C50.0935 44.6443 50.1149 44.6739 50.1148 44.7388C50.1137 45.5842 50.1141 46.4296 50.1141 47.3147C49.7127 47.0813 49.3545 46.8542 48.9797 46.6595C48.4493 46.3841 47.9142 46.1097 47.2942 46.1039C47.2844 46.1038 47.2746 46.104 47.2648 46.1039C47.0468 46.1014 46.7968 46.1392 46.7177 46.3352C46.6242 46.5673 46.8813 46.7019 47.0374 46.8036C47.4729 47.0874 47.9358 47.3282 48.3814 47.5969C49.2477 48.1194 50.0545 48.7256 50.3978 49.7257C50.8067 50.9174 50.3011 52.2217 49.0704 52.854C48.3003 53.2498 47.483 53.3176 46.6187 53.2319C45.7618 53.1469 45.0183 52.7963 44.256 52.4598C44.1011 52.3914 44.0449 52.3172 44.0472 52.1441C44.0577 51.3446 44.0511 50.5448 44.0532 49.7451C44.0534 49.6807 44.018 49.5958 44.0842 49.5547C44.1652 49.5043 44.2219 49.5776 44.2868 49.6227C44.5672 49.8174 44.8527 50.0046 45.1535 50.2086Z" fill="#FDFDFD"/>
<path d="M43.1075 49.1261C41.4409 49.1261 39.8032 49.1261 38.1655 49.1262C37.8287 49.1262 37.8135 49.1425 37.9471 49.4583C38.2621 50.2025 38.7761 50.6777 39.6098 50.7921C40.6029 50.9284 41.4894 50.6717 42.3351 50.1764C42.7142 49.9544 43.0414 49.6605 43.4118 49.4235C43.5074 49.4733 43.4611 49.563 43.4614 49.6317C43.4653 50.3821 43.4519 51.1328 43.4717 51.8827C43.4771 52.087 43.3815 52.1759 43.245 52.2647C42.4799 52.7624 41.652 53.1217 40.7448 53.2048C39.4748 53.3211 38.2193 53.2926 37.1348 52.4514C36.2859 51.7929 35.7278 50.9434 35.4634 49.9039C35.3371 49.4075 35.2645 48.895 35.287 48.382C35.3449 47.0693 35.6916 45.8615 36.6678 44.9217C37.3034 44.3098 38.061 43.9628 38.9449 43.8407C39.78 43.7252 40.5812 43.8088 41.3213 44.1744C42.4332 44.7236 43.094 45.6685 43.404 46.8661C43.571 47.511 43.5849 48.1703 43.5895 48.8329C43.5913 49.0855 43.5219 49.17 43.2833 49.1274C43.2358 49.1189 43.1855 49.1261 43.1075 49.1261Z" fill="#FDFDFD"/>
<path d="M51.6436 50.8977C51.3778 50.3502 51.2382 49.7962 51.1644 49.2099C51.047 48.2783 51.1409 47.3811 51.4689 46.5096C51.9799 45.1521 52.9283 44.2679 54.3345 43.9137C55.3037 43.6697 56.2631 43.7537 57.1625 44.1783C57.8324 44.4947 58.3466 45.0157 58.7242 45.6689C59.0987 46.3167 59.2852 47.0113 59.3667 47.7542C59.4077 48.1273 59.38 48.4973 59.418 48.8656C59.4425 49.1033 59.3471 49.1317 59.1413 49.1308C57.4159 49.1226 55.6904 49.1311 53.965 49.1206C53.7129 49.119 53.6861 49.1752 53.7585 49.4075C54.0459 50.3303 54.8424 50.8071 55.7189 50.8396C56.9496 50.8851 57.9979 50.4034 58.9357 49.6369C59.0219 49.5664 59.1159 49.5055 59.2367 49.4183C59.2367 50.3049 59.2358 51.1587 59.2379 52.0125C59.2381 52.112 59.1953 52.1571 59.1117 52.2134C58.19 52.8347 57.1941 53.1813 56.0711 53.2297C55.2751 53.2641 54.5165 53.1986 53.7702 52.9234C53.3976 52.786 53.0862 52.5604 52.7811 52.3165C52.3019 51.9333 51.9603 51.4384 51.6436 50.8977Z" fill="#FDFDFD"/>
<path d="M80.0586 46.4011C79.383 46.1877 78.7408 46.0943 78.0975 46.452C77.4805 46.795 77.1456 47.3196 77.0085 48.0001C76.9226 48.4265 76.9813 48.8349 77.0591 49.258C77.1966 50.0054 77.9332 50.6529 78.7192 50.7939C79.6015 50.9522 80.4012 50.7239 81.1944 50.3948C81.4372 50.2941 81.6758 50.1831 81.9544 50.0601C81.9544 50.7399 81.9544 51.3957 81.9544 52.0516C81.9544 52.6889 81.9583 52.7013 81.3523 52.8949C80.4966 53.1684 79.6176 53.3344 78.718 53.2689C77.5464 53.1836 76.4826 52.804 75.6504 51.929C75.0293 51.2758 74.6796 50.4846 74.5338 49.5898C74.3679 48.5717 74.4063 47.5689 74.7804 46.6098C75.346 45.1599 76.3615 44.2252 77.9179 43.9028C79.1131 43.6553 80.2232 43.882 81.3311 44.317C81.697 44.4607 81.8066 44.6434 81.7885 45.0295C81.7525 45.7954 81.7778 46.5642 81.7778 47.3839C81.2115 46.9992 80.669 46.6606 80.0586 46.4011Z" fill="black"/>
<path d="M75.7149 25.5407C75.7149 24.2183 75.7186 22.9254 75.7107 21.6326C75.7096 21.4458 75.7488 21.3846 75.9473 21.3867C76.9862 21.3977 78.0252 21.3958 79.0641 21.388C79.2436 21.3867 79.312 21.4165 79.3117 21.6225C79.305 26.33 79.3048 31.0376 79.3121 35.7452C79.3124 35.9604 79.2309 35.9753 79.0595 35.9743C78.0303 35.968 77.001 35.9616 75.9721 35.9783C75.7338 35.9821 75.7104 35.8999 75.7107 35.6961C75.7166 32.3209 75.7149 28.9456 75.7149 25.5407Z" fill="#FDF6F6"/>
<path d="M74.4212 46.4575C74.277 46.7056 74.1216 46.9243 73.9973 47.1598C73.9138 47.318 73.8623 47.3028 73.7566 47.1868C73.5414 46.9506 73.2885 46.7583 73.0351 46.5632C72.2085 45.9265 71.4797 46.3438 71.0679 47.0543C70.8288 47.4668 70.7151 47.9194 70.7142 48.3965C70.7115 49.8774 70.7092 51.3583 70.718 52.8392C70.7192 53.0387 70.6823 53.1072 70.4677 53.1022C69.7915 53.0865 69.1147 53.0929 68.4383 53.0992C68.2944 53.1006 68.2369 53.0746 68.2372 52.9091C68.2427 49.9967 68.2428 47.0842 68.2371 44.1719C68.2367 43.9949 68.2963 43.9651 68.4536 43.9669C69.1398 43.9748 69.8263 43.9766 70.5125 43.9659C70.6879 43.9632 70.7249 44.0241 70.7164 44.1838C70.704 44.4176 70.7132 44.6526 70.7132 44.9345C71.0996 44.4608 71.5406 44.1197 72.066 43.917C72.825 43.6242 73.5275 43.8564 74.1847 44.2447C74.5051 44.4341 74.7926 44.6789 75.0675 44.9377C75.2097 45.0717 75.1939 45.1793 75.1107 45.3153C74.8822 45.689 74.6524 46.062 74.4212 46.4575Z" fill="#FEFEFE"/>
<path d="M19.9218 48C16.2732 48 12.654 47.9973 9.03487 48.0061C8.79171 48.0067 8.70662 47.9532 8.73558 47.7036C8.77148 47.3941 8.60735 46.9747 8.80097 46.7998C8.97085 46.6463 9.37866 46.7562 9.68139 46.7561C13.9381 46.7553 18.1948 46.7579 22.4515 46.7495C22.6946 46.749 22.7797 46.8023 22.7508 47.0519C22.7149 47.3615 22.879 47.7809 22.6854 47.9558C22.5155 48.1092 22.1077 47.9985 21.805 47.9994C21.1871 48.0014 20.5692 48 19.9218 48Z" fill="black"/>
<path d="M106.731 48C102.416 48 98.1297 47.9977 93.8436 48.0061C93.6002 48.0066 93.5209 47.9528 93.5431 47.7034C93.57 47.4006 93.44 46.9885 93.5924 46.8174C93.7661 46.6225 94.1811 46.7583 94.4905 46.7581C98.7472 46.7543 103.004 46.7579 107.261 46.7494C107.504 46.7489 107.603 46.8046 107.557 47.052C107.548 47.0997 107.556 47.1505 107.556 47.1999C107.551 47.4553 107.645 47.797 107.517 47.9436C107.369 48.114 107.021 47.9805 106.731 48Z" fill="black"/>
<path d="M79.5414 17.6593C79.5823 18.9047 78.4396 19.8579 77.3046 19.7242C76.4422 19.6226 75.7429 18.9949 75.524 18.0444C75.2646 16.9184 76.3003 15.4582 77.769 15.6476C78.7643 15.776 79.5511 16.6027 79.5414 17.6593Z" fill="black"/>
<path d="M10.8583 35.5547C10.2992 35.5547 9.76952 35.5495 9.24001 35.5579C9.08729 35.5604 9.02043 35.5177 9.04376 35.3597C9.05089 35.3114 9.04485 35.2611 9.04485 35.2117C9.04485 28.5061 9.04678 21.8004 9.03809 15.0948C9.03772 14.8137 9.09645 14.7384 9.38485 14.7393C12.8373 14.7508 16.2898 14.751 19.7423 14.7391C20.0345 14.738 20.0955 14.8188 20.0862 15.0964C20.0644 15.7474 20.0673 16.4001 20.085 17.0514C20.0922 17.3128 20.0335 17.399 19.7532 17.3976C17.2816 17.3853 14.8099 17.3945 12.3383 17.3845C12.076 17.3835 11.9946 17.4411 11.9968 17.72C12.0109 19.4383 12.0114 21.1568 11.9965 22.8751C11.994 23.1594 12.0837 23.2086 12.3408 23.2076C14.8124 23.1984 17.2841 23.2055 19.7558 23.1969C20.0006 23.196 20.0967 23.2356 20.087 23.5142C20.0631 24.1948 20.0695 24.877 20.0846 25.5581C20.0897 25.7866 20.032 25.8523 19.7982 25.8514C17.3167 25.8424 14.8352 25.8506 12.3538 25.8391C12.0777 25.8378 11.9953 25.8935 11.9964 26.1878C12.0086 29.2097 12.0009 32.2317 12.0097 35.2537C12.0104 35.4941 11.9641 35.584 11.7111 35.5604C11.4388 35.5351 11.1624 35.5547 10.8583 35.5547Z" fill="black"/>
<path d="M62.2106 26.4766C62.2687 27.4017 62.2441 28.3006 62.2456 29.1991C62.2491 31.2237 62.2426 33.2482 62.2524 35.2727C62.2536 35.5052 62.1946 35.5656 61.9655 35.5604C61.2597 35.5445 60.5531 35.5457 59.8471 35.5599C59.6247 35.5643 59.5556 35.5141 59.5565 35.2755C59.5662 32.7769 59.5645 30.2783 59.561 27.7797C59.5601 27.1874 59.5303 26.5962 59.4153 26.0124C59.1054 24.4392 58.248 23.788 56.6233 23.8467C55.3015 23.8946 54.3649 24.6367 53.6151 25.6696C53.5307 25.786 53.544 25.9112 53.544 26.0379C53.5436 29.1093 53.5408 32.1807 53.5494 35.2521C53.55 35.49 53.5079 35.5692 53.253 35.5618C52.5473 35.5412 51.8405 35.5432 51.1347 35.5606C50.8788 35.567 50.796 35.5133 50.7969 35.233C50.8079 31.6777 50.8041 28.1224 50.8041 24.5671C50.8041 23.7474 50.8111 22.9276 50.7992 22.108C50.7963 21.9043 50.8434 21.8411 51.0544 21.8449C51.8094 21.8586 52.5649 21.8564 53.32 21.8458C53.5018 21.8433 53.5533 21.8916 53.5482 22.0755C53.5348 22.5545 53.5437 23.0341 53.5437 23.5716C53.7692 23.3555 53.9427 23.1745 54.1312 23.011C55.7194 21.6331 57.4902 21.1302 59.4862 21.9824C61.0691 22.6583 61.8873 23.9382 62.1179 25.6253C62.1553 25.8989 62.177 26.1746 62.2106 26.4766Z" fill="black"/>
<path d="M82.2893 26.7167C82.775 24.2838 84.5892 22.0572 87.3374 21.6605C89.071 21.4103 90.7048 21.6567 92.0939 22.8275C93.2705 23.8192 93.9046 25.1302 94.1915 26.6265C94.3163 27.2775 94.3539 27.9363 94.3763 28.5987C94.3865 28.9007 94.2862 28.9428 94.0173 28.9418C91.075 28.9318 88.1325 28.9356 85.1901 28.9356C84.7861 28.9356 84.7821 28.936 84.8303 29.3419C85.0191 30.9337 85.7581 32.1492 87.2358 32.8353C88.2232 33.2938 89.2676 33.2974 90.321 33.1566C91.7092 32.971 92.9512 32.4232 94.0809 31.6015C94.1758 31.6576 94.1292 31.7456 94.1296 31.8142C94.1337 32.5253 94.1224 33.2365 94.1382 33.9472C94.1428 34.1568 94.0618 34.2628 93.8999 34.3692C92.2461 35.4556 90.4153 35.8247 88.4702 35.755C87.4204 35.7174 86.3928 35.5623 85.48 35.0143C83.7062 33.9496 82.6518 32.3582 82.2562 30.3286C82.0235 29.1349 82.0456 27.9351 82.2893 26.7167Z" fill="black"/>
<path d="M72.9121 35.4647C71.6635 35.8363 70.4294 35.9396 69.1869 35.5565C67.6013 35.0677 66.6162 33.8101 66.5296 32.1464C66.3996 29.6503 66.4981 27.152 66.4787 24.6547C66.4765 24.3703 66.4312 24.2664 66.1211 24.2831C65.554 24.3138 64.9839 24.2969 64.4153 24.2872C64.3142 24.2855 64.1652 24.3723 64.1109 24.2142C64.0594 24.0644 64.1566 23.9593 64.2605 23.8576C64.816 23.3142 65.3667 22.7658 65.9195 22.2195C66.9479 21.2031 67.9765 20.187 69.0054 19.1711C69.0393 19.1376 69.0768 19.108 69.1138 19.0755C69.2045 19.1553 69.162 19.2499 69.1625 19.3311C69.1664 20.0716 69.1759 20.8125 69.1587 21.5526C69.1527 21.8066 69.2339 21.8573 69.4719 21.8549C70.7172 21.8424 71.9628 21.8554 73.2081 21.8433C73.4322 21.8411 73.4857 21.9022 73.4803 22.1218C73.4646 22.7533 73.4654 23.3857 73.48 24.0173C73.485 24.2326 73.4383 24.3002 73.2103 24.2979C71.9552 24.2852 70.6998 24.2984 69.4447 24.2859C69.2119 24.2836 69.1583 24.3478 69.1595 24.5764C69.171 26.7881 69.1699 28.9999 69.1731 31.2116C69.1735 31.4991 69.2149 31.7806 69.2923 32.058C69.5205 32.8759 70.0912 33.3304 70.9365 33.3616C72.0088 33.4012 72.9743 33.0502 73.8965 32.5408C73.9647 32.5032 74.0329 32.4658 74.1017 32.4293C74.1089 32.4255 74.1199 32.4288 74.1674 32.4288C74.1674 32.8269 74.1674 33.2252 74.1674 33.6236C74.1674 33.9297 74.1412 34.2387 74.1746 34.5411C74.2093 34.8555 74.0776 35.0126 73.8056 35.111C73.5119 35.2172 73.2239 35.3395 72.9121 35.4647Z" fill="black"/>
<path d="M102.242 24.4533C101.072 25.1377 100.502 26.1972 100.257 27.4714C100.194 27.8023 100.188 28.1379 100.188 28.4739C100.189 30.7347 100.184 32.9955 100.195 35.2563C100.196 35.504 100.136 35.5675 99.8909 35.5615C99.1657 35.5438 98.4398 35.5471 97.7144 35.5604C97.5141 35.5641 97.4782 35.4986 97.4784 35.3131C97.4834 30.9099 97.4838 26.5068 97.4775 22.1037C97.4772 21.8971 97.527 21.8402 97.7343 21.8441C98.4597 21.8577 99.1857 21.8614 99.9108 21.8427C100.158 21.8364 100.196 21.9249 100.193 22.1444C100.182 23.0523 100.189 23.9603 100.189 24.8721C100.304 24.8843 100.308 24.7832 100.344 24.7276C100.834 23.9521 101.364 23.2104 102.042 22.5849C103.296 21.4265 104.557 21.2705 106.047 22.0973C106.494 22.346 106.895 22.661 107.282 22.996C107.39 23.0899 107.41 23.1555 107.332 23.2847C106.913 23.9714 106.501 24.6625 106.096 25.3574C106.018 25.4906 105.977 25.4872 105.868 25.3882C105.453 25.0105 105.011 24.67 104.498 24.4341C103.75 24.0908 103.005 24.0707 102.242 24.4533Z" fill="black"/>
<path d="M27.1563 47.3002C27.1497 49.0068 27.1423 50.6851 27.1542 52.3632C27.1561 52.6274 27.087 52.7028 26.8282 52.6876C26.4374 52.6646 26.0435 52.6676 25.6523 52.6868C25.4144 52.6984 25.3358 52.6358 25.3384 52.3822C25.3518 51.1187 25.3445 49.855 25.3445 48.5914C25.3445 45.8667 25.3479 43.142 25.3389 40.4173C25.338 40.1679 25.4094 40.1059 25.6498 40.1091C26.6497 40.1222 27.65 40.1043 28.6499 40.1175C29.6812 40.1312 30.6476 40.3601 31.4677 41.043C32.304 41.7393 32.6258 42.6526 32.5951 43.7145C32.5549 45.1043 31.9034 46.0853 30.6357 46.6467C30.6014 46.662 30.572 46.6886 30.5245 46.7206C31.5835 47.4677 32.2485 48.5307 32.9126 49.5906C33.519 50.5586 34.1055 51.539 34.8048 52.4445C34.8494 52.5023 34.922 52.5528 34.9102 52.6809C34.261 52.6809 33.6098 52.6792 32.9585 52.6823C32.8192 52.683 32.7843 52.5707 32.7256 52.486C32.0473 51.5069 31.4189 50.4958 30.7977 49.4792C30.3748 48.7871 29.8518 48.1724 29.217 47.6618C28.6005 47.1661 27.893 47.1562 27.1563 47.3002Z" fill="black"/>
<path d="M84.9603 45.3761C85.1847 45.3231 85.2965 45.1172 85.4559 44.9715C86.5375 43.9822 88.4362 44.0069 89.424 45.0407C89.8574 45.4943 90.069 46.056 90.1492 46.6713C90.3262 48.0288 90.2239 49.3937 90.2473 50.7553C90.2568 51.308 90.2365 51.8615 90.2547 52.4138C90.2625 52.6475 90.1811 52.6955 89.97 52.6859C89.6079 52.6694 89.2438 52.6666 88.882 52.6867C88.6533 52.6993 88.6073 52.6171 88.6084 52.4022C88.6169 50.7632 88.6127 49.1242 88.6131 47.4852C88.6132 46.8679 88.447 46.3066 87.9743 45.8953C87.4251 45.4173 86.4481 45.447 85.8246 45.9237C85.7328 45.9938 85.6507 46.0775 85.5554 46.1418C85.0483 46.484 84.925 46.9538 84.9411 47.5599C84.9839 49.1681 84.9516 50.7782 84.9603 52.3876C84.9615 52.6096 84.9195 52.703 84.6752 52.6872C84.3236 52.6643 83.9684 52.6637 83.6169 52.6872C83.3583 52.7044 83.3158 52.6032 83.3166 52.3684C83.3245 49.7914 83.3216 47.2145 83.3216 44.6375C83.3216 43.2355 83.3293 41.8334 83.3148 40.4315C83.312 40.1629 83.3899 40.0934 83.6442 40.1093C83.9959 40.1314 84.3506 40.1279 84.7027 40.11C84.9164 40.0992 84.9608 40.1766 84.9599 40.378C84.9526 42.0368 84.9562 43.6955 84.9603 45.3761Z" fill="black"/>
<path d="M28.412 21.9933C29.5478 21.3219 30.6284 21.5361 31.6888 22.1261C32.1186 22.3653 32.4977 22.678 32.8722 22.9964C32.9845 23.0919 32.9903 23.1644 32.9127 23.2916C32.4989 23.9697 32.09 24.6511 31.6938 25.3397C31.594 25.5131 31.5403 25.4737 31.4241 25.3636C31.0522 25.0112 30.6429 24.7055 30.1838 24.4779C29.0201 23.901 27.8201 24.1558 26.9425 25.1485C26.1133 26.0865 25.7678 27.1987 25.766 28.4339C25.7628 30.7141 25.7612 32.9944 25.771 35.2746C25.772 35.51 25.7082 35.5653 25.4824 35.5607C24.7572 35.5458 24.0314 35.5499 23.3061 35.5589C23.1257 35.5611 23.0541 35.5299 23.0544 35.3221C23.061 30.9096 23.0603 26.4972 23.056 22.0847C23.0559 21.9113 23.0896 21.8424 23.2798 21.8451C24.0345 21.8558 24.7896 21.8562 25.5443 21.8447C25.731 21.8419 25.7709 21.8993 25.7692 22.0774C25.7605 23.0129 25.7651 23.9485 25.7651 24.9793C26.5194 23.8046 27.2528 22.7168 28.412 21.9933Z" fill="black"/>
<path d="M35.0652 33.4625C32.7648 30.9696 32.8653 26.8231 34.8123 24.4896C36.4871 22.4822 38.6535 21.6852 41.2016 21.8349C43.4433 21.9666 45.2576 22.9331 46.5945 24.7578C47.6101 26.1439 47.9426 27.7264 47.8516 29.4229C47.6639 32.9181 44.7898 35.4614 41.4736 35.7466C39.9504 35.8776 38.4852 35.7169 37.1023 35.0253C36.331 34.6395 35.6641 34.1124 35.0652 33.4625Z" fill="black"/>
<path d="M61.0573 46.3954C60.7609 46.6032 60.5305 46.8568 60.2344 47.1231C60.2344 46.5303 60.2359 45.9924 60.2333 45.4544C60.2328 45.3401 60.3078 45.2772 60.3755 45.2075C60.7907 44.7798 61.2896 44.5002 61.8683 44.3706C62.6458 44.1963 63.4221 44.1779 64.1872 44.4349C65.2425 44.7895 65.864 45.6161 65.8801 46.74C65.9006 48.1709 65.891 49.6022 65.8952 51.0334C65.8955 51.1418 65.8892 51.2525 65.9081 51.3581C65.9506 51.5962 66.088 51.694 66.3315 51.6256C66.5523 51.5635 66.7461 51.4509 66.9326 51.3227C67.0679 51.2296 67.1265 51.2631 67.1144 51.4267C67.1137 51.4365 67.1151 51.4465 67.1143 51.4563C67.0937 51.7088 67.2279 52.0386 67.059 52.1997C66.7268 52.5163 66.2963 52.7212 65.8315 52.7925C65.6116 52.8263 65.3789 52.8218 65.1578 52.7915C64.7122 52.7304 64.4168 52.4644 64.272 52.0073C63.737 52.4187 63.1636 52.6751 62.5219 52.7804C61.4003 52.9644 60.3872 52.3677 60.1424 51.3489C59.9167 50.4094 60.2506 49.6663 60.9814 49.0821C61.3613 48.7785 61.7957 48.5748 62.2522 48.4164C62.8627 48.2046 63.4706 47.9845 64.085 47.7849C64.2585 47.7285 64.3251 47.6451 64.304 47.4694C64.2934 47.3818 64.3025 47.2919 64.3015 47.2031C64.2887 46.0941 63.6037 45.7135 62.6434 45.7738C62.0611 45.8103 61.5461 46.0457 61.0573 46.3954Z" fill="black"/>
<path d="M45.3126 50.8211C45.8472 51.0978 46.3708 51.3361 46.9578 51.4009C47.3122 51.44 47.6416 51.3814 47.9454 51.1993C48.4777 50.8802 48.5314 50.3116 48.0635 49.8996C47.6999 49.5795 47.2675 49.3629 46.8527 49.1206C46.3353 48.8185 45.83 48.498 45.373 48.1062C44.4466 47.3119 44.2951 45.9746 45.0462 45.0928C45.468 44.5974 46.037 44.3527 46.6655 44.2773C47.6774 44.1561 48.632 44.3729 49.5314 44.8497C49.6237 44.8986 49.6917 44.9456 49.6903 45.0684C49.6849 45.5394 49.6881 46.0106 49.6881 46.5318C49.4816 46.4203 49.315 46.3256 49.1442 46.2391C48.5918 45.9591 48.0346 45.6909 47.3985 45.6741C47.2028 45.6689 47.008 45.6717 46.8174 45.7357C46.1987 45.9432 46.066 46.5239 46.5442 46.9742C46.7741 47.1908 47.0479 47.3488 47.3196 47.5071C47.9802 47.8919 48.6694 48.2329 49.2267 48.7752C49.6814 49.2176 50.0367 49.7122 50.0709 50.3799C50.1212 51.3637 49.601 52.1843 48.636 52.5644C47.6142 52.9668 46.5805 52.891 45.5612 52.5405C45.2114 52.4203 44.7773 52.3488 44.5728 52.0627C44.3905 51.8075 44.5322 51.3945 44.5206 51.0514C44.5132 50.8349 44.5192 50.6179 44.5192 50.3548C44.797 50.5181 45.0454 50.6641 45.3126 50.8211Z" fill="black"/>
<path d="M43.1549 48.3062C43.2142 48.6424 43.0747 48.7066 42.7842 48.7043C41.0788 48.6906 39.3732 48.7031 37.6677 48.6915C37.4159 48.6897 37.3619 48.7494 37.3925 49.0004C37.5525 50.313 38.5613 51.2329 39.8747 51.2706C40.9288 51.3008 41.8862 51.0206 42.7641 50.4422C42.8269 50.4008 42.8803 50.3358 42.9996 50.3399C42.9996 50.8196 42.9983 51.2982 43.0004 51.7766C43.0009 51.9028 42.9001 51.9378 42.8215 51.9887C41.6995 52.7155 40.4613 52.8824 39.1593 52.7753C37.1781 52.6123 35.8411 50.7698 35.7524 48.8957C35.7049 47.8925 35.8312 46.93 36.346 46.0445C37.6323 43.8319 40.4644 43.8734 41.7389 44.9606C42.6059 45.7001 42.9961 46.6706 43.1111 47.7787C43.1284 47.9455 43.14 48.1128 43.1549 48.3062Z" fill="black"/>
<path d="M53.892 52.5009C52.4908 51.798 51.7591 50.6405 51.5977 49.1285C51.4694 47.9261 51.6424 46.7752 52.3601 45.7439C53.7008 43.8174 56.7925 43.7405 58.0952 45.5152C58.7553 46.4145 58.9748 47.433 58.9577 48.526C58.9548 48.7101 58.8422 48.6979 58.7214 48.6977C58.2115 48.697 57.7016 48.6975 57.1918 48.6975C55.9465 48.6975 54.7013 48.7012 53.456 48.6939C53.2425 48.6926 53.1669 48.7255 53.2075 48.9735C53.4497 50.452 54.3866 51.2621 55.8723 51.2696C56.8427 51.2745 57.7239 50.9967 58.5344 50.4706C58.6002 50.4278 58.6653 50.3839 58.7323 50.343C58.747 50.3341 58.7682 50.3361 58.8238 50.3268C58.8238 50.8107 58.8206 51.2883 58.8257 51.7658C58.8272 51.9096 58.7143 51.9422 58.6292 51.9962C57.8592 52.4853 57.0166 52.7499 56.1085 52.7947C55.3608 52.8315 54.6189 52.8071 53.892 52.5009Z" fill="black"/>
<path d="M80.8754 51.0049C80.9794 50.9649 81.062 50.9339 81.1444 50.9025C81.4965 50.7687 81.4965 50.7687 81.4965 51.1637C81.4966 51.4994 81.4941 51.835 81.4978 52.1706C81.499 52.2872 81.4869 52.3805 81.3549 52.4244C80.0302 52.865 78.6902 53.0225 77.3539 52.5192C76.061 52.0321 75.2799 51.0654 75.0034 49.709C74.7606 48.5176 74.8336 47.3432 75.4214 46.2578C76.1226 44.9633 77.2394 44.3199 78.6979 44.2523C79.5474 44.213 80.3514 44.3788 81.1243 44.7279C81.2415 44.7808 81.3247 44.823 81.3226 44.9744C81.3154 45.4771 81.3199 45.98 81.3199 46.5285C81.0761 46.4017 80.8665 46.2848 80.6503 46.1817C79.9551 45.8499 79.2301 45.6382 78.4614 45.8327C77.3614 46.111 76.7485 46.8728 76.5772 47.9722C76.3825 49.222 76.7317 50.3314 77.8059 50.9325C78.4925 51.3167 79.2401 51.375 80.0023 51.2362C80.2901 51.1838 80.5702 51.0891 80.8754 51.0049Z" fill="black"/>
<path d="M77.6577 21.8514C77.9911 21.8514 78.2959 21.8652 78.5987 21.8467C78.8138 21.8336 78.8567 21.9159 78.8544 22.1155C78.8443 22.9841 78.85 23.8529 78.85 24.7217C78.85 28.2263 78.8473 31.7309 78.8558 35.2355C78.8565 35.4881 78.8072 35.5701 78.5398 35.5617C77.8346 35.5398 77.1281 35.5499 76.4223 35.5574C76.2485 35.5593 76.1659 35.5367 76.1663 35.3242C76.1729 30.9114 76.1727 26.4986 76.1667 22.0858C76.1664 21.8775 76.2439 21.8434 76.4224 21.8481C76.8241 21.8586 77.2263 21.8514 77.6577 21.8514Z" fill="#CB2026"/>
<path d="M70.3538 47.7077C70.2917 47.935 70.2977 48.1429 70.2977 48.35C70.2972 49.7019 70.2924 51.054 70.3025 52.4059C70.3041 52.6251 70.251 52.6987 70.0268 52.6867C69.6652 52.6673 69.301 52.6669 68.9394 52.6867C68.7071 52.6995 68.6468 52.6274 68.6477 52.3939C68.6566 50.0749 68.6531 47.7557 68.6531 45.4366C68.6531 45.1603 68.6617 44.8836 68.65 44.6078C68.6427 44.4377 68.7033 44.3863 68.8685 44.3903C69.2701 44.4001 69.6724 44.4026 70.0738 44.3894C70.2622 44.3832 70.3039 44.4562 70.3007 44.6298C70.2915 45.1426 70.2974 45.6556 70.2974 46.1733C70.4281 46.1849 70.4319 46.0666 70.4719 46.0061C70.7441 45.5945 71.03 45.1939 71.3959 44.8612C72.2048 44.1254 73.0211 44.0515 73.9465 44.6202C74.7098 45.0893 74.7096 45.0892 74.258 45.8492C74.1576 46.0182 74.0475 46.1826 73.9614 46.3588C73.8606 46.5651 73.7657 46.6213 73.5864 46.428C73.4747 46.3077 73.3273 46.218 73.1878 46.1271C72.365 45.5908 71.5075 45.7355 70.8985 46.5146C70.6283 46.8603 70.4436 47.2489 70.3538 47.7077Z" fill="black"/>
<path d="M15.6254 47.7037C13.5082 47.7037 11.4204 47.6963 9.33272 47.7122C9.0401 47.7145 9.02838 47.5976 9.02715 47.3703C9.02595 47.1497 9.04596 47.0442 9.31817 47.0448C13.6015 47.0548 17.8849 47.0562 22.1682 47.0429C22.4869 47.0419 22.4401 47.2008 22.4577 47.3996C22.4796 47.6458 22.3993 47.7107 22.1534 47.7096C19.9872 47.6994 17.821 47.7037 15.6254 47.7037Z" fill="black"/>
<path d="M107.183 47.6981C102.813 47.7027 98.4699 47.6988 94.1273 47.7127C93.8088 47.7137 93.8549 47.5555 93.8374 47.3563C93.8158 47.1104 93.8952 47.0456 94.1414 47.0461C98.3665 47.0541 102.592 47.0518 106.817 47.0518C107.276 47.0518 107.276 47.0519 107.261 47.505C107.258 47.5709 107.282 47.6459 107.183 47.6981Z" fill="black"/>
<path d="M77.2893 16.0992C78.0187 16.0267 78.6366 16.3551 78.9448 16.9617C79.2341 17.5312 79.1411 18.2321 78.7104 18.7271C78.2878 19.2129 77.6031 19.4082 77.0303 19.2062C76.3133 18.9535 75.8777 18.2713 75.9418 17.5014C75.9962 16.8474 76.5781 16.2329 77.2893 16.0992Z" fill="#CB2026"/>
<path d="M91.4068 25.8673C91.5607 26.2782 91.6355 26.6826 91.6892 27.095C91.7149 27.2921 91.6626 27.3234 91.4841 27.3223C90.3074 27.3153 89.1306 27.3187 87.9539 27.3187C86.9252 27.3187 85.8966 27.3187 84.8506 27.3187C85.0693 26.1471 85.4991 25.1336 86.509 24.4517C87.6069 23.7104 89.9706 23.5913 91.0396 25.1698C91.1839 25.3828 91.3046 25.6066 91.4068 25.8673Z" fill="black"/>
<path d="M30.6206 42.8704C31.0659 44.2578 30.3251 45.4096 28.903 45.5599C28.3962 45.6135 27.8861 45.6233 27.3757 45.6205C27.1922 45.6195 27.1434 45.5557 27.1443 45.3792C27.1504 44.214 27.1475 43.0487 27.1475 41.8834C27.1475 41.7646 27.1283 41.641 27.315 41.6446C27.9805 41.6573 28.6478 41.6242 29.306 41.7697C29.9263 41.9068 30.3638 42.2594 30.6206 42.8704Z" fill="#FDFDFD"/>
<path d="M39.6162 24.334C41.5641 24.0718 43.2263 24.553 44.3642 26.2134C45.3711 27.6827 45.4075 29.3056 44.6552 30.8818C43.9233 32.415 42.6076 33.1587 40.9281 33.2486C39.8234 33.3078 38.7772 33.1114 37.8601 32.4539C36.6842 31.6108 36.1131 30.4328 36.0758 28.9951C36.0284 27.1652 36.7061 25.7112 38.3213 24.7752C38.7133 24.5481 39.1423 24.4091 39.6162 24.334Z" fill="#FBFBFB"/>
<path d="M63.9113 48.7353C64.0416 48.6872 64.151 48.6485 64.3019 48.5953C64.3019 49.106 64.302 49.5931 64.302 50.0802C64.302 50.169 64.3102 50.2587 64.3004 50.3463C64.2716 50.6041 64.4137 50.9094 64.2176 51.1128C63.9059 51.4359 63.5061 51.6339 63.0484 51.672C62.4102 51.7251 61.9428 51.4638 61.7651 50.9648C61.5607 50.3911 61.7552 49.8485 62.2932 49.4784C62.7839 49.1409 63.3475 48.9662 63.9113 48.7353Z" fill="#FDFDFD"/>
<path d="M37.7886 46.6162C38.4578 45.4522 40.1352 45.4579 40.8396 46.081C41.2785 46.4692 41.4605 46.9727 41.5241 47.5368C41.5391 47.6697 41.4803 47.7055 41.3572 47.7053C40.0951 47.7025 38.8331 47.7018 37.571 47.7059C37.4076 47.7065 37.4063 47.6462 37.4388 47.5101C37.5126 47.2016 37.6141 46.9068 37.7886 46.6162Z" fill="#FDFDFD"/>
<path d="M55.5874 47.7038C54.8625 47.7038 54.1669 47.6963 53.4717 47.7081C53.2452 47.712 53.2162 47.6494 53.2734 47.4378C53.4982 46.6065 53.9074 45.9331 54.8004 45.7389C56.164 45.4424 57.1261 46.0515 57.344 47.4587C57.3749 47.6581 57.3103 47.7127 57.1154 47.7079C56.6162 47.6957 56.1164 47.7038 55.5874 47.7038Z" fill="#FDFDFD"/>
<path d="M86.0177 26.9034C85.7931 26.9034 85.5974 26.9034 85.3936 26.9034C85.5389 26.2619 85.8113 25.6829 86.2582 25.2233C86.7183 24.75 87.303 24.4981 87.9706 24.404C88.4795 24.3322 88.9554 24.3947 89.4357 24.5324C90.2497 24.7657 90.7341 25.3455 91.0123 26.1087C91.2996 26.8968 91.2817 26.9034 90.4525 26.9034C88.9839 26.9034 87.5153 26.9034 86.0177 26.9034Z" fill="#FFC3B1"/>
<path d="M30.1827 43.0116C30.5674 43.9789 30.036 45.029 28.9103 45.1079C28.5228 45.135 28.1365 45.1366 27.7501 45.1578C27.6086 45.1656 27.5691 45.12 27.5701 44.9777C27.5762 44.071 27.5737 43.1643 27.5725 42.2576C27.5724 42.1554 27.5599 42.0693 27.715 42.0711C28.263 42.0773 28.8063 42.0983 29.3407 42.2471C29.7471 42.3602 30.0322 42.5874 30.1827 43.0116Z" fill="#FFC3B1"/>
<path d="M44.0385 31.0942C43.4764 31.9578 42.6823 32.4723 41.7305 32.6992C40.7142 32.9416 39.7043 32.8712 38.7302 32.4301C37.6586 31.9448 36.9608 31.1204 36.6602 30.0071C36.3641 28.9105 36.4299 27.8005 36.9751 26.7758C37.5737 25.6507 38.4984 24.9609 39.773 24.7682C40.7371 24.6225 41.6661 24.7096 42.5347 25.1706C43.7519 25.8167 44.4653 26.8163 44.6475 28.2115C44.7827 29.2479 44.5853 30.1927 44.0385 31.0942Z" fill="#FFC3B1"/>
<path d="M62.6941 49.7607C63.0799 49.5561 63.4524 49.3746 63.8855 49.2326C63.8855 49.7518 63.8863 50.2494 63.8838 50.747C63.8836 50.7817 63.8656 50.8205 63.8456 50.8503C63.6161 51.1916 62.7352 51.3502 62.4116 51.1071C61.9422 50.7547 62.112 50.1807 62.4098 49.9345C62.4888 49.8692 62.5875 49.8279 62.6941 49.7607Z" fill="#FFC3B1"/>
<path d="M38.0867 46.9834C38.494 46.0759 39.7826 45.8253 40.5546 46.4151C40.8334 46.6281 40.9539 46.9431 41.0267 47.2887C40.095 47.2887 39.1652 47.2784 38.236 47.2946C37.9403 47.2998 37.9471 47.1999 38.0867 46.9834Z" fill="#FFC3B1"/>
<path d="M53.9229 46.9769C54.2504 46.2306 55.1312 45.9995 55.7779 46.1424C56.2887 46.2552 56.602 46.5688 56.7871 47.043C56.8481 47.1991 56.86 47.2931 56.6406 47.2915C55.6916 47.2849 54.7424 47.2887 53.7742 47.2887C53.823 47.1817 53.8657 47.0879 53.9229 46.9769Z" fill="#FFC3B1"/>
</svg>
