<svg width="32" height="28" viewBox="0 0 32 28" fill="none" xmlns="http://www.w3.org/2000/svg">
<path d="M21.5657 15.7897C22.1806 15.7897 22.6903 16.0937 23.1337 16.6949C23.5726 17.3006 23.8057 18.0389 23.8057 18.9234C23.8057 19.8034 23.5726 20.5486 23.1337 21.1474C22.6926 21.7531 22.1806 22.0526 21.5657 22.0526C20.9303 22.0526 20.3726 21.7531 19.9314 21.1474C19.4926 20.5486 19.2594 19.8034 19.2594 18.9234C19.2594 18.0389 19.4926 17.3006 19.9314 16.6949C20.3703 16.0914 20.928 15.7897 21.5657 15.7897ZM29.4286 7.65486C31.1337 9.50857 32 11.7577 32 14.4046C32 16.1143 31.8034 17.6571 31.408 19.0286C31.008 20.3931 30.5074 21.5063 29.9131 22.3634C29.2994 23.2334 28.5473 23.997 27.6869 24.624C26.9381 25.1985 26.1203 25.6769 25.2526 26.048C24.4331 26.37 23.5819 26.6044 22.7131 26.7474C22.0001 26.8791 21.2806 26.9729 20.5577 27.0286L18.992 27.0606L17.7417 27.0949C16.5811 27.1452 15.4189 27.1452 14.2583 27.0949L13.008 27.0606L11.4423 27.0286C10.7193 26.973 9.99985 26.8792 9.28686 26.7474C8.4174 26.6076 7.56585 26.3731 6.74743 26.048C5.87991 25.6779 5.06274 25.1994 4.31543 24.624C3.45373 23.9977 2.70084 23.234 2.08686 22.3634C1.49029 21.5063 0.992 20.3931 0.592 19.0286C0.196571 17.6571 0 16.1143 0 14.4046C0 11.7577 0.866286 9.50628 2.57143 7.65486C2.384 7.56114 2.37714 6.63314 2.55314 4.87314C2.67508 3.19988 3.05679 1.55581 3.68457 0C5.81943 0.226286 8.46171 1.43771 11.6183 3.61371C12.6834 3.34171 14.1349 3.19543 16 3.19543C17.9474 3.19543 19.408 3.34171 20.384 3.616C21.8217 2.64457 23.1954 1.85371 24.5097 1.25257C25.8446 0.656 26.8069 0.301714 27.4103 0.208L28.3154 0.00228555C28.9326 1.48571 29.3074 3.11086 29.4491 4.87543C29.6229 6.63314 29.616 7.56114 29.4286 7.65486ZM16.0686 25.5291C19.9269 25.5291 22.8206 25.0674 24.8023 24.1417C26.7566 23.2183 27.7554 21.312 27.7554 18.4366C27.7554 16.768 27.1314 15.3737 25.8766 14.2583C25.2538 13.6664 24.4651 13.2788 23.616 13.1474C22.7589 13.008 21.4469 13.008 19.6846 13.1474C17.9269 13.2891 16.7177 13.3531 16.0686 13.3531C15.1886 13.3531 14.24 13.312 13.0537 13.2183C11.8651 13.1269 10.9326 13.0697 10.2583 13.04C9.52077 13.0271 8.78471 13.1101 8.06857 13.2869C7.34712 13.441 6.67641 13.7752 6.11886 14.2583C4.928 15.3303 4.31314 16.72 4.31314 18.4366C4.31314 21.312 5.28686 23.2183 7.23886 24.1417C9.18171 25.0674 12.0686 25.5291 15.9291 25.5291H16.0686ZM10.5051 15.7897C11.1177 15.7897 11.6297 16.0937 12.0709 16.6949C12.5097 17.3006 12.7429 18.0389 12.7429 18.9234C12.7429 19.8034 12.5097 20.5486 12.0709 21.1474C11.632 21.7531 11.1177 22.0526 10.5051 22.0526C9.86743 22.0526 9.312 21.7531 8.86857 21.1474C8.42972 20.5486 8.19657 19.8034 8.19657 18.9234C8.19657 18.0389 8.42972 17.3006 8.86857 16.6949C9.30972 16.0914 9.86514 15.7897 10.5051 15.7897Z" fill="#D5775A"/>
</svg>
