<svg width="2492" height="2155" viewBox="0 0 2492 2155" fill="none" xmlns="http://www.w3.org/2000/svg">
<path fill-rule="evenodd" clip-rule="evenodd" d="M1639.75 305.916C1886.89 385.706 2218.43 256.813 2391.79 450.179C2552.81 629.784 2488.4 934.313 2406.17 1160.79C2331.02 1367.74 2120.99 1482.04 1961.87 1634.21C1837.33 1753.32 1720.01 1872.23 1571.24 1959.28C1415.37 2050.49 1255.15 2168.77 1075.1 2153.09C895.865 2137.49 767.955 1982.07 622.094 1876.67C483.401 1776.44 340.081 1686.44 238.66 1548.66C125.264 1394.6 -19.6876 1225.83 3.3779 1036.11C26.5282 845.687 254.815 756.674 354.837 593.048C458.526 423.423 432.752 168.265 599.808 60.4072C765.382 -46.4936 989.4 14.0696 1181.39 59.3945C1353.14 99.9398 1471.81 251.696 1639.75 305.916Z" fill="#FFB8B8"/>
</svg>
