<svg width="283" height="283" viewBox="0 0 283 283" fill="none" xmlns="http://www.w3.org/2000/svg">
<mask id="mask0_15_229" style="mask-type:luminance" maskUnits="userSpaceOnUse" x="107" y="40" width="122" height="154">
<path d="M107.561 40.0032H228.372V193.195H107.561V40.0032Z" fill="white"/>
</mask>
<g mask="url(#mask0_15_229)">
<path d="M174.862 192.257C186.544 191.116 197.46 187.399 206.127 181.609C210.484 178.7 216.628 172.674 219.298 168.694C223.202 162.875 226.037 155.886 227.553 148.336C228.139 145.412 228.213 140.277 228.334 92.5498L228.466 39.9855H192.449V88.1161C192.449 119.756 192.31 137.488 192.045 139.879C191.567 144.156 190.161 149.268 188.732 151.915C186.939 155.237 183.632 158.397 180.183 160.087C170.69 164.732 156.8 163.061 150.217 156.475C146.862 153.124 144.56 147.723 143.593 140.952C143.357 139.298 143.213 119.827 143.207 89.1449L143.198 39.9884H107.587V89.7669C107.587 139.708 107.684 143.926 108.961 150.235C112.115 165.817 121.837 178.219 136.718 185.648C147.626 191.093 161.749 193.542 174.862 192.26V192.257Z" fill="black"/>
</g>
<mask id="mask1_15_229" style="mask-type:luminance" maskUnits="userSpaceOnUse" x="0" y="40" width="36" height="154">
<path d="M0 40.0032H35.4045V193.575H0V40.0032Z" fill="white"/>
</mask>
<g mask="url(#mask1_15_229)">
<path d="M0 40.0032H35.4045V193.575H0V40.0032Z" fill="black"/>
</g>
<mask id="mask2_15_229" style="mask-type:luminance" maskUnits="userSpaceOnUse" x="32" y="97" width="73" height="33">
<path d="M32.8044 97.0277H104.356V129.007H32.8044V97.0277Z" fill="white"/>
</mask>
<g mask="url(#mask2_15_229)">
<path d="M32.8044 129.007V97.0277H104.356V129.007H32.8044Z" fill="black"/>
</g>
<mask id="mask3_15_229" style="mask-type:luminance" maskUnits="userSpaceOnUse" x="107" y="122" width="36" height="72">
<path d="M107.561 122.011H142.962V193.563H107.561V122.011Z" fill="white"/>
</mask>
<g mask="url(#mask3_15_229)">
<path d="M142.962 193.563H107.561V122.011H142.962V193.563Z" fill="black"/>
</g>
<path d="M233.993 171.601C232.272 171.601 230.789 172.237 229.548 173.511C228.312 174.784 227.696 176.317 227.696 178.11C227.696 179.935 228.312 181.482 229.548 182.756C230.789 184.029 232.272 184.666 233.993 184.666C234.819 184.666 235.6 184.566 236.34 184.359C237.077 184.147 237.619 183.941 237.967 183.734L238.427 183.428L241.528 189.772C241.283 189.946 240.944 190.161 240.514 190.42C240.089 190.68 239.111 191.033 237.578 191.481C236.045 191.93 234.4 192.154 232.649 192.154C228.758 192.154 225.341 190.786 222.402 188.05C219.46 185.314 217.992 182.036 217.992 178.216C217.992 174.357 219.46 171.044 222.402 168.275C225.341 165.502 228.758 164.113 232.649 164.113C234.4 164.113 236.015 164.322 237.495 164.738C238.981 165.148 240.033 165.56 240.655 165.976L241.528 166.601L238.427 172.839C237.295 172.013 235.815 171.601 233.993 171.601Z" fill="black"/>
<path d="M242.888 188.227C239.946 185.609 238.478 182.255 238.478 178.157C238.478 174.062 240.005 170.699 243.065 168.063C246.131 165.431 249.916 164.113 254.42 164.113C258.86 164.113 262.604 165.443 265.646 168.099C268.694 170.749 270.221 174.106 270.221 178.169C270.221 182.225 268.729 185.571 265.752 188.203C262.78 190.839 259.001 192.154 254.42 192.154C249.671 192.154 245.827 190.845 242.888 188.227ZM249.963 173.664C248.775 174.838 248.182 176.335 248.182 178.157C248.182 179.982 248.748 181.47 249.88 182.626C251.018 183.782 252.516 184.359 254.373 184.359C256.165 184.359 257.633 183.776 258.783 182.602C259.939 181.432 260.516 179.949 260.516 178.157C260.516 176.335 259.921 174.838 258.736 173.664C257.548 172.494 256.095 171.907 254.373 171.907C252.619 171.907 251.148 172.494 249.963 173.664Z" fill="black"/>
<path d="M275.531 180.327C277.182 180.327 278.579 180.904 279.729 182.06C280.885 183.21 281.462 184.613 281.462 186.27C281.462 187.882 280.885 189.265 279.729 190.42C278.579 191.576 277.182 192.154 275.531 192.154C273.91 192.154 272.524 191.576 271.369 190.42C270.219 189.265 269.647 187.882 269.647 186.27C269.647 184.613 270.219 183.21 271.369 182.06C272.524 180.904 273.91 180.327 275.531 180.327Z" fill="black"/>
<path d="M38.8496 223.989V233.623H33.3783V209.604H38.8496V219.178H46.5968V209.604H52.0681V233.623H46.5968V223.989H38.8496Z" fill="black"/>
<path d="M55.7677 210.37C56.3721 209.766 57.0914 209.462 57.9256 209.462C58.7569 209.462 59.4733 209.766 60.0717 210.37C60.676 210.968 60.9797 211.685 60.9797 212.516C60.9797 213.35 60.676 214.07 60.0717 214.674C59.4733 215.272 58.7569 215.57 57.9256 215.57C57.0914 215.57 56.3721 215.272 55.7677 214.674C55.1693 214.07 54.8716 213.35 54.8716 212.516C54.8716 211.685 55.1693 210.968 55.7677 210.37ZM55.2725 218.683V233.623H60.4255V218.683H55.2725Z" fill="black"/>
<path d="M63.7739 233.623V218.683H68.9269V220.841H68.9858C69.0242 220.764 69.0861 220.67 69.1745 220.558C69.26 220.44 69.4487 220.237 69.7405 219.945C70.0294 219.656 70.3419 219.391 70.6721 219.155C71.0022 218.919 71.4297 218.713 71.9573 218.53C72.4821 218.341 73.0186 218.247 73.561 218.247C74.1182 218.247 74.6694 218.326 75.2118 218.483C75.7602 218.642 76.1611 218.798 76.4146 218.954L76.8155 219.178L74.6694 223.553C74.0238 223.011 73.1277 222.739 71.9809 222.739C71.3589 222.739 70.8253 222.878 70.3773 223.152C69.9351 223.42 69.6226 223.748 69.4339 224.131C69.2512 224.517 69.1214 224.847 69.0448 225.121C68.9652 225.398 68.9269 225.611 68.9269 225.758V233.623H63.7739Z" fill="black"/>
<path d="M78.4771 210.37C79.0814 209.766 79.8007 209.462 80.635 209.462C81.4663 209.462 82.1826 209.766 82.7811 210.37C83.3854 210.968 83.689 211.685 83.689 212.516C83.689 213.35 83.3854 214.07 82.7811 214.674C82.1826 215.272 81.4663 215.57 80.635 215.57C79.8007 215.57 79.0814 215.272 78.4771 214.674C77.8787 214.07 77.5809 213.35 77.5809 212.516C77.5809 211.685 77.8787 210.968 78.4771 210.37ZM77.9818 218.683V233.623H83.1348V218.683H77.9818Z" fill="black"/>
<path d="M86.4833 233.623V218.683H91.6362V220.263H91.6952C93.0306 218.919 94.4574 218.247 95.9756 218.247C96.7125 218.247 97.4436 218.347 98.1688 218.542C98.8999 218.739 99.5986 219.043 100.268 219.45C100.934 219.85 101.476 220.428 101.895 221.183C102.319 221.932 102.532 222.795 102.532 223.777V233.623H97.3788V225.18C97.3788 224.402 97.1312 223.724 96.6359 223.14C96.1407 222.56 95.4921 222.268 94.6903 222.268C93.9179 222.268 93.2163 222.571 92.5796 223.176C91.9487 223.774 91.6362 224.443 91.6362 225.18V233.623H86.4833Z" fill="black"/>
<path d="M104.765 237.29L108.986 235.227C109.764 236.506 111.115 237.149 113.043 237.149C113.93 237.149 114.755 236.86 115.519 236.288C116.288 235.713 116.674 234.832 116.674 233.647V232.55C115.761 233.558 114.13 234.059 111.781 234.059C109.626 234.059 107.848 233.299 106.451 231.772C105.06 230.248 104.364 228.382 104.364 226.171C104.364 223.954 105.06 222.079 106.451 220.546C107.848 219.013 109.626 218.247 111.781 218.247C113.706 218.247 115.31 218.842 116.592 220.027H116.674V218.683H121.827V234.036C121.827 236.456 121.02 238.328 119.41 239.649C117.798 240.969 115.675 241.63 113.043 241.63C108.765 241.63 106.006 240.182 104.765 237.29ZM110.838 223.636C110.168 224.296 109.835 225.142 109.835 226.171C109.835 227.203 110.154 228.043 110.79 228.694C111.433 229.34 112.279 229.661 113.326 229.661C114.34 229.661 115.168 229.331 115.814 228.671C116.465 228.01 116.792 227.179 116.792 226.171C116.792 225.142 116.456 224.296 115.79 223.636C115.121 222.975 114.298 222.645 113.326 222.645C112.335 222.645 111.504 222.975 110.838 223.636Z" fill="black"/>
<path d="M143.485 209.604V225.098C143.485 228.046 142.689 230.28 141.103 231.795C139.514 233.305 137.182 234.059 134.111 234.059C131.045 234.059 128.713 233.305 127.118 231.795C125.529 230.28 124.736 228.046 124.736 225.098V209.604H130.219V223.494C130.219 225.437 130.52 226.784 131.127 227.539C131.741 228.293 132.734 228.671 134.111 228.671C135.493 228.671 136.487 228.293 137.094 227.539C137.707 226.784 138.014 225.437 138.014 223.494V209.604H143.485Z" fill="black"/>
<path d="M146.401 233.623V218.683H151.554V220.263H151.613C152.949 218.919 154.375 218.247 155.894 218.247C156.978 218.247 157.996 218.471 158.948 218.919C159.897 219.367 160.616 220.057 161.106 220.982C162.621 219.161 164.272 218.247 166.058 218.247C167.644 218.247 169.012 218.695 170.162 219.591C171.308 220.487 171.883 221.885 171.883 223.777V233.623H166.718V225.18C166.718 224.387 166.497 223.724 166.058 223.188C165.625 222.654 164.973 222.386 164.101 222.386C163.346 222.386 162.768 222.616 162.367 223.07C161.972 223.527 161.757 224.072 161.719 224.709V233.623H156.566V225.18C156.566 224.387 156.345 223.724 155.905 223.188C155.472 222.654 154.821 222.386 153.948 222.386C153.146 222.386 152.545 222.633 152.144 223.129C151.749 223.624 151.554 224.21 151.554 224.886V233.623H146.401Z" fill="black"/>
<path d="M175.802 231.772C174.411 230.248 173.715 228.382 173.715 226.171C173.715 223.954 174.411 222.079 175.802 220.546C177.2 219.013 178.977 218.247 181.132 218.247C183.113 218.247 184.743 218.869 186.026 220.11V218.683H191.179V233.623H186.085V231.937H186.026C184.743 233.352 183.113 234.059 181.132 234.059C178.977 234.059 177.2 233.299 175.802 231.772ZM180.189 223.636C179.52 224.296 179.186 225.142 179.186 226.171C179.186 227.203 179.505 228.043 180.142 228.694C180.784 229.34 181.63 229.661 182.677 229.661C183.691 229.661 184.519 229.331 185.165 228.671C185.816 228.01 186.144 227.179 186.144 226.171C186.144 225.142 185.807 224.296 185.141 223.636C184.472 222.975 183.65 222.645 182.677 222.645C181.686 222.645 180.855 222.975 180.189 223.636Z" fill="black"/>
<path d="M194.382 233.623V218.683H199.535V220.841H199.594C199.633 220.764 199.694 220.67 199.783 220.558C199.868 220.44 200.057 220.237 200.349 219.945C200.638 219.656 200.95 219.391 201.28 219.155C201.611 218.919 202.038 218.713 202.566 218.53C203.09 218.341 203.627 218.247 204.169 218.247C204.727 218.247 205.278 218.326 205.82 218.483C206.369 218.642 206.769 218.798 207.023 218.954L207.424 219.178L205.278 223.553C204.632 223.011 203.736 222.739 202.589 222.739C201.967 222.739 201.434 222.878 200.986 223.152C200.543 223.42 200.231 223.748 200.042 224.131C199.86 224.517 199.73 224.847 199.653 225.121C199.574 225.398 199.535 225.611 199.535 225.758V233.623H194.382Z" fill="black"/>
<path d="M223.547 222.468C222.58 222.468 221.746 222.831 221.047 223.553C220.346 224.269 219.998 225.13 219.998 226.135C219.998 227.167 220.346 228.043 221.047 228.765C221.746 229.481 222.58 229.838 223.547 229.838C224.01 229.838 224.449 229.779 224.868 229.661C225.292 229.543 225.599 229.431 225.788 229.319L226.059 229.142L227.804 232.715C227.663 232.818 227.468 232.945 227.226 233.093C226.99 233.234 226.439 233.432 225.575 233.682C224.709 233.933 223.783 234.059 222.793 234.059C220.599 234.059 218.671 233.29 217.015 231.748C215.355 230.201 214.527 228.349 214.527 226.194C214.527 224.025 215.355 222.159 217.015 220.593C218.671 219.031 220.599 218.247 222.793 218.247C223.783 218.247 224.694 218.365 225.528 218.601C226.36 218.836 226.955 219.069 227.309 219.296L227.804 219.65L226.059 223.176C225.413 222.704 224.576 222.468 223.547 222.468Z" fill="black"/>
<path d="M228.572 231.854C226.913 230.378 226.084 228.482 226.084 226.171C226.084 223.86 226.945 221.961 228.667 220.475C230.394 218.99 232.534 218.247 235.081 218.247C237.581 218.247 239.686 218.999 241.402 220.499C243.123 221.994 243.984 223.883 243.984 226.171C243.984 228.458 243.141 230.345 241.461 231.831C239.786 233.317 237.658 234.059 235.081 234.059C232.399 234.059 230.229 233.325 228.572 231.854ZM232.558 223.636C231.889 224.296 231.556 225.142 231.556 226.171C231.556 227.203 231.874 228.043 232.511 228.694C233.153 229.34 234 229.661 235.046 229.661C236.06 229.661 236.888 229.331 237.534 228.671C238.186 228.01 238.513 227.179 238.513 226.171C238.513 225.142 238.177 224.296 237.51 223.636C236.841 222.975 236.019 222.645 235.046 222.645C234.056 222.645 233.224 222.975 232.558 223.636Z" fill="black"/>
<path d="M246.99 227.397C247.916 227.397 248.706 227.724 249.36 228.376C250.012 229.021 250.339 229.811 250.339 230.746C250.339 231.66 250.012 232.441 249.36 233.092C248.706 233.735 247.916 234.059 246.99 234.059C246.076 234.059 245.295 233.735 244.644 233.092C243.989 232.441 243.665 231.66 243.665 230.746C243.665 229.811 243.989 229.021 244.644 228.376C245.295 227.724 246.076 227.397 246.99 227.397Z" fill="black"/>
</svg>
