<svg height="2070.18" viewBox="0 0 3334.547 2070.18" width="3334.547" xmlns="http://www.w3.org/2000/svg"><path d="m2041.603 1444.03h-738.66c30.49-72.2 84.36-167.25 129.75-220.76l-5.56-41.77-4.39-33-15.08-113.29-39.72-298.51-234.21-60.48c7.58-20.69 17-40.86 29.31-60.28 65.75-103.66 170.1-125.08 282.17-142.99 74.02-11.83 148.04-23.66 222.06-35.49l318.66 50.93c86.15 13.77 158.98 67.43 198.45 142.2l-217.77 106.11-32.62 245.07-22.189 166.73-4.39 33-5.56 41.77c55.4 53.51 109.27 148.56 139.75 220.76z" fill="#d6795e"/><path d="m1684.497 1833.065 126.368-63.817c99.408-50.199 170.913-67.667 282.078-60.938l388.598 23.557c1.861.111 3.707.073 5.507-.112 14.464-1.483 26.637-12.18 29.64-26.822 5.795-28.288-10.628-56.411-38.114-65.264 0 0-479.905-172.856-567.935-188.529-68.171-12.128-139.102 9.009-170.741 84.141-4.329 10.303-16.914 41.379-16.914 41.379l-88.374 46.455 49.888 209.95z" fill="#fae2ce"/><path d="m1928.356 1367.511c282.02 73.146 483.829 164.438 694.493 285.686 92.888 53.462 142.874 158.938 125.305 264.663-15.56 93.637-101.431 158.901-195.816 148.824l-989.756-105.667 168.714-432.987-7.499-141.29 204.558-19.23z" fill="#e51b26"/><path d="m1416.199 1367.511c-282.02 73.146-483.829 164.438-694.493 285.686-92.888 53.462-142.874 158.938-125.305 264.663 15.629 94.051 101.132 160.143 196.086 151.572l979.797-88.45 135.113-470.86-491.198-142.612z" fill="#e51b26"/><path d="m2057.603 1453.03-390.33 58.27-378.33-67.27c31.02-73.47 86.26-170.59 132.13-223.54 283.379 70.453 213.431 68.347 495.58-.76 32.769 34.415 72.867 97.135 104.18 156.49 13.135 24.794 26.085 51.507 36.77 76.81z" fill="#e51b26"/><path d="m1667.273 1344.23c-.39 0-.779-.045-1.16-.137l-284.504-67.879c-2.686-.641-4.344-3.338-3.703-6.023.641-2.686 3.337-4.346 6.023-3.703l283.344 67.602 288.346-68.797c2.686-.644 5.383 1.017 6.023 3.703.641 2.686-1.017 5.383-3.703 6.023l-289.506 69.074c-.381.091-.771.137-1.16.137z" fill="#3c191e"/><path d="m1310.603 1401.83c-2.761 0-5.005-2.239-5.005-5 0-2.337 1.6-4.3 3.766-4.848 4.946-1.464 9.913-2.928 14.898-4.382l2.956-.857c9.092-2.636 18.659-5.359 28.418-8.088l.284-.083c.025-.007.051-.015.076-.022.054-.017.108-.033.162-.048l3.043-.846c1.373-.382 2.747-.766 4.122-1.145 2.661-.731 5.416.827 6.15 3.489.735 2.662-.828 5.416-3.489 6.15-1.367.377-2.734.758-4.099 1.138l-2.953.821c-.049.015-.1.03-.154.046-.141.042-.289.084-.437.126-9.74 2.724-19.276 5.438-28.355 8.07l-2.95.856c-5.006 1.46-10.02 2.938-15.014 4.417-.46.136-.938.206-1.419.206zm45.293-23.249s-.004.002-.007.002c.002 0 .005-.001.007-.002zm.248-.073s-.002 0-.003 0zm.009-.002s-.004 0-.006.001c.002 0 .004 0 .006-.001z" fill="#3c191e"/><path d="m1751.644 1918.15c-2.144 0-4.125-1.389-4.781-3.546l-103.687-340.797-686.578 121.913c-2.719.484-5.314-1.33-5.797-4.049s1.33-5.314 4.049-5.797l690.945-122.688c2.487-.44 4.921 1.046 5.658 3.468l104.977 345.04c.804 2.642-.686 5.436-3.328 6.239-.484.147-.975.218-1.457.218z" fill="#3c191e"/><path d="m2059.283 1628.98-52.39 198.01-340.46-74.65-55.21-12.11c-14.41-3.16-28.89-5.95-43.42-8.38-95.09-15.89-192.25-16.06-287.59-.42l-248.18 40.74-135.99 22.32c-1.84.3-3.68.45-5.49.45-14.54 0-27.74-9.4-32.22-23.66-8.65-27.55 4.82-57.2 31.26-68.81 0 0 18.7-8.39 49.27-22.1 94.63-42.47 302.92-135.99 421.49-189.45 33.93-15.29 60.53-27.31 74.99-33.91 63-28.73 136.96-28.93 186.32 35.95 1.13 1.49 2.64 3.58 4.35 6.02 8.54 12.09 22.34 32.84 22.34 32.84l3.44.81 100.83 23.84z" fill="#fae2ce"/><path d="m1032.033 1772.17-135.99 22.32c-1.84.3-3.68.45-5.49.45-14.54 0-27.74-9.4-32.22-23.66-8.65-27.55 4.82-57.2 31.26-68.81 0 0 18.7-8.39 49.27-22.1 49.52 13.03 86.81 47.5 93.17 91.8z" fill="#d2c1f0"/><path d="m1626.014 1498.98c-10.95 42.67-56.021 71.22-115.49 75.33-66.1 4.58-125.08-37.31-150.17-83.39 33.93-15.29 60.53-27.31 74.99-33.91 63-28.73 136.96-28.93 186.32 35.95 1.13 1.49 2.64 3.58 4.35 6.02z" fill="#d2c1f0"/><path d="m1752.623 1556.47-86.19 195.87-55.21-12.11c-14.41-3.16-28.89-5.95-43.42-8.38l111.5-192.715z" fill="#3c191e"/><path d="m2748.153 1917.86c-15.59 93.79-101.61 158.88-195.81 148.83l-989.76-105.67-33.66-3.59 172.37-437.4 309.4 70.66 710.2 163.34c26.4 49 36.81 106.38 27.26 163.83z" fill="#e51b26"/><path d="m1827.86 1996c-.178 0-.356-.009-.537-.029l-299.56-31.98c-1.554-.166-2.94-1.048-3.749-2.385-.808-1.337-.945-2.976-.369-4.428l.63-1.59 172.367-437.392c.906-2.299 3.354-3.589 5.765-3.042l792.38 180.96c2.692.615 4.376 3.295 3.761 5.988-.613 2.692-3.296 4.375-5.987 3.761l-788.19-180.003-169.014 428.884 293.03 31.283c2.745.293 4.733 2.757 4.44 5.502-.273 2.565-2.442 4.47-4.966 4.47z" fill="#3c191e"/><path d="m2039.906 1404.481c-.471 0-.949-.067-1.424-.208-4.71-1.396-9.449-2.784-14.208-4.16-8.484-2.469-17.354-5.001-26.37-7.529-2.406-.679-4.805-1.346-7.201-2.002-.589-.172-1.09-.31-1.592-.449l-.675-.188c-5.101-1.415-10.243-2.823-15.416-4.23-2.664-.726-4.236-3.473-3.511-6.138s3.467-4.239 6.138-3.512c5.187 1.412 10.345 2.824 15.473 4.246l.662.185c.549.152 1.096.304 1.648.465 2.337.64 4.759 1.313 7.182 1.997 9.039 2.534 17.94 5.076 26.448 7.551 4.773 1.381 9.534 2.774 14.266 4.177 2.647.785 4.157 3.567 3.372 6.215-.645 2.173-2.636 3.58-4.792 3.58z" fill="#3c191e"/><path d="m1667.273 1426.84c-2.761 0-5-2.239-5-5v-142.61c0-2.761 2.239-5 5-5s5 2.239 5 5v142.61c0 2.761-2.239 5-5 5z" fill="#3c191e"/><path d="m1702.607 1316.837c-10.651 0-19.316-8.666-19.316-19.317s8.666-19.317 19.316-19.317 19.317 8.666 19.317 19.317-8.666 19.317-19.317 19.317zm0-28.634c-5.137 0-9.316 4.18-9.316 9.317s4.179 9.317 9.316 9.317 9.317-4.18 9.317-9.317-4.18-9.317-9.317-9.317z" fill="#3c191e"/><path d="m2370.547 1675.181c-1.601 0-3.172-.766-4.14-2.189-1.553-2.284-.96-5.394 1.323-6.946l47.12-32.04c2.283-1.553 5.394-.96 6.946 1.323 1.553 2.284.96 5.394-1.323 6.946l-47.12 32.04c-.86.585-1.839.866-2.807.866z" fill="#3c191e"/><path d="m2330.433 1230.98c-132.44-582.55-122.37-539.34-125.87-550.97 0-.02-.01-.04-.02-.07-13.97-47.17-41.63-91.69-80.49-126.19-.01 0-.021-.01-.03-.03-27.58-24.18-58.52-42.67-95.46-54.96-32.65-10.78-21.55-6.33-361.29-61.3-74.02 11.83-148.04 23.66-222.06 35.49-112.07 17.91-216.42 39.33-282.17 142.99-39.76 62.72-47.48 130.9-55.31 159.27-5.53 24.35-14.83 65.27-25.66 112.88-12.94 56.94-28.06 123.46-41.53 182.68-19.83 87.25-36.06 158.64-36.42 160.21l122.34 178.88c49.03-43.37 84.91-99.62 103.58-162.37 2.91-9.8 17.64-59.31 34.24-115.13 20.98-70.51 44.96-151.12 51.92-174.51.92-3.1 1.83-6.15 2.73-9.15 34.72-116.77 48.45-162.9 56.95-191.5h582.79c10.73 36.1 102.14 343.37 112.53 378.3 6.401 21.531 12.314 41.415 17.478 58.778l41.201 138.524z" fill="#d6795e"/><path d="m433.246 1268.633 60.161-139.248 524.231 86.515 206.026 45.858-19.04 68.26c-23.13 82.94-109.46 131.09-192.18 107.2l-579.198-168.584z" fill="#d6795e"/><path d="m1080.07 1231.203c-.271 0-.544-.022-.82-.068l-74.181-12.242c-2.725-.45-4.569-3.022-4.119-5.747.449-2.725 3.025-4.574 5.747-4.119l74.181 12.242c2.725.45 4.569 3.022 4.119 5.747-.404 2.449-2.524 4.187-4.927 4.187z" fill="#3c191e"/><path d="m2889.201 1238.633-74.219-138.297-506.096 95.867-210.103 35.555 19.04 68.26c23.13 82.94 109.46 131.09 192.18 107.2l579.198-168.584z" fill="#d6795e"/><path d="m2248.376 1211.203c-2.403 0-4.523-1.738-4.928-4.187-.449-2.725 1.395-5.297 4.119-5.747l74.182-12.242c2.726-.45 5.299 1.394 5.748 4.119s-1.395 5.297-4.119 5.747l-74.182 12.242c-.275.045-.55.068-.82.068z" fill="#3c191e"/><path d="m1933.993 981.77-22.189 166.73-4.391 33h-480.28l-4.39-33-15.08-113.29z" fill="#3c191e"/><g fill="#d6795e"><path d="m267.133 1060.657-17.442 57.026c19.39 5.637 37.27 8.984 48.721 12.561 89.621 96.672 234.868 59.662 234.868 59.662l-12.061-56.953c-18.913-88.101-165.402-100.159-178.665-167.767-8.87-45.212-70.427-24.809-62.231 21.614 7.185 40.7 33.89 65.172 47.145 73.612-26.49 1.777-24.741 9.4-60.335.245z"/><path d="m352.247 1107.28-131.772-34.504c-18.989-4.972-36.469-14.527-50.906-27.826l-83.673-77.077c-10.648-9.808-11.935-26.166-2.952-37.519 9.624-12.164 27.365-14.042 39.322-4.163l32.288 26.675c44.579 36.83 96.905 63.109 153.068 76.875l61.207 15.002-16.581 62.537z"/><path d="m303.82 1138.209-130.158-40.163c-18.757-5.788-35.807-16.088-49.657-29.999l-80.266-80.619c-10.214-10.259-10.794-26.657-1.329-37.612 10.14-11.737 27.946-12.847 39.465-2.461l75.955 68.481c13.429 12.108 29.421 21.024 46.78 26.083l118.476 34.527-19.267 61.763z"/><ellipse cx="403.15" cy="1141.277" rx="88.661" ry="139.633" transform="matrix(.58314428 -.8123686 .8123686 .58314428 -759.08 803.246)"/><path d="m466.267 1276.248c-54.122 15.944-180.082-29.584-259.618-58.282-52.672-19.005-174.849-109.359-162.063-110.768 43.653-4.81 143.381-9.388 234.307 32.596 33.205-11.118 73.959-15.428 112.401-8.151 45.149 8.547 87.107 33.078 109.897 81.337-8.208 29.85-34.924 63.268-34.924 63.268z"/><path d="m297.188 1249.526-105.109-37.693c-56.902-20.405-108.178-53.964-149.652-97.942l-34.928-37.037c-9.878-10.474-10.012-26.792-.308-37.427 10.397-11.395 28.128-12.019 39.3-1.383l30.442 28.979c41.471 39.479 91.328 69.077 145.845 86.58l60.032 19.274 14.378 76.648z"/><path d="m291.651 1198.046-140.52-46.358c-18.641-6.15-35.489-16.779-49.067-30.955l-85.722-89.5c-10.722-11.195-11.003-28.762-.643-40.293 11.099-12.355 30.184-13.174 42.301-1.816l37.256 34.921c42.189 39.545 92.769 69.045 147.961 86.295l70.34 21.985-21.907 65.722z"/></g><path d="m249.19 1168.051c-.494 0-.997-.074-1.493-.229l-26.994-8.437c-55.576-17.371-107.407-47.6-149.889-87.42l-30.037-28.154c-5.632-5.28-13.469-7.294-20.965-5.393-2.675.68-5.397-.938-6.077-3.616-.68-2.677.939-5.397 3.616-6.077 10.819-2.746 22.133.166 30.265 7.79l30.037 28.154c41.39 38.795 91.887 68.248 146.034 85.171l26.994 8.437c2.636.824 4.104 3.628 3.281 6.264-.668 2.139-2.642 3.509-4.771 3.51z" fill="#3c191e"/><path d="m261.78 1121.143c-.494 0-.997-.074-1.493-.229l-18.561-5.801c-55.576-17.371-107.407-47.6-149.889-87.419l-37.256-34.921c-4.469-4.189-10.298-6.553-16.415-6.656-2.761-.047-4.961-2.323-4.915-5.084.047-2.76 2.274-4.971 5.084-4.915 8.603.146 16.801 3.469 23.084 9.359l37.256 34.921c41.389 38.795 91.887 68.247 146.034 85.17l18.561 5.801c2.636.824 4.104 3.628 3.281 6.264-.669 2.139-2.642 3.51-4.771 3.51z" fill="#3c191e"/><path d="m389.328 1054.768c-.382 0-.77-.044-1.158-.136l-95.633-22.682c-2.687-.638-4.349-3.332-3.711-6.019s3.334-4.347 6.019-3.711l95.633 22.682c2.687.638 4.349 3.332 3.711 6.019-.545 2.299-2.597 3.847-4.861 3.847z" fill="#3c191e"/><path d="m278.895 1068.569c-.463 0-.934-.065-1.401-.201l-16.308-4.752c-55.901-16.291-108.308-45.511-151.554-84.501l-31.105-28.045c-1.183-1.066-2.472-2.006-3.832-2.794-2.389-1.385-3.203-4.444-1.818-6.833 1.385-2.39 4.444-3.203 6.833-1.818 1.96 1.136 3.814 2.488 5.513 4.019l31.106 28.045c42.133 37.987 93.192 66.456 147.655 82.328l16.308 4.752c2.651.772 4.174 3.548 3.401 6.199-.636 2.184-2.632 3.603-4.798 3.603z" fill="#3c191e"/><path d="m452.06 1170.55c-.68 0-1.371-.14-2.033-.435-38.13-16.996-88.335-22.208-134.299-13.946-2.721.493-5.317-1.318-5.806-4.036s1.318-5.317 4.036-5.806c47.861-8.604 100.249-3.125 140.14 14.654 2.522 1.124 3.655 4.08 2.531 6.603-.83 1.861-2.656 2.965-4.57 2.966z" fill="#3c191e"/><path d="m1318.933 948.7c-.9 3-1.81 6.05-2.73 9.15-6.96 23.39-30.94 104-51.92 174.51-64.03-17.64-195.94-53.93-223.74-61.59 13.47-59.22 28.59-125.74 41.53-182.68 27.09 6.93 157.64 40.34 236.86 60.61z" fill="#3c191e"/><path d="m2288.103 1044.79c-27.35 11.44-159.96 66.9-216.9 90.71-15.09-50.71-32.89-110.57-50.01-168.11 62.06-23.98 220.98-85.38 229.18-88.55 3.766 16.563 34.158 150.241 37.73 165.95z" fill="#3c191e"/><path d="m2288.103 1012.83c-3.69 1.54-121.98 51.01-195.12 81.6-30.02 12.56-52.43 21.93-56.19 23.5l-48.64-172-12.51 207.57h-607.1l-.61-10.07-.08-1.46-.13-2.1-.08-1.38-.16-2.67-1.27-21.07-.55-9.07-8.75-145.27-.06-1-.1-1.72-.38-6.34-.21-3.44-1.24-20.58-9.73 32.93-.51 1.7-1.22 4.15-42.29 143.05c-4.82-1.33-44.32-12.2-91.19-25.1-.11-.03-.22-.06-.34-.09-.5-.14-1-.28-1.5-.42-73.26-20.16-163.5-44.99-167.6-46.12 47.62-207.61 35.24-148.56 49.31-213.26 16.1-74.04 25.35-145.97 66.18-210.38 66.63-105.05 172.38-126.76 285.96-144.91 75.01-11.98 150.021-23.97 225.04-35.96 340.05 54.39 331.55 52.46 347.62 56.72 40.84 10.31 79.91 30.11 115.26 61.1.01.02.02.03.03.03 40.39 35.86 67.73 81.15 81.57 127.88.01.03.02.05.02.07 4.75 15.8 2.5 9.36 76.57 334.11z" fill="#fae2ce"/><path d="m1957.024 1098.5h-592.09c-2.761 0-5-2.239-5-5s2.239-5 5-5h592.09c2.762 0 5 2.239 5 5s-2.238 5-5 5z" fill="#3c191e"/><path d="m1318.938 657.303c-1.616 0-3.203-.782-4.166-2.229l-67.062-100.683c-1.531-2.298-.908-5.402 1.39-6.934 2.296-1.53 5.402-.909 6.934 1.39l67.062 100.683c1.531 2.298.908 5.402-1.39 6.934-.852.567-1.815.839-2.768.839z" fill="#3c191e"/><path d="m1317.579 1058.679c-.439 0-.886-.059-1.33-.181l-264.056-72.673c-2.663-.733-4.227-3.485-3.494-6.147.732-2.663 3.489-4.225 6.147-3.494l264.056 72.673c2.663.733 4.227 3.485 3.494 6.147-.61 2.218-2.624 3.675-4.818 3.675z" fill="#3c191e"/><path d="m2021.623 1069.277c-1.956 0-3.813-1.155-4.615-3.072-1.065-2.547.137-5.477 2.684-6.542l253.997-106.226c2.548-1.066 5.476.136 6.542 2.684 1.065 2.548-.137 5.477-2.685 6.542l-253.995 106.226c-.631.264-1.284.389-1.928.389z" fill="#3c191e"/><path d="m1987.148 948.68c-.102 0-.203-.003-.306-.009-2.757-.166-4.856-2.535-4.69-5.292l12.471-206.98c.166-2.757 2.545-4.855 5.292-4.69 2.757.166 4.856 2.535 4.69 5.292l-12.471 206.98c-.16 2.654-2.362 4.699-4.986 4.699z" fill="#3c191e"/><path d="m1359.479 983.2c-2.625 0-4.827-2.045-4.987-4.7l-12.9-214.351c-.165-2.756 1.936-5.125 4.692-5.29 2.764-.159 5.125 1.937 5.29 4.692l12.9 214.349c.166 2.756-1.935 5.125-4.691 5.291-.103.006-.204.009-.305.009z" fill="#3c191e"/><path d="m3067.414 1027.657 17.442 57.026c-19.39 5.637-37.27 8.984-48.721 12.561-89.621 96.672-234.868 59.662-234.868 59.662l12.061-56.953c18.913-88.101 165.402-100.159 178.665-167.767 8.87-45.212 70.427-24.809 62.231 21.614-7.185 40.7-33.89 65.172-47.145 73.612 26.49 1.777 24.741 9.4 60.335.245z" fill="#d6795e"/><path d="m2982.299 1074.28 131.772-34.504c18.989-4.972 36.469-14.527 50.906-27.826l83.673-77.077c10.648-9.808 11.935-26.166 2.952-37.519-9.624-12.164-27.365-14.042-39.322-4.163l-32.288 26.675c-44.579 36.83-96.905 63.109-153.068 76.875l-61.207 15.002 16.581 62.537z" fill="#d6795e"/><path d="m3030.727 1105.209 130.158-40.163c18.757-5.788 35.807-16.088 49.657-29.999l80.266-80.619c10.214-10.259 10.794-26.657 1.329-37.612-10.14-11.737-27.946-12.847-39.465-2.461l-75.955 68.481c-13.429 12.108-29.421 21.024-46.78 26.083l-118.476 34.527 19.267 61.763z" fill="#d6795e"/><ellipse cx="2931.397" cy="1108.277" fill="#d6795e" rx="139.633" ry="88.661" transform="matrix(.8123686 -.58314428 .58314428 .8123686 -96.258 1917.395)"/><path d="m2868.279 1243.248c54.122 15.944 180.082-29.584 259.618-58.282 52.672-19.005 174.849-109.359 162.063-110.768-43.653-4.81-143.381-9.388-234.307 32.596-33.205-11.118-73.959-15.428-112.401-8.151-45.149 8.547-87.107 33.078-109.897 81.337 8.208 29.85 34.924 63.268 34.924 63.268z" fill="#d6795e"/><path d="m3037.359 1216.526 105.109-37.693c56.902-20.405 108.178-53.964 149.652-97.942l34.928-37.037c9.878-10.474 10.012-26.792.308-37.427-10.397-11.395-28.128-12.019-39.3-1.383l-30.442 28.979c-41.471 39.479-91.328 69.077-145.845 86.58l-60.032 19.274-14.378 76.648z" fill="#d6795e"/><path d="m2882.487 1137.55c-1.914 0-3.74-1.105-4.57-2.966-1.124-2.522.01-5.479 2.532-6.603 39.891-17.78 92.279-23.258 140.14-14.654 2.718.488 4.525 3.088 4.036 5.806-.488 2.718-3.084 4.528-5.806 4.036-45.964-8.262-96.169-3.05-134.3 13.946-.661.295-1.353.435-2.032.435z" fill="#3c191e"/><path d="m3042.896 1165.046 140.52-46.358c18.641-6.15 35.489-16.779 49.067-30.955l85.722-89.5c10.722-11.195 11.003-28.762.643-40.293-11.099-12.355-30.184-13.174-42.301-1.816l-37.256 34.921c-42.189 39.545-92.769 69.045-147.961 86.295l-70.34 21.985 21.907 65.722z" fill="#d6795e"/><path d="m3085.356 1135.051c-2.129 0-4.102-1.371-4.771-3.51-.823-2.636.646-5.44 3.281-6.264l26.994-8.437c54.146-16.924 104.644-46.375 146.033-85.171l30.037-28.154c8.134-7.625 19.445-10.535 30.265-7.79 2.677.679 4.295 3.4 3.616 6.077-.68 2.676-3.396 4.297-6.077 3.616-7.492-1.902-15.332.113-20.965 5.393l-30.038 28.154c-42.481 39.82-94.312 70.049-149.889 87.42l-26.994 8.437c-.496.155-.999.229-1.493.229z" fill="#3c191e"/><path d="m3072.766 1088.143c-2.129 0-4.102-1.371-4.771-3.51-.823-2.636.646-5.44 3.281-6.264l18.562-5.801c54.147-16.924 104.645-46.375 146.033-85.17l37.256-34.921c6.283-5.89 14.481-9.213 23.085-9.359h.086c2.722 0 4.951 2.183 4.997 4.916.047 2.761-2.153 5.037-4.915 5.084-6.116.103-11.945 2.467-16.414 6.656l-37.257 34.921c-42.48 39.819-94.312 70.048-149.889 87.419l-18.562 5.801c-.496.155-.999.229-1.493.229z" fill="#3c191e"/><path d="m2945.219 1021.768c-2.265 0-4.315-1.548-4.861-3.847-.637-2.687 1.024-5.381 3.711-6.019l95.633-22.682c2.693-.636 5.381 1.024 6.02 3.711.637 2.687-1.024 5.381-3.711 6.019l-95.633 22.682c-.389.092-.776.136-1.158.136z" fill="#3c191e"/><path d="m3055.652 1035.569c-2.166 0-4.162-1.418-4.799-3.603-.772-2.651.751-5.427 3.401-6.199l16.308-4.752c54.465-15.872 105.522-44.34 147.656-82.328l31.105-28.045c1.7-1.533 3.556-2.885 5.514-4.02 2.391-1.384 5.448-.569 6.833 1.819 1.385 2.389.57 5.449-1.819 6.833-1.358.787-2.648 1.728-3.833 2.795l-31.104 28.044c-43.245 38.99-95.651 68.21-151.554 84.501l-16.308 4.752c-.467.136-.938.201-1.4.201z" fill="#3c191e"/><path d="m553.529 1318.135s34.922-12.519 43.904-60.074c9.59-50.774-14.734-80.569-14.734-80.569s50.998-19.475 29.039-51.275-47.835 2.497-47.835 2.497c-23.578-43.438-58.177-1.461-70.401 34.465s12.011 56.208 12.011 56.208-39.147-6.078-42.085 39.663c-2.937 45.74 37.446 45.804 37.446 45.804s-11.703 37.571 22.695 41.592c32.226 3.767 29.959-28.311 29.959-28.311z" fill="#fae2ce"/><path d="m1667.278 535.136c-46.654 0-90.563-14.528-123.637-40.907-33.405-26.644-51.803-62.17-51.803-100.034s18.397-73.39 51.803-100.034c33.074-26.379 76.982-40.907 123.637-40.907s90.563 14.528 123.637 40.907c33.405 26.644 51.803 62.17 51.803 100.034s-18.397 73.39-51.803 100.034c-33.074 26.379-76.983 40.907-123.637 40.907zm0-271.882c-91.224 0-165.439 58.74-165.439 130.941s74.216 130.941 165.439 130.941 165.44-58.74 165.44-130.941-74.216-130.941-165.44-130.941z" fill="#3c191e"/><path d="m1642.518 639.034s-213.247-132.041-271.646-138.456c0 0-17.877-116.815 51.62-160.179s396.493-23.821 396.493-23.821 159.325 5.453 159.325 167.765c0 0-54.038 38.588-335.793 154.691z" fill="#fae2ce"/><path d="m1630.853 1024.693c-8.284 0-15-6.716-15-15v-427.732c0-8.284 6.716-15 15-15s15 6.716 15 15v427.732c0 8.284-6.716 15-15 15z" fill="#3c191e"/><path d="m1703.219 787.93c-8.284 0-15-6.716-15-15v-189.701c0-8.284 6.716-15 15-15s15 6.716 15 15v189.701c0 8.284-6.716 15-15 15z" fill="#3c191e"/><path d="m1662.859 622.078c-.395 0-.789-.047-1.173-.14-.394-.095-40.003-9.749-95.936-31.193-51.613-19.789-128.179-53.981-199.831-104.498-2.257-1.591-2.797-4.71-1.206-6.967s4.711-2.797 6.967-1.206c130.864 92.263 280.243 131.096 291.666 133.972 5.055-.292 38.426-2.745 90.035-18.616 51.566-15.858 132.407-48.738 224.689-115.325 2.239-1.615 5.365-1.11 6.98 1.129 1.616 2.239 1.11 5.365-1.129 6.98-93.59 67.53-175.682 100.853-228.068 116.917-56.995 17.477-91.379 18.891-92.815 18.942-.06.002-.12.003-.18.003z" fill="#3c191e"/><path d="m1670.215 420.03c-32.359 2.285-83.02.14-131.29-7.03 5.416-19.542 5.11-42.4 5.11-64.38-1.98 13.5-19.02 47.61-42.08 57.6-15.51-3.48-29.12-7.51-39.51-12.03 33.61-41.85 57.14-96.65 46.58-184.38 153.202 94.666 161.115 210.12 161.19 210.22z" fill="#3c191e"/><path d="m1884.805 371.49c-46.222 34.461-146.761 50.825-218.59 48.321v-77.56c41.046-25.321 155.247-85.367 163.34-132.442-.11 99.36 31.13 132.99 55.25 161.68z" fill="#3c191e"/><path d="m1606.51 468.941v-151.212h124.143v154.002l-74.278 64.388z" fill="#d6795e"/><path d="m1734.091 379.018c-60.831 21.146-114.116-4.241-131.016-24.395l-.04-36.91 131.056.016z" fill="#3c191e"/><path d="m1816.191 152.755c.88-5.792 31.32-31.135 59.141-9.624 22.572 17.454 8.597 52.527-9.77 62.069-17.13 8.899-41.565 7.979-47.892-3.64-6.328-11.619-2.358-43.013-1.478-48.805z" fill="#d6795e"/><path d="m1825.521 192.768c-.716 0-1.442-.154-2.133-.48-2.497-1.18-3.564-4.16-2.385-6.657 7.515-15.907 36.891-30.943 40.216-32.605 2.468-1.233 5.47-.235 6.707 2.236 1.234 2.469.234 5.473-2.235 6.708-8.178 4.094-30.524 17.092-35.646 27.932-.854 1.807-2.65 2.865-4.523 2.865z" fill="#3c191e"/><path d="m1858.853 193.533c-1.044 0-2.097-.326-2.996-1l-19.923-14.942c-2.209-1.657-2.657-4.791-1-7 1.657-2.208 4.791-2.657 7-1l19.923 14.942c2.209 1.657 2.657 4.791 1 7-.982 1.31-2.483 2-4.004 2z" fill="#3c191e"/><path d="m1512.981 184.996s-24.079-30.945-51.149-9.387c-22.32 17.775-9.069 51.832 9.77 62.069 20.843 11.325 38.288 6.999 47.892-3.64 8.865-9.821-6.513-49.042-6.513-49.042z" fill="#d6795e"/><path d="m1511.643 225.247c-1.874 0-3.67-1.058-4.524-2.865-5.122-10.841-27.468-23.838-35.647-27.932-2.469-1.236-3.47-4.239-2.234-6.708 1.235-2.469 4.237-3.47 6.707-2.236 3.325 1.662 32.701 16.697 40.216 32.605 1.18 2.497.112 5.477-2.385 6.656-.69.326-1.417.48-2.132.48z" fill="#3c191e"/><path d="m1478.31 226.012c-1.521 0-3.021-.69-4.004-2-1.657-2.209-1.209-5.343 1-7l19.923-14.942c2.209-1.657 5.343-1.209 7 1s1.209 5.343-1 7l-19.923 14.942c-.899.675-1.952 1-2.996 1z" fill="#3c191e"/><ellipse cx="1666.043" cy="174.309" fill="#d6795e" rx="166.979" ry="174.309"/><path d="m1711.165 6.446.366 5.266s37.438 45.823 44.361 67.305c0 0 42.731-2.837 68.872 41.615 0 0 .026-.12.073-.336-17.189-55.102-59.954-98.147-113.672-113.849z" fill="#3c191e"/><path d="m1667.043 0c-80.746 0-170.204 57.866-167.962 171.836 29.402-12.11 35.03-68.986 35.03-68.986 62.404-9.224 80.343-55.196 80.343-55.196-3.874 19.317-31.774 49.038-31.774 49.038l60.139-3.874c43.591-21.936 69.712-81.105 69.712-81.105l-1.366-5.266c-14.931-4.573-27.775-6.447-44.122-6.447z" fill="#3c191e"/><path d="m1677.938 569.604c-1.529 0-3.038-.699-4.019-2.021l-96.228-129.637c-1.646-2.217-1.183-5.349 1.035-6.995 2.217-1.647 5.35-1.182 6.995 1.035l96.228 129.637c1.646 2.217 1.183 5.349-1.035 6.995-.896.665-1.94.986-2.976.986z" fill="#3c191e"/><path d="m1661.787 535.723c-1.399 0-2.791-.584-3.78-1.725-1.809-2.086-1.583-5.244.503-7.053l176.965-153.404c2.087-1.809 5.244-1.585 7.054.503 1.809 2.086 1.583 5.244-.503 7.053l-176.966 153.404c-.946.82-2.112 1.222-3.273 1.222z" fill="#3c191e"/></svg>