<svg xmlns="http://www.w3.org/2000/svg" viewBox="0 0 2500 3000" width="2500" height="3000"><g transform="translate(287.0 454.0) rotate(0.0 927.0 899.0) scale(0.9997249947425465 0.9997447815046103)"><svg width="1854.51" height="1798.459" viewBox="0 0 1854.51 1798.459"><path d="M1646.738 1798.459H207.773c-46.198 0-82.989-38.67-80.688-84.811l50.534-1013.639h1499.273l50.535 1013.639c2.3 46.141-34.49 84.811-80.688 84.811z" fill="#d2c1f0"/><path d="M1501.879 1379.939H352.632c-26.049 0-46.94-21.54-46.143-47.577l12.363-404.001c.763-24.935 21.197-44.753 46.143-44.753h1124.52c24.946 0 45.38 19.818 46.143 44.753l12.363 404.001c.797 26.037-20.094 47.577-46.143 47.577zm-254.101 379.43H606.732l6.913-297.016h627.22z" fill="#fff"/><g fill="#d2c1f0"><path d="M968.48 1029.489h-81.781l.277-103.871h81.169zM805.795 925.618l-.923 103.871H723.01l1.592-103.871zm-162.408 0-2.251 103.871h-81.908l2.92-103.871zm-162.501 0-3.566 103.871h-81.931l4.212-103.871zm814.442 103.871h-81.654l-2.112-103.871h81.111zm163.228 0h-81.597l-3.185-103.871h81.1zm-326.583 0h-81.723l-.958-103.871h81.146zm-83.154 158.115h-82.751l1.212-103.871h82.07zm85.382 160.423H716.005l1.2-103.871h415.184zm82.75-160.423h-82.75l1.211-103.871h82.07zm248.859 0h-170.482l1.212-103.871h164.07zm-740.862 0h-82.75l1.211-103.871h82.071zm161.128 0h-82.751l1.212-103.871h82.07zm-335.731 0H389.742l4.064-103.871h157.07zm86.362 159.423h-82.75l1.211-103.871h82.07zm-162.743 0h-82.75l1.211-103.871h82.07zm991.846 1h-91.505l1.211-103.871h90.294zm-171.498 0h-82.75l1.211-103.871h82.07zM1851.8 88.279 1676.893 700.01H177.617L2.71 88.279C-9.939 44.041 23.277 0 69.292 0h1715.927c46.015 0 79.231 44.041 66.582 88.279z"/></g><path d="M1800.43 109.699c-.302 1.91-158.422 563.493-158.422 563.493H212.496L55.558 116.393c-9.095-32.281 10.906-58.687 44.434-58.687h1654.527c31.173 0 50.654 22.829 45.911 51.993zM1676.9 709.838h-.017l-1499.273-5a5 5 0 0 1 .017-10h.017l1499.273 5a5 5 0 0 1-.017 10z" fill="#fff"/></svg></g><g transform="translate(876.0 197.0) rotate(0.0 716.0 275.0) scale(0.999807299710391 0.9982557749096578)"><svg width="1432.276" height="550.961" viewBox="0 0 1432.276 550.961"><path d="m1425.169 64.85-136.734 440.511c-7.494 24.144-29.832 40.599-55.112 40.599H102.631c-29.782 0-54.672-22.664-57.454-52.317L5.257 68.096C2.082 34.245 28.712 5 62.711 5h1318.368c31.108 0 53.312 30.141 44.09 59.85z" fill="#fff"/><path d="M1233.323 546.46H102.631c-30.216 0-55.13-22.686-57.952-52.77L4.759 68.142a58.323 58.323 0 0 1 14.915-44.625C30.679 11.432 46.366 4.5 62.711 4.5h1318.368c14.987 0 28.682 6.921 37.571 18.988 8.89 12.067 11.439 27.197 6.997 41.511L1288.913 505.51c-7.603 24.494-29.942 40.951-55.59 40.951zM62.711 5.5a57.323 57.323 0 0 0-42.298 18.691A57.322 57.322 0 0 0 5.755 68.049l39.92 425.548c2.773 29.567 27.259 51.863 56.956 51.863h1130.692c25.207 0 47.162-16.174 54.635-40.248l136.734-440.511.478.148-.478-.148c4.348-14.007 1.853-28.813-6.846-40.621s-22.1-18.581-36.766-18.581H62.711z" fill="#3c191e"/><path d="M1233.323 550.96H102.631c-32.552 0-59.392-24.44-62.432-56.849L.279 68.563c-1.645-17.532 4.212-35.055 16.068-48.075C28.203 7.467 45.102 0 62.711 0h1318.368c16.433 0 31.447 7.588 41.194 20.819s12.543 29.82 7.671 45.514L1293.21 506.844c-8.191 26.388-32.258 44.117-59.887 44.117zM62.711 10a52.817 52.817 0 0 0-38.97 17.22 52.814 52.814 0 0 0-13.505 40.408l39.92 425.548c2.555 27.241 25.115 47.783 52.476 47.783h1130.692c23.224 0 43.453-14.902 50.337-37.082l136.734-440.511c3.919-12.627 1.67-25.974-6.172-36.618-7.841-10.645-19.921-16.75-33.143-16.75H62.711zm1362.458 54.85h.01z" fill="#fae2ce"/><path d="M1286.485 331.262H710.243a5 5 0 0 1 0-10h576.242a5 5 0 0 1 0 10zm-18.467 56.552H460.941a5 5 0 0 1 0-10h807.077a5 5 0 0 1 0 10z" fill="#d2c1f0"/><path d="M1208.004 498.226H557.542c-19.122 0-34.624-15.225-34.624-34.222 0-19.243 15.865-35.025 35.436-35.025h665.715c19.571 0 31.589 15.782 26.9 35.025-4.63 18.998-23.842 34.222-42.964 34.222z" fill="#e51b26"/><path d="M1344.919 141.985H732.322a5 5 0 0 1 0-10h612.597a5 5 0 0 1 0 10zm-25.391 80.789H722.904a5 5 0 0 1 0-10h596.624a5 5 0 0 1 0 10z" fill="#d2c1f0"/><path d="M1170.683 136.985c-6.946 25.341-28.299 45.884-53.226 45.884-25.757 0-45.492-20.543-38.543-45.884 6.947-25.341 28.301-45.884 53.226-45.884 25.76 0 45.491 20.543 38.543 45.884z" fill="#e51b26"/><path d="M959.693 217.774c-6.949 25.341-28.302 45.884-53.226 45.885-25.758 0-45.49-20.543-38.543-45.885 6.944-25.341 28.3-45.884 53.226-45.884 25.757 0 45.493 20.543 38.543 45.884zM587.456 88.321c-3.459 47.149-8.479 115.532-14.729 200.811-1.326 18.092-16.391 32.098-34.531 32.098H118.603c-18.115 0-33.168-13.97-34.527-32.034A9066593.22 9066593.22 0 0 0 68.972 88.377c-1.511-20.089 14.382-37.211 34.527-37.211h449.425c20.12 0 36.003 17.09 34.531 37.156z" fill="#fae2ce"/><g fill="#fff"><path d="M303.841 283.482a8 8 0 0 1-7.581-10.563l64.089-189.692a8 8 0 0 1 10.14-5.018 8 8 0 0 1 5.019 10.14l-64.089 189.692a8.003 8.003 0 0 1-7.578 5.442zm-41.618-.001a7.961 7.961 0 0 1-4.507-1.396l-121.351-82.932a8.001 8.001 0 0 1-1.496-11.887l93.833-106.76a8 8 0 0 1 12.018 10.562l-87.867 99.972 113.89 77.833a8 8 0 0 1-4.521 14.606zm170.659-.413a8.001 8.001 0 0 1-5.101-14.167l92.553-76.488-116.438-100.57a8 8 0 1 1 10.459-12.109l123.603 106.76a8 8 0 0 1-.133 12.221l-99.852 82.52a7.97 7.97 0 0 1-5.092 1.833z"/></g></svg></g><g transform="translate(147.0 567.0) rotate(0.0 495.0 200.5) scale(0.9997263375379063 0.9977730501747969)"><svg width="990.271" height="401.895" viewBox="0 0 990.271 401.895"><path d="M944.106 396.895h-795.52c-19.78 0-37.362-12.601-43.717-31.332L3.23 65.998C-8.152 32.449 11.52 5 46.947 5h877.722c31.255 0 56.829 24.883 57.685 56.126l7.899 288.34c.712 25.982-20.156 47.429-46.148 47.429z" fill="#fae2ce"/><path d="M224.983 401.896a5.003 5.003 0 0 1-4.787-3.563L102.513 6.438a5 5 0 1 1 9.578-2.876l117.682 391.895a5 5 0 0 1-4.791 6.439z" fill="#fff"/><path d="M944.106 396.895h-795.52c-19.78 0-37.362-12.601-43.717-31.332L3.23 65.998C-8.152 32.449 11.52 5 46.947 5h877.722c31.255 0 56.829 24.883 57.685 56.126l7.899 288.34c.712 25.982-20.156 47.429-46.148 47.429z" fill="none"/><path d="M328.826 138.748H194.763c-4.455-15.65-8.414-29.534-11.842-41.548h135.887z" fill="#e51b26"/><path d="M892.788 138.748H398.142L389.071 97.2h501.34z" fill="#d2c1f0"/><g fill="#fff"><path d="M822.34 199.79H212.168c3.646 12.776 7.479 26.256 11.506 40.394h602.937c-1.604-16.008-3.035-29.534-4.27-40.394zm-222.838 97.973H240.086c3.624 12.684 7.352 25.772 11.184 39.24h354.547a34645.058 34645.058 0 0 1-6.313-39.24z"/><circle cx="82.054" cy="117.974" r="20.774"/></g></svg></g><g transform="translate(1377.0 911.0) rotate(0.0 268.5 47.0) scale(1.0317756147422867 1.0223725569102597)"><svg width="520.462" height="91.943" viewBox="0 0 520.462 91.943"><g fill="#d2c1f0"><path d="M492.379 91.943H5a5 5 0 1 1 0-10h487.379a5 5 0 0 1 0 10zM515.462 10H28.082a5 5 0 0 1 0-10h487.379a5 5 0 0 1 0 10z"/></g></svg></g><g transform="translate(1354.0 1373.0) rotate(0.0 477.0 713.0) scale(0.9995746045184125 0.9995752155815971)"><svg width="954.406" height="1426.606" viewBox="0 0 954.406 1426.606"><clipPath id="a"><path d="m530.261 517.586-18.277-225.064-58.737-166.704c-8.367-23.747 4.101-49.78 27.847-58.147 23.747-8.365 49.78 4.102 58.147 27.848l60.7 172.276a45.575 45.575 0 0 1 2.441 11.46l18.755 230.952c2.038 25.095-15.6 47.392-42.857 49.205-24.367 1.621-46.045-17.505-48.02-41.825z"/></clipPath><clipPath id="b"><path d="M327.348 740.355c-22.603.688-44.362-12.316-53.76-34.376L154.251 430.012 26.344 214.948c-16.301-26.641-7.92-61.453 18.722-77.754 26.642-16.302 61.454-7.919 77.754 18.722l127.451 208.289a56.614 56.614 0 0 1 3.789 7.353l123.584 290.094c12.241 28.733-1.129 61.95-29.863 74.192a56.403 56.403 0 0 1-20.432 4.512z"/></clipPath><clipPath id="c"><path d="M405.872 660.891c-25.26.833-48.827-15.467-56.153-40.861l-93.325-307.283L155.883 79.999c-12.942-28.425-.391-61.96 28.034-74.902 28.425-12.94 61.96-.39 74.902 28.034l103.156 229.565a56.469 56.469 0 0 1 2.868 7.758l93.548 318.225c8.657 30.008-8.651 61.354-38.66 70.012a56.722 56.722 0 0 1-13.859 2.2z"/></clipPath><clipPath id="d"><path d="M495.848 619.265c-24.995.879-47.653-16.45-52.695-41.773l-55.608-279.321-70.689-198.007c-9.644-27.013 4.437-56.73 31.45-66.374 27.013-9.646 56.73 4.436 66.374 31.45l71.97 201.594a51.832 51.832 0 0 1 2.024 7.32l56.351 283.057c5.6 28.132-12.664 55.476-40.795 61.077a52.4 52.4 0 0 1-8.382.978z"/></clipPath><clipPath id="e"><circle cx="635.583" cy="957.179" r="135.564"/></clipPath><clipPath id="f"><path d="M8.057 616.185s97.786 163.034 98.978 164.551l-.012.012.119.124c1.288 1.642 164.062 182.37 164.062 182.37 34.462 39.836 83.567 63.167 136.052 67.435 29.04 2.361 82.593-8.482 111.712-26.66L715.479 888.53c13.938-8.187 38.081-31.761 46.278-50.219 14.684-33.064 16.148-71.9-2.023-106.139L619.583 466.44c-.482-7.966-3.042-37.455-3.042-37.455s-33.056-7.261-48.838-6.309c-25.395 1.534-44.977 20.921-43.223 42.639-3.877-23.997-29.753-39.907-57.953-35.556-29.959 4.603-50.963 30.387-44.124 56.03-9.639-22.18-37.5-33.896-65.53-26.443-29.497 7.87-48.308 34.049-43.142 59.296-13.066-19.347-41.308-26.424-67.256-15.594-12.751 5.328-49.505 25.754-49.505 25.754l13.265 30.675s-1.2-.225 2.462 10.3l60.796 144.538-64.16-35.413-109.35-128.619c-17.639-20.791-48.234-26.401-72.383-11.934C.721 554.443-8.027 589.296 8.056 616.187z"/></clipPath><clipPath id="g"><path d="M950.048 1173.371c-14.088 30.86-30.576 63.698-54.025 93.553-76.477 97.371-130.807 130.86-173.754 157.064-10.378 6.332-24.625.513-30.234-10.276L556.34 1152.47c-5.172-9.952-7.054-26.991-5.338-38.078 11.855-76.608 80.776-131.455 116.05-151.104 41.325-23.028 82.374-33.469 124.434-31.599 16.319.725 40.539 12.843 49.499 26.509L945.71 1117.99c9.56 14.582 11.578 39.533 4.337 55.381z"/></clipPath><path d="m530.261 517.586-18.277-225.064-58.737-166.704c-8.367-23.747 4.101-49.78 27.847-58.147 23.747-8.365 49.78 4.102 58.147 27.848l60.7 172.276a45.575 45.575 0 0 1 2.441 11.46l18.755 230.952c2.038 25.095-15.6 47.392-42.857 49.205-24.367 1.621-46.045-17.505-48.02-41.825z" fill="#3c191e"/><g clip-path="url(#a)" fill="#fae2ce"><path d="M471.841 199.652a5.003 5.003 0 0 1-4.735-3.397c-7.752-22.887 9.685-49.55 38.87-59.435 29.185-9.886 59.235.693 66.988 23.58a5 5 0 1 1-9.472 3.208c-5.983-17.665-30.346-25.433-54.308-17.317s-38.589 29.091-32.606 46.755a5 5 0 0 1-4.736 6.606zm35.148 102.122a5.001 5.001 0 0 1-4.934-4.232c-1.85-11.888 2.397-23.904 11.957-33.836 9.205-9.563 22.33-16.082 36.959-18.358 14.629-2.275 29.114-.051 40.789 6.264 12.125 6.559 19.821 16.717 21.669 28.605a4.999 4.999 0 0 1-4.172 5.709 5.002 5.002 0 0 1-5.709-4.172c-1.358-8.728-7.234-16.309-16.546-21.346-9.762-5.281-22.013-7.12-34.494-5.178-12.481 1.941-23.594 7.415-31.292 15.412-7.342 7.628-10.638 16.636-9.28 25.364a4.999 4.999 0 0 1-4.947 5.769z"/></g><path d="M327.348 740.355c-22.603.688-44.362-12.316-53.76-34.376L154.251 430.012 26.344 214.948c-16.301-26.641-7.92-61.453 18.722-77.754 26.642-16.302 61.454-7.919 77.754 18.722l127.451 208.289a56.614 56.614 0 0 1 3.789 7.353l123.584 290.094c12.241 28.733-1.129 61.95-29.863 74.192a56.403 56.403 0 0 1-20.432 4.512z" fill="#3c191e"/><g clip-path="url(#b)" fill="#fae2ce"><path d="M77.787 316.69a4.998 4.998 0 0 1-4.256-2.369c-7.654-12.362-8.69-27.702-2.918-43.193 5.606-15.045 17.033-28.494 32.177-37.87 31.667-19.606 70.07-15.143 85.605 9.949a5 5 0 1 1-8.502 5.264c-12.633-20.404-44.86-23.414-71.839-6.71-13.267 8.213-23.235 19.883-28.07 32.859-4.669 12.531-3.941 24.761 2.049 34.437a5 5 0 0 1-4.246 7.632zm70.633 119.115a4.997 4.997 0 0 1-4.299-2.439c-15.403-25.821-1.562-62.56 30.854-81.897s71.32-14.061 86.723 11.759a5 5 0 0 1-8.587 5.124c-12.578-21.085-45.331-24.806-73.012-8.294-27.68 16.512-39.967 47.1-27.389 68.186a5 5 0 0 1-4.289 7.562z"/></g><path d="M405.872 660.891c-25.26.833-48.827-15.467-56.153-40.861l-93.325-307.283L155.883 79.999c-12.942-28.425-.391-61.96 28.034-74.902 28.425-12.94 61.96-.39 74.902 28.034l103.156 229.565a56.469 56.469 0 0 1 2.868 7.758l93.548 318.225c8.657 30.008-8.651 61.354-38.66 70.012a56.722 56.722 0 0 1-13.859 2.2z" fill="#3c191e"/><g clip-path="url(#c)" fill="#fae2ce"><path d="M198.413 196.964a5 5 0 0 1-4.661-3.19c-5.324-13.695-3.533-29.125 5.042-43.448 8.333-13.917 22.155-25.171 38.919-31.688 35.048-13.625 72.358-2.09 83.166 25.715a5 5 0 0 1-9.321 3.623c-8.811-22.665-40.313-31.645-70.223-20.018-14.704 5.716-26.765 15.484-33.962 27.504-6.955 11.615-8.482 23.934-4.302 34.687a5 5 0 0 1-4.66 6.813zm54.473 127.662a5.003 5.003 0 0 1-4.769-3.503c-4.441-14.142-1.654-29.543 7.848-43.363 9.242-13.443 23.81-23.823 41.02-29.227 35.967-11.294 72.569 2.892 81.592 31.624a5 5 0 0 1-9.541 2.996c-7.37-23.471-38.348-34.722-69.055-25.079-15.088 4.738-27.793 13.741-35.775 25.351-7.722 11.232-10.047 23.557-6.547 34.702a5 5 0 0 1-4.772 6.499z"/></g><path d="M495.848 619.265c-24.995.879-47.653-16.45-52.695-41.773l-55.608-279.321-70.689-198.007c-9.644-27.013 4.437-56.73 31.45-66.374 27.013-9.646 56.73 4.436 66.374 31.45l71.97 201.594a51.832 51.832 0 0 1 2.024 7.32l56.351 283.057c5.6 28.132-12.664 55.476-40.795 61.077a52.4 52.4 0 0 1-8.382.978z" fill="#3c191e"/><g clip-path="url(#d)" fill="#fae2ce"><path d="M337.62 183.311a4.999 4.999 0 0 1-4.886-6.083c.079-.357 1.958-8.815 3.804-15.208 5.545-19.212 23.906-36.231 45.689-42.347 14.519-4.078 30.938-3.379 45.043 1.918 15.291 5.742 25.677 15.901 29.245 28.606a5 5 0 0 1-9.628 2.704c-2.684-9.559-10.899-17.354-23.132-21.948-12.156-4.565-26.306-5.168-38.825-1.652-18.286 5.135-34.235 19.73-38.785 35.493-1.759 6.093-3.629 14.514-3.648 14.598a5 5 0 0 1-4.876 3.919zm44.101 117.642a5.002 5.002 0 0 1-4.91-4.088c-5.21-28.066 22.951-52.797 52.521-58.286 15.006-2.786 30.709-1.329 43.085 3.997 13.941 6 22.939 16.416 25.337 29.331a5 5 0 0 1-9.832 1.826c-2.267-12.214-11.833-18.689-19.458-21.971-10.602-4.563-24.201-5.783-37.307-3.351-24.311 4.513-48.572 24.773-44.515 46.629a5 5 0 0 1-4.921 5.914z"/></g><circle cx="635.583" cy="957.179" fill="#3c191e" r="135.564"/><g clip-path="url(#e)" fill="#fae2ce"><path d="M497.364 1027.594a5 5 0 0 1-2.536-9.312l213.706-125.458c10.688-6.275 31.491-22.241 31.491-29.122a5 5 0 0 1 10 0c0 16.174-36.064 37.532-36.429 37.746L499.89 1026.906a4.975 4.975 0 0 1-2.526.689zm49.981 87.831a5.002 5.002 0 0 1-4.951-5.747c1.045-6.932 10.005-32.706 29.816-64.136 16.753-26.578 45.714-63.848 88.544-90.464 32.459-20.172 94.913-38.49 129.904-32.812a5 5 0 1 1-1.601 9.871c-29.522-4.79-89.315 10.486-123.024 31.435-79.635 49.489-112.23 137.519-113.75 147.598a5.001 5.001 0 0 1-4.938 4.255z"/></g><path d="M8.057 616.185s97.786 163.034 98.978 164.551l-.012.012.119.124c1.288 1.642 164.062 182.37 164.062 182.37 34.462 39.836 83.567 63.167 136.052 67.435 29.04 2.361 82.593-8.482 111.712-26.66L715.479 888.53c13.938-8.187 38.081-31.761 46.278-50.219 14.684-33.064 16.148-71.9-2.023-106.139L615.522 458.738c-.365-6.03-5.505-16.56-5.505-16.56s-24.262-20.592-42.312-19.503c-25.395 1.534-44.977 20.921-43.223 42.639-3.877-23.997-29.753-39.907-57.953-35.556-29.959 4.603-50.963 30.387-44.124 56.03-9.639-22.18-37.5-33.896-65.53-26.443-29.497 7.87-48.308 34.049-43.142 59.296-13.066-19.347-41.308-26.424-67.256-15.594-12.751 5.328-22.819 14.088-29.214 24.338-4.163 6.661-11.529 22.374-4.565 42.391l60.796 144.538-64.16-35.413-109.35-128.619c-17.639-20.791-48.234-26.401-72.383-11.934C.722 554.442-8.026 589.295 8.057 616.186z" fill="#3c191e"/><g clip-path="url(#f)" fill="#fae2ce"><path d="M205.052 563.216a5 5 0 0 1-4.978-5.525c1.076-10.206 14.173-41.58 46.828-52.389 24.035-7.956 47.707-4.957 63.211 7.125 2.293-22.925 20.951-43.841 47.471-50.909 23.111-6.151 46.638-.09 61.12 14.302 1.041-6.246 3.444-12.365 7.156-18.046 9.008-13.787 24.285-23.25 41.913-25.963 23.469-3.615 45.633 5.874 56.758 22.387 1.807-4.292 4.369-8.369 7.636-12.084 9.132-10.386 22.726-16.741 37.294-17.436 16.177-.771 30.378 2.52 41.068 9.519 10.646 6.97 17.357 17.504 18.899 29.663a5 5 0 0 1-9.921 1.258c-2.511-19.815-21.98-31.766-49.57-30.451-11.878.566-22.908 5.688-30.262 14.05-5.953 6.77-8.868 15.009-8.206 23.198a5 5 0 0 1-4.383 5.366 4.998 4.998 0 0 1-5.537-4.165c-3.438-21.237-26.883-35.333-52.255-31.422-14.609 2.248-27.716 10.304-35.064 21.549-5.74 8.784-7.515 18.819-4.999 28.256a5 5 0 0 1-9.418 3.28c-8.76-20.173-34.409-30.318-59.658-23.598-26.831 7.151-44.194 30.631-39.529 53.455a5 5 0 0 1-9.043 3.799c-11.224-16.627-35.956-22.109-61.541-13.64-27.889 9.232-39.286 36.93-40.025 43.944a5 5 0 0 1-4.967 4.476zm157.111 469.04a5 5 0 0 1-.723-9.947c7.221-1.065 23.042-10.439 34.753-31.062 14.375-25.313 24.887-71.539-6.674-148.013-37.214-90.173-117.348-130.325-118.153-130.72a5.098 5.098 0 0 1-.65-.382l-17.805-12.367a5 5 0 1 1 5.705-8.213l17.509 12.162c2.946 1.487 22.563 11.726 46.594 32.303 23.542 20.159 55.846 54.463 76.044 103.403 33.099 80.202 21.6 129.518 6.125 156.766-13.563 23.882-32.542 34.623-41.99 36.016a5.115 5.115 0 0 1-.736.054zM107.379 794.528a4.997 4.997 0 0 1-4.314-2.465c-12.604-21.424-6.011-58.463 15.678-88.071 20.829-28.434 57.424-44.682 85.126-37.792 5.033 1.252 11.431 3.711 11.701 3.815a5 5 0 0 1-3.598 9.331c-.06-.023-6.093-2.341-10.516-3.441-23.594-5.868-56.383 9.065-74.646 33.997-19.122 26.104-25.625 59.245-15.126 77.09a5 5 0 0 1-4.304 7.536z"/></g><path d="m556.343 1152.469 135.694 261.242c5.605 10.794 19.183 15.348 30.234 10.273 7.642-3.5 94.808-47.851 173.747-157.06 22.166-30.666 39.811-62.474 53.88-93.23a.659.659 0 0 0 .082-.151c.021-.055.054-.12.074-.175 7.241-15.848 5.216-40.792-4.346-55.375L840.981 958.196c-8.957-13.66-29.831-23.415-45.956-26.032-32.282-5.237-95.371 10.868-127.969 31.125-79.195 49.215-113.995 137.441-116.054 151.099-1.674 11.099.167 28.125 5.341 38.082z" fill="#3c191e"/><g fill="#fae2ce"><g clip-path="url(#g)"><path d="M877.014 1110.713c-9.404 0-18.891-4.584-24.066-12.481L743.606 931.413a5 5 0 1 1 8.363-5.482l109.342 166.819c4.596 7.012 14.956 10.004 22.623 6.534 17.205-7.788 33.843-13.361 49.454-16.565a5 5 0 1 1 2.01 9.796c-14.884 3.055-30.812 8.397-47.34 15.879-3.476 1.573-7.253 2.318-11.044 2.318zM645.18 1341.997a5 5 0 0 1-4.374-7.415c13.796-25.022 31.513-51.855 49.886-75.556 6.259-8.074 7.545-22.598 2.809-31.717L586.834 1021.95a5 5 0 0 1 8.874-4.61l106.667 205.359c6.554 12.618 4.894 31.265-3.78 42.453-18.065 23.304-35.479 49.676-49.033 74.257a4.998 4.998 0 0 1-4.383 2.587z"/></g><circle cx="821.016" cy="1203.799" r="52.83"/><rect height="103.693" rx="24.203" transform="matrix(.90072099 -.4343981 .4343981 .90072099 -268.213 345.544)" width="190.807" x="526.473" y="707.722"/></g></svg></g><g transform="translate(226.0 1382.0) rotate(0.0 484.0 708.5) scale(0.9997170222478348 0.9995175229458751)"><svg width="968.274" height="1417.684" viewBox="0 0 968.274 1417.684"><clipPath id="h"><path d="m434.132 516.951 20.277-224.893 60.217-166.176c8.578-23.671-3.658-49.814-27.329-58.392-23.672-8.576-49.814 3.659-58.392 27.329l-62.23 171.73a45.578 45.578 0 0 0-2.543 11.438l-20.808 230.776c-2.261 25.076 15.178 47.529 42.418 49.584 24.352 1.837 46.199-17.095 48.39-41.397z"/></clipPath><clipPath id="i"><path d="M636.709 740.607c22.586 1.12 44.59-11.465 54.408-33.341l124.595-273.633 132-212.578c16.808-26.325 9.094-61.29-17.231-78.098s-61.291-9.093-78.098 17.23L720.971 365.999a56.529 56.529 0 0 0-3.929 7.279L587.93 660.955c-12.788 28.494-.056 61.961 28.438 74.75a56.387 56.387 0 0 0 20.342 4.902z"/></clipPath><clipPath id="j"><path d="M564.149 665.201c25.273.265 48.467-16.561 55.22-42.112l86.395-309.303 95.255-234.948c12.3-28.709-1.002-61.953-29.711-74.253-28.709-12.298-61.953 1.002-74.253 29.711l-97.97 231.825a56.625 56.625 0 0 0-2.693 7.82L510.02 594.188c-7.981 30.195 10.028 61.144 40.224 69.125a56.732 56.732 0 0 0 13.905 1.888z"/></clipPath><clipPath id="k"><path d="M473.26 625.608c25.008.317 47.271-17.517 51.742-42.947l49.316-280.501 66.221-199.546c9.034-27.223-5.711-56.616-32.934-65.65-27.223-9.037-56.616 5.71-65.65 32.934l-67.421 203.161a51.818 51.818 0 0 0-1.859 7.364L422.7 564.675c-4.967 28.251 13.908 55.177 42.158 60.145 2.819.495 5.629.754 8.402.789z"/></clipPath><clipPath id="l"><circle cx="345.739" cy="965.586" r="135.564"/></clipPath><clipPath id="m"><path d="M1.632 1130.564c9.148 32.667 20.361 67.659 38.913 100.78 60.505 108.023 109.005 149.509 147.384 182.037 9.275 7.861 24.249 4.314 31.459-5.478l174.45-237.123c6.648-9.033 11.141-25.576 11.16-36.795.131-77.52-59.483-142.362-91.295-167.228-37.268-29.139-76.209-45.802-118.053-50.456-16.234-1.807-42.037 6.421-53.002 18.538l-128.169 141.68c-11.699 12.928-17.55 37.268-12.847 54.045z"/></clipPath><clipPath id="n"><path d="M960.858 611.565s-94.097 165.19-95.255 166.734l.012.012-.116.127c-1.251 1.67-159.922 186.011-159.922 186.011-33.558 40.601-82.126 65.03-134.502 70.476-28.98 3.014-82.762-6.624-112.283-24.143L259.735 899.74c-14.119-7.871-38.785-30.897-47.395-49.167-15.423-32.726-17.76-71.519-.363-106.157L346.12 475.601c.303-7.975 2.199-37.514 2.199-37.514s32.885-8.002 48.683-7.405c25.423.962 45.436 19.905 44.17 41.657 3.337-24.078 28.849-40.566 57.139-36.85 30.055 3.928 51.633 29.234 45.372 55.025 9.138-22.391 36.729-34.73 64.919-27.909 29.666 7.205 49.061 32.955 44.464 58.312 12.628-19.635 40.704-27.345 66.889-17.102 12.868 5.04 50.071 24.635 50.071 24.635l-12.572 30.965s1.195-.252-2.229 10.352l-57.532 145.868 63.348-36.846 106.432-131.044c17.167-21.182 47.629-27.478 72.097-13.557 27.234 15.486 36.763 50.133 21.288 77.379z"/></clipPath><path d="m434.132 516.951 20.277-224.893 60.217-166.176c8.578-23.671-3.658-49.814-27.329-58.392-23.672-8.576-49.814 3.659-58.392 27.329l-62.23 171.73a45.578 45.578 0 0 0-2.543 11.438l-20.808 230.776c-2.261 25.076 15.178 47.529 42.418 49.584 24.352 1.837 46.199-17.095 48.39-41.397z" fill="#3c191e"/><g clip-path="url(#h)" fill="#fae2ce"><path d="M495.42 199.549a5 5 0 0 1-4.721-6.647c2.889-8.286 1.296-17.671-4.486-26.428-6.06-9.179-15.898-16.5-27.703-20.616-23.889-8.329-48.319-.778-54.46 16.833a5 5 0 0 1-9.442-3.292c7.955-22.817 38.098-33.128 67.194-22.984 13.862 4.833 25.496 13.551 32.756 24.549 7.54 11.419 9.522 23.931 5.583 35.23a5 5 0 0 1-4.721 3.355zm-36.054 101.805a5 5 0 0 1-4.939-5.813c3.051-18.528-14.986-36.981-40.208-41.135-25.221-4.153-48.223 7.542-51.274 26.07a5 5 0 1 1-9.867-1.625c3.948-23.969 32.104-39.361 62.766-34.312s52.396 28.657 48.45 52.627a5 5 0 0 1-4.928 4.188z"/></g><path d="M636.709 740.607c22.586 1.12 44.59-11.465 54.408-33.341l124.595-273.633 132-212.578c16.808-26.325 9.094-61.29-17.231-78.098s-61.291-9.093-78.098 17.23L720.971 365.999a56.529 56.529 0 0 0-3.929 7.279L587.93 660.955c-12.788 28.494-.056 61.961 28.438 74.75a56.387 56.387 0 0 0 20.342 4.902z" fill="#3c191e"/><g clip-path="url(#i)" fill="#fae2ce"><path d="M894.425 321.795a5 5 0 0 1-4.195-7.714c6.175-9.56 7.137-21.774 2.708-34.391-4.586-13.066-14.33-24.924-27.437-33.39-26.654-17.216-58.934-14.824-71.954 5.335a5 5 0 1 1-8.4-5.426c16.012-24.79 54.494-28.517 85.78-8.309 14.962 9.664 26.13 23.329 31.447 38.479 5.475 15.598 4.145 30.915-3.744 43.129a4.997 4.997 0 0 1-4.205 2.288zm-72.898 117.742a5 5 0 0 1-4.239-7.643c12.979-20.841 1.279-51.658-26.08-68.697-27.358-17.039-60.177-13.945-73.157 6.896a5 5 0 1 1-8.488-5.286c15.894-25.521 54.891-30.052 86.931-10.098s45.176 56.95 29.282 82.472a4.996 4.996 0 0 1-4.249 2.357z"/></g><path d="M564.149 665.201c25.273.265 48.467-16.561 55.22-42.112l86.395-309.303 95.255-234.948c12.3-28.709-1.002-61.953-29.711-74.253-28.709-12.298-61.953 1.002-74.253 29.711l-97.97 231.825a56.625 56.625 0 0 0-2.693 7.82L510.02 594.188c-7.981 30.195 10.028 61.144 40.224 69.125a56.732 56.732 0 0 0 13.905 1.888z" fill="#3c191e"/><g clip-path="url(#j)" fill="#fae2ce"><path d="M761.016 196.73a4.999 4.999 0 0 1-4.699-6.708c3.938-10.845 2.133-23.126-5.081-34.582-7.465-11.856-19.743-21.35-34.572-26.734-30.163-10.952-61.455-1.267-69.755 21.591a5 5 0 1 1-9.399-3.413c10.181-28.04 47.218-40.412 82.567-27.577 16.906 6.139 30.977 17.079 39.621 30.805 8.896 14.126 11.033 29.512 6.018 43.323a5.002 5.002 0 0 1-4.7 3.295zm-51.589 128.853a5 5 0 0 1-4.806-6.391c6.841-23.631-12.746-50.137-43.662-59.087-15.19-4.397-30.755-3.924-43.827 1.335-12.646 5.087-21.399 14.069-24.647 25.29a5 5 0 0 1-9.606-2.781c4.122-14.239 14.961-25.528 30.521-31.787 15.135-6.088 33.013-6.679 50.339-1.663 36.212 10.483 58.86 42.546 50.486 71.474a5.002 5.002 0 0 1-4.8 3.611z"/></g><path d="M473.26 625.608c25.008.317 47.271-17.517 51.742-42.947l49.316-280.501 66.221-199.546c9.034-27.223-5.711-56.616-32.934-65.65-27.223-9.037-56.616 5.71-65.65 32.934l-67.421 203.161a51.818 51.818 0 0 0-1.859 7.364L422.7 564.675c-4.967 28.251 13.908 55.177 42.158 60.145 2.819.495 5.629.754 8.402.789z" fill="#3c191e"/><g clip-path="url(#k)" fill="#fae2ce"><path d="M621.537 186.209a5.002 5.002 0 0 1-4.852-3.81c-.021-.084-2.083-8.467-3.976-14.513-4.903-15.657-21.176-29.89-39.572-34.612-26.521-6.808-56.366 5.335-61.412 24.987a5.001 5.001 0 0 1-9.686-2.486c7.041-27.425 44.657-39.612 73.583-32.186 21.914 5.626 40.653 22.227 46.629 41.31 1.988 6.35 4.058 14.763 4.145 15.118a5 5 0 0 1-4.86 6.192zm-41.446 118.604a5 5 0 0 1-4.941-5.802c1.578-9.715-2.446-19.89-11.33-28.651-8.8-8.678-21.274-14.862-34.222-16.966-24.836-4.035-52.642 4.808-56.181 26.591a5 5 0 0 1-9.87-1.604c4.542-27.962 37.964-39.681 67.655-34.857 14.948 2.429 29.396 9.615 39.64 19.716 11.256 11.1 16.292 24.373 14.179 37.375a5.001 5.001 0 0 1-4.929 4.199z"/></g><circle cx="345.739" cy="965.586" fill="#3c191e" r="135.564"/><g clip-path="url(#l)" fill="#fae2ce"><path d="M485.678 1032.238c-.816 0-1.644-.2-2.409-.622l-217.021-119.63c-.37-.204-36.999-20.579-37.437-36.747a5 5 0 0 1 4.863-5.134 4.98 4.98 0 0 1 5.133 4.863c.187 6.879 21.414 22.277 32.268 28.26l217.021 119.63a5 5 0 0 1-2.418 9.38zm-75.844 120.65a5 5 0 0 1-4.993-5.348c.709-10.168-11.954-103.18-78.917-168.808-28.345-27.78-83.378-55.698-113.24-57.445a5 5 0 0 1-4.7-5.284 4.988 4.988 0 0 1 5.284-4.699c35.391 2.071 92.362 33.536 119.656 60.286 36.014 35.296 56.173 77.973 66.743 107.559 12.5 34.987 15.637 62.093 15.149 69.086a5 5 0 0 1-4.982 4.652z"/></g><path d="m393.836 1170.779-174.449 237.124c-7.207 9.798-21.325 12.198-31.459 5.476-7.009-4.64-86.271-61.933-147.378-182.032-17.159-33.724-29.675-67.877-38.819-100.439a.645.645 0 0 1-.057-.162c-.012-.058-.035-.127-.046-.185-4.704-16.777 1.153-41.108 12.855-54.038l128.171-141.686c10.961-12.112 33.092-18.522 49.427-18.614 32.703-.184 92.544 25.481 121.618 50.534 70.634 60.866 91.377 153.412 91.3 167.223-.062 11.224-4.513 27.761-11.164 36.798z" fill="#3c191e"/><g clip-path="url(#m)" fill="#fae2ce"><path d="M88.051 1080.304c-5.334 0-10.65-1.415-15.128-4.351-15.175-9.948-30.085-17.688-44.317-23.007a5 5 0 0 1 3.501-9.367c14.926 5.578 30.503 13.657 46.298 24.011 7.037 4.614 17.735 3.259 23.36-2.958l133.817-147.91a5 5 0 0 1 7.416 6.709l-133.817 147.91c-5.303 5.862-13.236 8.963-21.13 8.963zm189.484 264.05a5.004 5.004 0 0 1-4.7-3.293c-9.59-26.381-22.717-55.128-36.963-80.945-6.839-12.394-5.597-31.074 2.829-42.527l137.132-186.401a5 5 0 1 1 8.054 5.926l-137.132 186.401c-6.089 8.277-7.063 22.825-2.128 31.769 14.489 26.258 27.845 55.507 37.606 82.36a5 5 0 0 1-4.699 6.709z"/></g><circle cx="124.409" cy="1180.574" fill="#fae2ce" r="52.83"/><path d="M960.858 611.565s-94.097 165.19-95.255 166.734l.012.012-.116.127c-1.251 1.67-159.922 186.011-159.922 186.011-33.558 40.601-82.126 65.03-134.502 70.476-28.98 3.014-82.762-6.624-112.283-24.143L259.735 899.74c-14.119-7.871-38.785-30.897-47.395-49.167-15.423-32.726-17.76-71.519-.363-106.157l138.03-276.606c.229-6.037 5.132-16.679 5.132-16.679s23.793-21.132 41.863-20.449c25.423.962 45.436 19.905 44.17 41.657 3.337-24.078 28.849-40.566 57.139-36.85 30.055 3.928 51.633 29.234 45.372 55.025 9.138-22.391 36.729-34.73 64.919-27.909 29.666 7.205 49.061 32.955 44.464 58.312 12.628-19.635 40.704-27.345 66.889-17.102 12.868 5.04 23.13 13.572 29.753 23.675 4.312 6.566 12.029 22.109 5.517 42.278l-57.532 145.868 63.348-36.846 106.432-131.044c17.167-21.182 47.629-27.478 72.097-13.557 27.234 15.486 36.763 50.133 21.288 77.379z" fill="#3c191e"/><g fill="#fae2ce"><g clip-path="url(#n)"><path d="M762.61 563.038a5 5 0 0 1-4.953-4.364c-.897-6.996-12.914-34.431-41.003-43.033-25.77-7.892-50.372-1.856-61.218 15.019a5.002 5.002 0 0 1-6.039 1.949 4.998 4.998 0 0 1-3.087-5.543c4.151-22.923-13.737-46.008-40.723-52.554-25.393-6.151-50.806 4.569-59.111 24.933a5 5 0 0 1-9.489-3.067c2.304-9.491.303-19.484-5.632-28.137-7.598-11.077-20.883-18.836-35.538-20.755-25.459-3.339-48.578 11.28-51.537 32.589a5 5 0 0 1-9.944-.978c.477-8.202-2.622-16.373-8.726-23.008-7.54-8.195-18.682-13.067-30.57-13.367-27.624-.695-46.807 11.692-48.873 31.558a5 5 0 1 1-9.946-1.034c1.268-12.19 7.741-22.873 18.228-30.08 10.53-7.237 24.645-10.848 40.844-10.44 14.581.367 28.313 6.415 37.677 16.593 3.35 3.641 6.003 7.661 7.906 11.911 10.751-16.759 32.699-26.745 56.241-23.658 17.684 2.316 33.169 11.433 42.485 25.014 3.839 5.596 6.379 11.66 7.56 17.882 14.156-14.714 37.541-21.302 60.781-15.673 26.673 6.47 45.796 26.963 48.605 49.83 15.229-12.427 38.825-15.959 63.035-8.544 32.888 10.072 46.688 41.144 47.993 51.323a5 5 0 0 1-4.966 5.637zm-146.53 472.453a5.09 5.09 0 0 1-.625-.039c-9.477-1.181-28.692-11.493-42.789-35.063-16.083-26.894-28.688-75.939 2.601-156.865 19.092-49.381 50.616-84.402 73.7-105.086 23.562-21.112 42.944-31.789 45.856-33.342l17.232-12.552a5 5 0 1 1 5.887 8.082l-17.523 12.765a4.96 4.96 0 0 1-.641.397c-.197.103-20.25 10.644-44.383 32.317-22.184 19.923-52.475 53.622-70.802 101.025-29.834 77.164-18.286 123.143-3.345 148.126 12.172 20.354 28.199 29.37 35.442 30.273a5 5 0 0 1-.612 9.962zm249.377-243.394a4.999 4.999 0 0 1-4.361-7.439c10.095-18.076 2.849-51.063-16.855-76.731-18.818-24.515-51.933-38.708-75.391-32.311-4.396 1.199-10.376 3.652-10.436 3.677a5 5 0 0 1-3.807-9.247c.268-.11 6.608-2.713 11.612-4.077 27.537-7.51 64.491 7.91 85.955 35.869 22.348 29.113 29.772 65.994 17.653 87.696a5 5 0 0 1-4.37 2.563z"/></g><rect height="103.693" rx="24.203" transform="matrix(-.91025779 -.41404198 .41404198 -.91025779 351.112 1613.519)" width="190.807" x="255.013" y="716.862"/></g></svg></g></svg>